<svg width="59" height="59" viewBox="0 0 59 59" fill="none" xmlns="http://www.w3.org/2000/svg">
<g clip-path="url(#clip0)">
<path d="M51.7974 7.0498H7.21477C3.23505 7.0498 0 10.2849 0 14.2646V44.7351C0 48.7148 3.23505 51.9499 7.21477 51.9499H51.7852C55.765 51.9499 59 48.7148 59 44.7351V14.2768C59.0122 10.2971 55.7772 7.0498 51.7974 7.0498ZM55.7161 44.7351C55.7161 46.8959 53.9582 48.6538 51.7974 48.6538H7.21477C5.054 48.6538 3.29609 46.8959 3.29609 44.7351V14.2768C3.29609 12.116 5.054 10.3581 7.21477 10.3581H51.7852C53.946 10.3581 55.7039 12.116 55.7039 14.2768V44.7351H55.7161Z" fill="white"/>
<path d="M37.2092 29.1215L51.6388 16.1813C52.3102 15.5709 52.3712 14.5332 51.7609 13.8496C51.1505 13.1782 50.1128 13.1171 49.4292 13.7275L29.5306 31.5874L25.6485 28.1204C25.6363 28.1082 25.6241 28.096 25.6241 28.0838C25.5386 27.9984 25.4532 27.9251 25.3555 27.8519L9.55871 13.7153C8.87507 13.1049 7.83742 13.166 7.22703 13.8496C6.61664 14.5332 6.67768 15.5709 7.36131 16.1813L21.9618 29.2313L7.42235 42.843C6.76313 43.4656 6.72651 44.5032 7.34911 45.1747C7.67872 45.5165 8.11819 45.6996 8.55767 45.6996C8.96053 45.6996 9.36338 45.5531 9.68078 45.2601L24.4399 31.4532L28.4441 35.03C28.7615 35.3108 29.1521 35.4451 29.5428 35.4451C29.9334 35.4451 30.3363 35.2986 30.6415 35.0178L34.7555 31.3311L49.4292 45.2723C49.7466 45.5775 50.1616 45.724 50.5645 45.724C51.004 45.724 51.4312 45.5531 51.7609 45.2113C52.3834 44.5521 52.359 43.5022 51.6998 42.8796L37.2092 29.1215Z" fill="white"/>
</g>
<defs>
<clipPath id="clip0">
<rect width="59" height="59" fill="white"/>
</clipPath>
</defs>
</svg>
