<svg width="351" height="353" viewBox="0 0 351 353" fill="none" xmlns="http://www.w3.org/2000/svg">
<path d="M348.474 154.35C347.568 148.886 343.489 144.788 338.052 143.878L317.207 141.146C314.941 140.691 312.675 139.78 311.316 138.414C308.143 127.031 303.612 116.559 298.174 106.542C298.627 104.266 299.08 102.445 300.44 100.623L313.128 83.777C316.3 79.2239 316.3 73.3048 313.128 69.207C308.143 62.8327 303.159 56.9137 297.721 51.45C292.736 46.4416 287.298 41.8885 281.861 37.3354C277.329 34.1482 271.438 33.6929 266.907 37.3354L250.14 50.084C248.327 51.45 246.515 52.3606 244.702 52.3606C234.28 46.4416 223.404 41.8885 212.075 38.246C211.169 36.8801 210.263 34.6035 209.809 32.7823L207.09 11.838C206.184 6.37433 202.106 2.27655 196.668 1.36593C189.871 0.45531 182.62 0 175.823 0C168.119 0 159.963 0.45531 152.259 1.36593C146.821 2.27655 142.743 6.37433 141.837 11.838L139.118 32.7823C138.664 34.6035 138.211 36.4248 137.305 37.7907C136.852 37.7907 136.399 37.7907 136.399 38.246L153.165 84.6876C159.963 83.3216 166.76 82.411 174.01 82.411C225.67 82.411 267.36 124.299 267.36 176.205C267.36 228.11 225.67 269.999 174.01 269.999C166.76 269.999 159.963 269.088 153.165 267.722L135.946 314.164H136.399C137.758 315.985 138.211 317.806 138.664 319.627L141.383 340.572C142.29 346.035 146.368 350.133 151.806 351.044C158.603 351.954 165.854 352.41 172.651 352.41C180.354 352.41 188.511 351.954 196.215 351.044C201.653 350.133 205.731 346.035 206.637 340.572L209.356 319.627C209.809 317.351 210.716 315.529 212.075 313.708C223.404 310.521 233.826 305.968 243.796 300.504C246.062 300.504 248.327 301.415 250.14 302.781L266.907 315.529C271.438 318.717 277.329 318.717 281.407 315.529C287.752 310.521 293.643 305.513 299.08 300.049C304.065 295.041 308.597 289.577 313.128 284.113C316.3 279.56 316.753 273.641 313.128 269.088L300.44 252.241C299.08 250.42 298.174 248.144 298.174 245.867C303.612 235.85 308.143 225.378 311.316 214.451C313.128 213.085 315.394 212.174 317.66 211.719L338.505 208.987C343.943 208.076 348.021 203.979 348.927 198.515C349.834 191.685 350.287 184.4 350.287 177.571C349.834 169.83 349.38 162.09 348.474 154.35Z" fill="#6B767C"/>
<path d="M152.712 267.266C145.009 265.445 137.758 262.713 130.961 259.526C116.007 251.786 103.319 239.947 94.2557 225.378H164.041C166.76 225.378 167.666 223.101 169.026 220.369L180.808 190.319C180.808 187.587 178.542 185.31 175.823 185.31H81.1143C80.6611 182.123 80.6611 178.936 80.6611 175.749C80.6611 172.562 80.6611 169.374 81.1143 166.187H183.98C186.699 166.187 187.605 163.911 188.965 161.179L200.747 131.128C200.747 128.397 198.481 126.12 195.762 126.12H94.7089C104.225 111.095 117.366 98.8015 133.227 91.0613C139.571 87.8741 146.368 85.5975 153.166 83.7763L136.399 37.3347C127.789 39.6113 119.632 42.7984 111.929 46.4409C78.8485 62.3767 53.0188 91.0612 40.3306 126.12H16.7666C14.0477 126.12 13.1414 128.397 11.782 131.128L0 161.634C0 164.366 2.26576 166.643 4.98468 166.643H31.7207C31.7207 169.83 31.7207 173.017 31.7207 176.204C31.7207 179.391 31.7207 182.578 32.1738 185.766H16.7666C14.0477 185.766 13.1414 188.042 11.782 190.774L0 220.369C0 223.101 2.26576 225.378 4.98468 225.378H40.3306C52.5657 259.07 77.4891 286.844 109.21 303.236C117.82 307.789 126.883 311.431 136.399 313.708L152.712 267.266Z" fill="#E7C700"/>
</svg>
