<?xml version="1.0" encoding="utf-8"?>
<!-- Generator: Adobe Illustrator 24.1.0, SVG Export Plug-In . SVG Version: 6.00 Build 0)  -->
<svg version="1.1" id="Livello_1" xmlns="http://www.w3.org/2000/svg" xmlns:xlink="http://www.w3.org/1999/xlink" x="0px" y="0px"
	 viewBox="0 0 300 300" style="enable-background:new 0 0 300 300;" xml:space="preserve">
<style type="text/css">
	.st0{fill:#F4BF2B;}
	.st1{fill:#729DBF;}
	.st2{fill:#FFFFFF;stroke:#729DBF;stroke-width:2;stroke-miterlimit:10;}
	.st3{fill:#90D3F1;}
	.st4{fill:#6667A4;}
	.st5{fill:#EBEBF7;}
	.st6{fill:#80CFF5;}
	.st7{fill:#D3D3D3;}
	.st8{fill:#5B95C3;}
	.st9{fill:#62A2C8;}
	.st10{fill:#8281A6;}
	.st11{fill:#7A90B6;}
	.st12{fill:#9ACEE7;}
	.st13{fill:#FEFFFF;}
	.st14{clip-path:url(#SVGID_2_);fill:url(#SVGID_3_);}
	.st15{clip-path:url(#SVGID_5_);fill:url(#SVGID_6_);}
	.st16{clip-path:url(#SVGID_8_);fill:url(#SVGID_9_);}
	.st17{clip-path:url(#SVGID_11_);fill:url(#SVGID_12_);}
	.st18{clip-path:url(#SVGID_14_);fill:url(#SVGID_15_);}
	.st19{clip-path:url(#SVGID_17_);fill:url(#SVGID_18_);}
	.st20{clip-path:url(#SVGID_20_);fill:url(#SVGID_21_);}
	.st21{fill:#E7E6F5;}
	.st22{clip-path:url(#SVGID_23_);fill:url(#SVGID_24_);}
	.st23{clip-path:url(#SVGID_26_);fill:url(#SVGID_27_);}
	.st24{clip-path:url(#SVGID_29_);fill:url(#SVGID_30_);}
	.st25{clip-path:url(#SVGID_32_);fill:url(#SVGID_33_);}
	.st26{clip-path:url(#SVGID_35_);fill:url(#SVGID_36_);}
	.st27{clip-path:url(#SVGID_38_);fill:url(#SVGID_39_);}
	.st28{clip-path:url(#SVGID_41_);fill:url(#SVGID_42_);}
	.st29{clip-path:url(#SVGID_44_);fill:url(#SVGID_45_);}
	.st30{clip-path:url(#SVGID_47_);fill:url(#SVGID_48_);}
	.st31{clip-path:url(#SVGID_50_);fill:url(#SVGID_51_);}
	.st32{clip-path:url(#SVGID_53_);fill:url(#SVGID_54_);}
	.st33{clip-path:url(#SVGID_56_);fill:url(#SVGID_57_);}
	.st34{clip-path:url(#SVGID_59_);fill:url(#SVGID_60_);}
	.st35{clip-path:url(#SVGID_62_);fill:url(#SVGID_63_);}
	.st36{clip-path:url(#SVGID_65_);fill:url(#SVGID_66_);}
	.st37{clip-path:url(#SVGID_68_);fill:url(#SVGID_69_);}
	.st38{clip-path:url(#SVGID_71_);fill:url(#SVGID_72_);}
	.st39{clip-path:url(#SVGID_74_);fill:url(#SVGID_75_);}
	.st40{clip-path:url(#SVGID_77_);fill:url(#SVGID_78_);}
	.st41{clip-path:url(#SVGID_80_);fill:url(#SVGID_81_);}
	.st42{clip-path:url(#SVGID_83_);fill:url(#SVGID_84_);}
	.st43{clip-path:url(#SVGID_86_);fill:url(#SVGID_87_);}
	.st44{clip-path:url(#SVGID_89_);fill:url(#SVGID_90_);}
	.st45{clip-path:url(#SVGID_92_);fill:url(#SVGID_93_);}
	.st46{clip-path:url(#SVGID_95_);fill:url(#SVGID_96_);}
	.st47{clip-path:url(#SVGID_98_);fill:url(#SVGID_99_);}
	.st48{clip-path:url(#SVGID_101_);fill:url(#SVGID_102_);}
	.st49{clip-path:url(#SVGID_104_);fill:url(#SVGID_105_);}
	.st50{clip-path:url(#SVGID_107_);fill:url(#SVGID_108_);}
	.st51{clip-path:url(#SVGID_110_);fill:url(#SVGID_111_);}
	.st52{clip-path:url(#SVGID_113_);fill:url(#SVGID_114_);}
	.st53{clip-path:url(#SVGID_116_);fill:url(#SVGID_117_);}
	.st54{clip-path:url(#SVGID_119_);fill:url(#SVGID_120_);}
	.st55{clip-path:url(#SVGID_122_);fill:url(#SVGID_123_);}
	.st56{clip-path:url(#SVGID_125_);fill:url(#SVGID_126_);}
	.st57{clip-path:url(#SVGID_128_);fill:url(#SVGID_129_);}
	.st58{clip-path:url(#SVGID_131_);fill:url(#SVGID_132_);}
	.st59{fill:#FFFFFF;}
	.st60{clip-path:url(#SVGID_134_);fill:url(#SVGID_135_);}
	.st61{clip-path:url(#SVGID_137_);fill:url(#SVGID_138_);}
	.st62{clip-path:url(#SVGID_140_);fill:url(#SVGID_141_);}
	.st63{opacity:0.33;fill:#B3B2B2;}
	.st64{clip-path:url(#SVGID_143_);fill:url(#SVGID_144_);}
	.st65{clip-path:url(#SVGID_146_);fill:url(#SVGID_147_);}
	.st66{clip-path:url(#SVGID_149_);fill:url(#SVGID_150_);}
	.st67{clip-path:url(#SVGID_152_);fill:url(#SVGID_153_);}
	.st68{clip-path:url(#SVGID_155_);fill:url(#SVGID_156_);}
	.st69{clip-path:url(#SVGID_158_);fill:url(#SVGID_159_);}
	.st70{clip-path:url(#SVGID_161_);fill:url(#SVGID_162_);}
	.st71{clip-path:url(#SVGID_164_);fill:url(#SVGID_165_);}
	.st72{clip-path:url(#SVGID_167_);fill:url(#SVGID_168_);}
	.st73{clip-path:url(#SVGID_170_);fill:url(#SVGID_171_);}
	.st74{clip-path:url(#SVGID_173_);fill:url(#SVGID_174_);}
	.st75{clip-path:url(#SVGID_176_);fill:url(#SVGID_177_);}
	.st76{clip-path:url(#SVGID_179_);fill:url(#SVGID_180_);}
	.st77{clip-path:url(#SVGID_182_);fill:url(#SVGID_183_);}
	.st78{clip-path:url(#SVGID_185_);fill:url(#SVGID_186_);}
	.st79{clip-path:url(#SVGID_188_);fill:url(#SVGID_189_);}
	.st80{clip-path:url(#SVGID_191_);fill:url(#SVGID_192_);}
	.st81{clip-path:url(#SVGID_194_);fill:url(#SVGID_195_);}
	.st82{clip-path:url(#SVGID_197_);fill:url(#SVGID_198_);}
	.st83{clip-path:url(#SVGID_200_);fill:url(#SVGID_201_);}
	.st84{clip-path:url(#SVGID_203_);fill:url(#SVGID_204_);}
	.st85{clip-path:url(#SVGID_206_);fill:url(#SVGID_207_);}
	.st86{clip-path:url(#SVGID_209_);fill:url(#SVGID_210_);}
	.st87{clip-path:url(#SVGID_212_);fill:url(#SVGID_213_);}
	.st88{clip-path:url(#SVGID_215_);fill:url(#SVGID_216_);}
	.st89{clip-path:url(#SVGID_218_);fill:url(#SVGID_219_);}
	.st90{clip-path:url(#SVGID_221_);fill:url(#SVGID_222_);}
	.st91{clip-path:url(#SVGID_224_);fill:url(#SVGID_225_);}
	.st92{clip-path:url(#SVGID_227_);fill:url(#SVGID_228_);}
</style>
<path class="st0" d="M47.7,55.2l0.1-3.2l-1.6,2.7c-0.6,1-1.7,1.6-2.9,1.6L40,56.2l2.7,1.5c1.1,0.6,1.8,1.8,1.7,3.1l-0.2,3.1l1.5-2.7
	c0.6-1.1,1.8-1.8,3.1-1.7l3.1,0.2L49.2,58C48.2,57.4,47.6,56.3,47.7,55.2"/>
<path class="st0" d="M65.9,69.1l0.1-3.2l-1.6,2.7c-0.6,1-1.7,1.6-2.9,1.6l-3.2-0.1l2.7,1.5c1.1,0.6,1.8,1.8,1.7,3.1l-0.2,3.1
	l1.5-2.7c0.6-1.1,1.8-1.8,3.1-1.7l3.1,0.2L67.5,72C66.5,71.4,65.9,70.3,65.9,69.1"/>
<path class="st0" d="M24.4,75.5l0.1-3.2L22.8,75c-0.6,1-1.7,1.6-2.9,1.6l-3.2-0.1l2.7,1.5c1.1,0.6,1.8,1.8,1.7,3.1L21,84.2l1.5-2.7
	c0.6-1.1,1.8-1.8,3.1-1.7l3.1,0.2L26,78.4C25,77.8,24.4,76.7,24.4,75.5"/>
<path class="st1" d="M112.7,76.3l-67-0.5c-3.1,0-5.6,2.5-5.6,5.5L39.2,234c0,3.1,2.5,5.6,5.5,5.6l68.7,0.4c3.1,0,5.6-2.5,5.6-5.5
	l0.8-150C119.9,79,115.7,76.3,112.7,76.3"/>
<path class="st2" d="M111.5,76.2l-68.7-0.4c-3.1,0-5.6,2.5-5.6,5.5l-0.8,152.6c0,3.1,2.5,5.6,5.5,5.6l68.7,0.4
	c3.1,0,5.6-2.5,5.6-5.5L117,81.7C117,78.7,114.6,76.2,111.5,76.2"/>
<polyline class="st3" points="40.6,217.6 111.9,218 112.6,94.2 41.3,93.8 40.6,217.6 "/>
<path class="st4" d="M84.6,84.5l-15.3-0.1c-0.5,0-1,0.4-1,1c0,0.5,0.4,1,1,1l15.3,0.1c0.5,0,1-0.4,1-1C85.6,85,85.2,84.5,84.6,84.5"
	/>
<polyline class="st5" points="112,217.9 111.9,217.9 112.6,94.2 112,217.9 "/>
<path class="st6" d="M75.7,157.8l-0.2,0L75.7,157.8 M66.2,165.9l5-7.2c-0.8-6.5,24.6-0.9,17.8-0.9l-5.5,0l0-6.5
	c5-1.7,9-6.3,10.9-12.4c0.2,0.1,0.4,0.1,0.5,0.1c0.1,0,0.3,0,0.4,0c0,0,0.1,0,0.1,0c0,0.4,0,0.9,0,1.4c0.1-0.5,0.3-0.9,0.5-1.5
	c1.3-0.3,2.3-1.5,2.6-3c0.2-1.3-0.2-2.6-1.1-3.3c0-0.3,0-0.6,0-0.9c0-3.3-0.5-6.5-1.5-9.4l16.4-28.2l-0.7,123.6 M111.9,217.9
	l-71.2-0.4"/>
<path class="st4" d="M89.4,84.6c-0.5,0.5-0.5,1.3,0,1.9c0.5,0.5,1.3,0.5,1.9,0c0.5-0.5,0.5-1.3,0-1.9C90.7,84.1,89.9,84.1,89.4,84.6
	"/>
<path class="st7" d="M79.5,222.1l-6.6,0c-1.9,0-3.4,1.5-3.4,3.4l0,6.6c0,1.9,1.5,3.4,3.4,3.4l6.6,0c1.9,0,3.4-1.5,3.4-3.4l0-6.6
	C83,223.6,81.4,222.1,79.5,222.1"/>
<path class="st8" d="M60.1,207.9"/>
<path class="st9" d="M58,187.9"/>
<path class="st9" d="M58,187.9"/>
<polyline class="st10" points="81.5,152.2 81.5,151.3 81.5,151.3 81.5,152.2 "/>
<polyline class="st11" points="93.6,131.3 93.6,131.3 93.6,131.3 "/>
<path class="st12" d="M61.5,131.1C61.5,131.1,61.5,131.1,61.5,131.1c0-3.1,0.6-6,1.5-8.7c0,0,0,0,0,0C62,125,61.5,128,61.5,131.1
	C61.5,131.1,61.5,131.1,61.5,131.1 M61.5,131.2C61.5,131.2,61.5,131.2,61.5,131.2C61.5,131.2,61.5,131.2,61.5,131.2"/>
<path class="st13" d="M95.9,178.7H58.6c-0.6,0-1.2-0.5-1.2-1.2v-0.3c0-0.6,0.5-1.2,1.2-1.2h37.3c0.6,0,1.2,0.5,1.2,1.2v0.3
	C97,178.2,96.5,178.7,95.9,178.7"/>
<path class="st13" d="M95.9,184.7H58.6c-0.6,0-1.2-0.5-1.2-1.2v-0.3c0-0.6,0.5-1.2,1.2-1.2h37.3c0.6,0,1.2,0.5,1.2,1.2v0.3
	C97,184.2,96.5,184.7,95.9,184.7"/>
<path class="st13" d="M95.9,190.3H58.6c-0.6,0-1.2-0.5-1.2-1.2v-0.3c0-0.6,0.5-1.2,1.2-1.2h37.3c0.6,0,1.2,0.5,1.2,1.2v0.3
	C97,189.8,96.5,190.3,95.9,190.3"/>
<path class="st6" d="M191.1,148.4l-0.2,0L191.1,148.4"/>
<path class="st8" d="M217.5,160.2l-33.3-0.2l6.7-11.5l0.2,0l5.8,0l0-6.5c5-1.7,9-6.3,10.9-12.4c0.2,0.1,0.4,0.1,0.5,0.1
	c0.1,0,0.3,0,0.4,0c1.5,0,2.9-1.3,3.2-3.1c0.3-2-0.8-3.8-2.5-4.1c-0.1,0-0.3,0-0.4,0c0,0-0.1,0-0.1,0c0-0.2,0-0.4,0-0.6c0,0,0,0,0,0
	c0,0,0,0,0,0c0,0,0-0.1,0-0.1c0-1.3-0.1-2.6-0.3-3.9l2.8-4.9c1,2.9,1.5,6.1,1.5,9.4c0,0.3,0,0.6,0,0.9c0.8,0.8,1.3,2,1.1,3.3
	c-0.2,1.5-1.3,2.7-2.6,3c-0.2,0.5-0.4,1-0.5,1.5c0-0.5,0-1,0-1.4c0,0-0.1,0-0.1,0c-0.1,0-0.3,0-0.4,0c-0.2,0-0.4-0.1-0.5-0.1
	c-1.9,6.1-5.9,10.7-10.9,12.4l0,6.5l5.5,0C211.1,148.6,216.7,153.6,217.5,160.2"/>
<g>
	<defs>
		<path id="SVGID_1_" d="M196.9,148.5l-5.8,0l-0.2,0l-1.9,0l0-6.4l0,0.9c0.3,0.1,0.6,0.2,0.9,0.3c0.3,0.1,1.4,0.4,2.9,0.4
			c0.3,0,0.7,0,1,0c1.1-0.1,2.1-0.4,3-0.7L196.9,148.5"/>
	</defs>
	<clipPath id="SVGID_2_">
		<use xlink:href="#SVGID_1_"  style="overflow:visible;"/>
	</clipPath>
	
		<linearGradient id="SVGID_3_" gradientUnits="userSpaceOnUse" x1="-1455.9728" y1="1143.8838" x2="-1455.7203" y2="1143.8838" gradientTransform="matrix(30.9159 0.1694 0.1694 -30.9159 45008.0078 35756.0664)">
		<stop  offset="0" style="stop-color:#F5A99D"/>
		<stop  offset="1" style="stop-color:#EE769D"/>
	</linearGradient>
	<polygon class="st14" points="189.1,142 196.9,142 196.9,148.5 189,148.5 	"/>
</g>
<g>
	<defs>
		<path id="SVGID_4_" d="M177,129.5c-1.6,0-3-1.3-3.2-3.1c-0.3-2,0.9-3.8,2.6-4c0.1,0,0.3,0,0.4,0c0.1,0,0.1,0,0.1,0
			c0,2.5,0.4,4.8,1,7c-0.2,0.1-0.3,0.1-0.5,0.1C177.3,129.4,177.1,129.5,177,129.5"/>
	</defs>
	<clipPath id="SVGID_5_">
		<use xlink:href="#SVGID_4_"  style="overflow:visible;"/>
	</clipPath>
	
		<radialGradient id="SVGID_6_" cx="-1466.1969" cy="1135.2668" r="0.2524" gradientTransform="matrix(12.2942 -1.8365 -2.1061 -14.0985 20593.5605 13438.751)" gradientUnits="userSpaceOnUse">
		<stop  offset="0" style="stop-color:#EE759C"/>
		<stop  offset="0.1076" style="stop-color:#EF84A2"/>
		<stop  offset="0.5242" style="stop-color:#F6B4B0"/>
		<stop  offset="0.8339" style="stop-color:#FBCEB4"/>
		<stop  offset="1" style="stop-color:#FCD7B4"/>
	</radialGradient>
	<polygon class="st15" points="172.4,122.4 177.8,121.6 179,129.3 173.6,130.1 	"/>
</g>
<g>
	<defs>
		<path id="SVGID_7_" d="M208.8,129.7c-0.1,0-0.3,0-0.4,0c-0.2,0-0.4-0.1-0.5-0.1c0.7-2.2,1.1-4.5,1.2-7c0,0,0.1,0,0.1,0
			c0.1,0,0.3,0,0.4,0c1.7,0.3,2.8,2.1,2.5,4.1C211.7,128.5,210.3,129.7,208.8,129.7"/>
	</defs>
	<clipPath id="SVGID_8_">
		<use xlink:href="#SVGID_7_"  style="overflow:visible;"/>
	</clipPath>
	
		<radialGradient id="SVGID_9_" cx="-1430.1703" cy="1130.4233" r="0.2524" gradientTransform="matrix(-12.2734 -1.9711 2.2605 -14.0746 -19899.4512 13217.4072)" gradientUnits="userSpaceOnUse">
		<stop  offset="0" style="stop-color:#EE759C"/>
		<stop  offset="0.1076" style="stop-color:#EF84A2"/>
		<stop  offset="0.5242" style="stop-color:#F6B4B0"/>
		<stop  offset="0.8339" style="stop-color:#FBCEB4"/>
		<stop  offset="1" style="stop-color:#FCD7B4"/>
	</radialGradient>
	<polygon class="st16" points="213.5,122.8 207.9,121.9 206.7,129.6 212.2,130.5 	"/>
</g>
<g>
	<defs>
		<path id="SVGID_10_" d="M193,101.1C193,101.1,193,101.1,193,101.1C193,101.1,193,101.1,193,101.1 M193,101.1
			C193,101.1,193,101.1,193,101.1C193,101.1,193,101.1,193,101.1 M193,101.1L193,101.1 M176.9,121.8
			C176.9,121.8,176.9,121.8,176.9,121.8C176.9,121.8,176.9,121.8,176.9,121.8 M209,122C209,122,209,122,209,122
			C209,122,209,122,209,122 M192.9,142.6C192.9,142.6,192.8,142.6,192.9,142.6c-1.4,0-2.6-0.2-3.8-0.6c-5.1-1.6-9.3-6.4-11.2-12.7
			c-0.6-2.2-1-4.5-1-7c0-0.1,0-0.3,0-0.4c0,1.5,0.1,2.9,0.3,4.3c1.5-4.8,5.9-10.1,5.9-10.1s0.7,0.3,1.2,0.7c0.7,0.6,1.6,1,3.4,1.9
			c0.8,0.4,3,1.5,5.9,1.7c1.4,0.1,7.5,0.7,10.2,2.6c2.8,2,4.2,4.2,4.4,5c0.5-1.9,0.7-3.9,0.7-6c0,0.2,0,0.4,0,0.6
			c-0.1,2.5-0.5,4.8-1.2,7c-1.9,6.1-5.9,10.7-10.9,12.4v0C195.6,142.4,194.3,142.6,192.9,142.6"/>
	</defs>
	<clipPath id="SVGID_11_">
		<use xlink:href="#SVGID_10_"  style="overflow:visible;"/>
	</clipPath>
	
		<radialGradient id="SVGID_12_" cx="-1450.8204" cy="1147.9722" r="0.2524" gradientTransform="matrix(124.483 0.682 0.682 -124.483 180012.4844 144014.3281)" gradientUnits="userSpaceOnUse">
		<stop  offset="0" style="stop-color:#FCD7B4"/>
		<stop  offset="0.1661" style="stop-color:#FBCEB4"/>
		<stop  offset="0.4758" style="stop-color:#F6B4B0"/>
		<stop  offset="0.8924" style="stop-color:#EF84A2"/>
		<stop  offset="1" style="stop-color:#EE759C"/>
	</radialGradient>
	<polygon class="st17" points="176.9,100.9 209.2,101.1 209,142.8 176.6,142.6 	"/>
</g>
<g>
	<defs>
		<path id="SVGID_13_" d="M182.6,114.5c5.9-6.3,14.5-9.1,21.5-10.7c-3.1-3.3-7.1-5.4-11.5-5.4c-9.8-0.1-20.9,11.7-16.1,26.5
			C177.4,121.4,180.1,117.1,182.6,114.5"/>
	</defs>
	<clipPath id="SVGID_14_">
		<use xlink:href="#SVGID_13_"  style="overflow:visible;"/>
	</clipPath>
	
		<linearGradient id="SVGID_15_" gradientUnits="userSpaceOnUse" x1="-1450.347" y1="1147.5122" x2="-1450.0946" y2="1147.5122" gradientTransform="matrix(113.462 0.6216 0.6216 -113.462 164014.0625 131212.125)">
		<stop  offset="0" style="stop-color:#594A99"/>
		<stop  offset="1" style="stop-color:#6AC7E5"/>
	</linearGradient>
	<polygon class="st18" points="171.7,98.2 204.2,98.4 204,125.1 171.5,124.9 	"/>
</g>
<g>
	<defs>
		<path id="SVGID_16_" d="M199.4,119.2c5.8,1.3,8,3.4,9.7,5.9c1,1.4,2.2,2.1,2.3-3.1c0.1-13-8-23.5-18-23.6c-5.8,0-10.3,2-14.1,7.4
			C179.2,105.9,180.7,115.1,199.4,119.2"/>
	</defs>
	<clipPath id="SVGID_17_">
		<use xlink:href="#SVGID_16_"  style="overflow:visible;"/>
	</clipPath>
	
		<linearGradient id="SVGID_18_" gradientUnits="userSpaceOnUse" x1="-1448.7928" y1="1148.2341" x2="-1448.5404" y2="1148.2341" gradientTransform="matrix(179.046 114.264 114.264 -179.046 128367.6953 371227.5938)">
		<stop  offset="0" style="stop-color:#6AC7E5"/>
		<stop  offset="1" style="stop-color:#594A99"/>
	</linearGradient>
	<polygon class="st19" points="188.6,83.8 224.5,106.8 202.1,141.8 166.2,118.9 	"/>
</g>
<g>
	<defs>
		<path id="SVGID_19_" d="M202.3,148.5l-18.9-0.1c-6.8,0-12.4,5-13.3,11.5l45.4,0.2C214.7,153.6,209.1,148.5,202.3,148.5"/>
	</defs>
	<clipPath id="SVGID_20_">
		<use xlink:href="#SVGID_19_"  style="overflow:visible;"/>
	</clipPath>
	
		<linearGradient id="SVGID_21_" gradientUnits="userSpaceOnUse" x1="-1449.2589" y1="1149.536" x2="-1449.0065" y2="1149.536" gradientTransform="matrix(337.323 1.848 1.848 -337.323 486889.7188 390597.1562)">
		<stop  offset="0" style="stop-color:#6AC7E5"/>
		<stop  offset="1" style="stop-color:#594A99"/>
	</linearGradient>
	<polygon class="st20" points="170.1,148.1 215.6,148.4 215.5,160.4 170,160.1 	"/>
</g>
<path class="st13" d="M211.3,169.4H174c-0.6,0-1.2-0.5-1.2-1.2V168c0-0.6,0.5-1.2,1.2-1.2h37.3c0.6,0,1.2,0.5,1.2,1.2v0.3
	C212.4,168.9,211.9,169.4,211.3,169.4"/>
<path class="st13" d="M211.3,175.4H174c-0.6,0-1.2-0.5-1.2-1.2V174c0-0.6,0.5-1.2,1.2-1.2h37.3c0.6,0,1.2,0.5,1.2,1.2v0.3
	C212.4,174.9,211.9,175.4,211.3,175.4"/>
<path class="st13" d="M211.3,181H174c-0.6,0-1.2-0.5-1.2-1.2v-0.3c0-0.6,0.5-1.2,1.2-1.2h37.3c0.6,0,1.2,0.5,1.2,1.2v0.3
	C212.4,180.5,211.9,181,211.3,181"/>
<path class="st13" d="M199.7,195c0-0.7-0.4-1.2-0.7-1.6c0.2-0.6,0.2-1.2,0-1.8c-0.4-0.7-1.2-1-1.9-1.3c-0.2-0.7-0.4-1.6-1.1-2
	c-0.2-0.1-0.5-0.2-0.9-0.2c-0.3,0-0.6,0.1-0.9,0.1c-0.4-0.4-0.9-0.9-1.5-0.9c-0.3,0-0.6,0.1-0.9,0.2c-0.4,0.2-0.7,0.5-1.2,0.9
	c-0.5-0.1-0.9-0.2-1.4-0.2c-0.4,0-0.6,0.1-0.9,0.2c-0.5,0.3-0.8,0.9-1,1.5c-0.2,0.1-0.5,0.1-0.8,0.2c-0.3,0.1-0.5,0.4-0.7,0.6
	c-0.4,0.7-0.3,1.5-0.1,2.3c-0.5,0.6-1.2,1.2-1.2,2c0,0.7,0.4,1.2,0.7,1.6c-0.2,0.6-0.2,1.2,0,1.8c0.4,0.7,1.2,1,1.9,1.3
	c0.2,0.7,0.4,1.6,1.1,2c0.2,0.1,0.5,0.2,0.9,0.2c0.3,0,0.6-0.1,0.9-0.1c0.4,0.4,0.9,0.9,1.5,0.9c0.1,0,0.1,0,0.1,0
	c0.2,0,0.5-0.1,0.8-0.2c0.4-0.2,0.7-0.5,1.2-0.9c0.5,0.1,0.9,0.2,1.4,0.2c0.4,0,0.6-0.1,0.9-0.2c0.5-0.3,0.8-0.9,1-1.5
	c0.2-0.1,0.5-0.1,0.8-0.2c0.3-0.2,0.5-0.4,0.7-0.6c0.4-0.7,0.3-1.5,0.1-2.3C199.1,196.4,199.7,195.8,199.7,195z M198.1,196.7
	c-0.1,0.1-0.1,0.1-0.1,0.2c0.1,0.7,0.3,1.5-0.1,2c-0.1,0.2-0.3,0.3-0.5,0.4c-0.2,0.1-0.5,0.2-0.9,0.2c-0.1,0-0.1,0.1-0.2,0.2
	c-0.2,0.6-0.4,1.1-0.8,1.4c-0.2,0.1-0.4,0.2-0.7,0.2c-0.4,0-0.9-0.1-1.4-0.2c-0.1,0-0.2,0-0.2,0.1c-0.4,0.3-0.7,0.7-1.1,0.9
	c-0.2,0.1-0.4,0.2-0.7,0.1c-0.5-0.1-0.9-0.4-1.3-0.9c-0.1-0.1-0.1-0.1-0.2-0.1h-0.1c-0.2,0.1-0.5,0.1-0.9,0.1
	c-0.2,0-0.5-0.1-0.7-0.2c-0.5-0.3-0.7-1.1-0.9-1.8c0-0.1-0.1-0.1-0.1-0.2c-0.8-0.2-1.5-0.6-1.8-1.1c-0.2-0.5-0.1-1,0.1-1.5
	c0-0.1,0-0.2-0.1-0.2c-0.4-0.4-0.7-0.9-0.7-1.4c0-0.6,0.5-1.2,1.1-1.7c0.1-0.1,0.1-0.1,0.1-0.2c-0.1-0.7-0.3-1.5,0.1-2
	c0.1-0.2,0.3-0.3,0.5-0.4c0.2-0.1,0.5-0.2,0.9-0.2c0.1,0,0.1-0.1,0.2-0.2c0.2-0.6,0.4-1.1,0.8-1.4c0.2-0.1,0.4-0.2,0.7-0.2
	c0.4,0,0.9,0.1,1.3,0.2c0.1,0,0.2,0,0.2-0.1c0.4-0.3,0.7-0.7,1.1-0.9c0.2-0.1,0.4-0.2,0.7-0.1c0.5,0.1,0.9,0.4,1.3,0.9
	c0.1,0.1,0.1,0.1,0.2,0.1c0.2-0.1,0.5-0.1,0.9-0.1c0.2,0,0.5,0.1,0.7,0.2c0.5,0.3,0.7,1.1,0.9,1.8c0,0.1,0.1,0.1,0.1,0.2
	c0.8,0.2,1.5,0.6,1.8,1.1c0.2,0.5,0.1,1-0.1,1.5c0,0.1,0,0.2,0.1,0.2c0.4,0.4,0.7,0.9,0.7,1.4C199.2,195.6,198.7,196.1,198.1,196.7z
	"/>
<path class="st13" d="M192.1,189.4c-3.1,0-5.6,2.5-5.6,5.6c0,3.1,2.5,5.6,5.6,5.6s5.6-2.5,5.6-5.6
	C197.7,191.8,195.2,189.4,192.1,189.4z M192.1,200.1c-2.8,0-5.1-2.3-5.1-5.1c0-2.8,2.3-5.1,5.1-5.1s5.1,2.3,5.1,5.1
	C197.2,197.8,194.9,200.1,192.1,200.1z"/>
<path class="st13" d="M193.1,195.8c-0.2-0.1-0.4-0.1-0.5,0.1c-0.8,1.1-1.4,0.7-2.1,0.2c-0.5-0.3-1-0.6-1.5-0.2
	c-0.5,0.4-0.6,0.3-1.1-0.1c-0.4-0.4-1-0.9-1.9-0.8c-0.8,0.1-1.1,0.9-1.3,1.4c-0.2,0.7-0.4,0.7-0.7,0.6c-0.4-0.1-0.7-0.5-0.9-1.1
	c1.8-2,2.4-6.9,2.3-8.2c0-0.1-0.1-0.6-0.5-0.7c-0.3-0.1-0.6,0.1-1.3,1.7c-0.4,1-0.8,2.2-1,3.4c-0.3,1.4-0.4,2.7-0.3,3.5
	c-0.1,0.1-0.2,0.2-0.4,0.2c-1.2,0.5-1.4,0.3-1.4,0.3c-0.2-0.2,0.2-1.4,0.9-2.5c0.1-0.2,0.1-0.4-0.1-0.6s-0.4-0.1-0.5,0.1
	c-0.4,0.6-1.5,2.5-0.8,3.4c0.5,0.6,1.6,0.2,2.3-0.1c0.1-0.1,0.2-0.1,0.2-0.1c0.2,0.7,0.7,1.1,1.3,1.3c0.2,0.1,0.4,0.1,0.5,0.1
	c0.8,0,1-0.7,1.2-1.2c0.2-0.5,0.3-0.8,0.7-0.9c0.5-0.1,0.9,0.2,1.3,0.6c0.5,0.4,1.2,1.1,2.2,0.2c0.1,0,0.4,0.2,0.5,0.3
	c0.7,0.4,2,1.2,3.2-0.5C193.3,196.2,193.3,195.9,193.1,195.8z M184.4,188.4c-0.1,1.5-0.5,4.6-1.6,6.3
	C182.8,192.6,183.8,189.7,184.4,188.4z"/>
<path class="st0" d="M28.9,57.2l0.1-3.2l-1.6,2.7c-0.6,1-1.7,1.6-2.9,1.6l-3.2-0.1l2.7,1.5c1.1,0.6,1.8,1.8,1.7,3.1l-0.2,3.1
	l1.5-2.7c0.6-1.1,1.8-1.8,3.1-1.7l3.1,0.2l-2.7-1.6C29.4,59.4,28.8,58.3,28.9,57.2"/>
<path class="st21" d="M275.4,190H141.8c-3.1,0-5.8-2-6.8-4.8c1.3,1.3,3.2,2.2,5.2,2.2h133.4c4,0,7.3-3.3,7.3-7.3V105
	c0-1.8-0.6-3.4-1.7-4.6c2.1,1.3,3.5,3.6,3.5,6.3v76C282.7,186.7,279.5,190,275.4,190"/>
<g>
	<defs>
		<path id="SVGID_22_" d="M218.2,171.9c0.6-2,1.6-3.8,3-5.3C221,168.7,219.6,170.4,218.2,171.9 M201,173.3c-0.1-0.1-0.2-0.1-0.3-0.2
			c0.1-0.2,0.2-0.4,0.3-0.7c0.3-0.7,0.5-1.5,0.7-2.2c0.1-0.2,0.1-0.5,0.2-0.7c0,1.1,0.1,2.1,0.2,3.1c0,0.2,0,0.3,0,0.5
			C201.7,173.3,201.4,173.3,201,173.3 M197.6,173.6c-0.3,0-0.6-0.1-0.7-0.3c0.4-0.1,0.9-0.1,1.4-0.1c0.6,0,1.1,0.1,1.6,0.2l0,0
			C199.1,173.5,198.4,173.6,197.6,173.6C197.6,173.6,197.6,173.6,197.6,173.6 M202.2,175.8c0,0,0-0.1,0-0.1c0-0.4-0.1-0.8-0.2-1.2
			c-0.1-0.3-0.2-0.5-0.4-0.7c0.2,0,0.4-0.1,0.5-0.1C202.1,174.5,202.2,175.1,202.2,175.8 M260.4,165.3c-2.7,0-4.9,2.2-4.9,4.9
			c0,2.7,2.2,4.9,4.9,4.9c2.7,0,4.9-2.2,4.9-4.9C265.3,167.6,263.1,165.3,260.4,165.3 M260.4,177.9c-4.2,0-7.6-3.4-7.6-7.6
			c0-4.2,3.4-7.6,7.6-7.6s7.6,3.4,7.6,7.6C268,174.5,264.6,177.9,260.4,177.9 M156,101.7c-6.7,0-12,5.4-12,12c0,6.7,5.4,12,12,12
			c3.8,0,7.2-1.8,9.4-4.5h101.7c1.6,0,2.9-1.3,2.9-2.9v-8.6c0-1-0.5-1.9-1.3-2.4c-0.5-0.8-1.4-1.3-2.4-1.3H165.2
			C163,103.4,159.7,101.7,156,101.7 M197.6,130.2c-0.9,0-1.6,1-1.6,2.2v0.1c0,1.2,0.7,2.2,1.6,2.2h65.4c0.9,0,1.6-1,1.6-2.2v-0.1
			c0-1.2-0.7-2.2-1.6-2.2H197.6 M197.5,140.7c-0.5,0-0.9,0.7-0.9,1.6v0.1c0,0.9,0.4,1.6,0.9,1.6h35.2c0.5,0,0.9-0.7,0.9-1.6v-0.1
			c0-0.9-0.4-1.6-0.9-1.6H197.5 M197.5,148.2c-0.5,0-0.9,0.7-0.9,1.6v0.1c0,0.9,0.4,1.6,0.9,1.6h35.2c0.5,0,0.9-0.7,0.9-1.6v-0.1
			c0-0.9-0.4-1.6-0.9-1.6H197.5 M197.5,155.7c-0.5,0-0.9,0.7-0.9,1.6v0.1c0,0.9,0.4,1.6,0.9,1.6h35.2c0.5,0,0.9-0.7,0.9-1.6v-0.1
			c0-0.9-0.4-1.6-0.9-1.6H197.5 M205.7,173c-0.1,0.7-0.3,1.4-0.5,2.1c-0.4,0.6-0.8,1.2-0.9,1.9l-0.5,1.8l1-1.6
			c0.4-0.6,0.7-1.2,0.9-1.9c0.5-0.7,1.3-1.3,2.1-1.6l0.2,2.9l0.5-0.8c0.6-1,1.3-1.9,2-2.7c0.1,0.7,0,1.4-0.2,2
			c-0.2,0.4-0.4,0.8-0.5,1.2l-0.7,2.4l1.3-2.2c0.2-0.4,0.4-0.8,0.5-1.2c0.4-0.8,1-1.4,1.8-1.9l0.1,2.6l0.5-0.3
			c0.9-0.7,1.7-1.5,2.5-2.3c0.1,0.1,0.3,0.2,0.5,0.2c0.1,0,0.1,0,0.2,0c0.3,0,0.7-0.1,1-0.3c-0.1,0.8-0.2,1.5-0.1,2.3l0,0.1
			c0.4,1.6,1.3,2.1,2,2.3c0.2,0.1,0.4,0.1,0.7,0.1c1.4,0,3-1,4.1-2.2c1.2-1.3,1.7-2.7,1.3-3.8l-0.1-0.2l0,0c1-0.6,2-1.3,2.9-2l0.4,1
			l0.2,0c1.2-0.2,2.4-0.6,3.3-1.4c0.3,0.4,0.8,0.7,1.4,0.7c0,0,0.1,0,0.1,0l0-0.6c0,0,0,0-0.1,0c-0.4,0-0.8-0.3-1-0.6l-0.2-0.3
			l-0.3,0.2c-0.9,0.7-1.9,1.2-3.1,1.4l-0.6-1.3l-0.3,0.3c-1.1,1-2.4,1.9-3.7,2.6c0,0,0,0,0,0c-1.1,0-2.1,0.5-2.8,1.3l-0.7,0.8l1-0.4
			c0.9-0.3,1.8-0.7,2.7-1.2c0.1,0,0.2,0,0.4,0c0.2,0.8-0.3,2-1.3,3c-1.1,1.2-2.5,2-3.7,2c-0.2,0-0.3,0-0.5-0.1
			c-0.8-0.2-1.3-0.8-1.6-1.8c0-0.9,0-1.8,0.2-2.7c0.1-0.1,0.1-0.1,0.2-0.2c1.9-1.9,3.8-4.2,3.6-6.9l0-0.6l-0.4,0.4
			c-2,1.8-3.3,4.3-3.9,6.9c-0.4,0.3-0.8,0.5-1.1,0.5c0,0-0.1,0-0.1,0c-0.1,0-0.3-0.1-0.3-0.2l-0.2-0.4l-0.3,0.3
			c-0.7,0.8-1.4,1.5-2.2,2.2l-0.1-2.5l-0.4,0.2c-0.6,0.3-1.2,0.8-1.6,1.3c0-0.5,0-1.1-0.1-1.6l-0.1-0.5l-0.4,0.4
			c-0.8,0.8-1.5,1.6-2.1,2.5l-0.1-1.9l-0.4,0.1c-0.7,0.2-1.3,0.6-1.8,1c0.1-0.5,0.2-1,0.3-1.6l0-0.4l-0.4,0.1
			c-1.1,0.3-2.2,0.6-3.3,0.8c0-0.1,0-0.3,0-0.4c-0.1-1.5-0.2-3.1-0.2-4.7l0-1.3l-0.5,1.2c-0.3,0.7-0.5,1.5-0.7,2.3
			c-0.2,0.7-0.4,1.4-0.6,2.1c-0.1,0.2-0.2,0.4-0.3,0.7c-0.5-0.2-1.2-0.3-2-0.3c-0.5,0-1.1,0-1.7,0.1l-0.1,0l-0.1,0.1
			c-0.1,0.2-0.1,0.4,0,0.7c0.2,0.4,0.8,0.6,1.3,0.6c0.6,0,1.2,0,1.7-0.1c-1.3,1.5-3.3,2.3-5.3,2.3c-0.6,0-1.2-0.1-1.8-0.3
			c-0.3-0.1-0.7-0.3-0.9-0.6c-0.2-0.3-0.1-0.8,0.2-1.1c0.4-0.4,0.9-0.5,1.2-0.5l0-0.6c-0.7,0-1.2,0.3-1.6,0.7
			c-0.5,0.5-0.6,1.3-0.3,1.8c0.3,0.5,0.9,0.7,1.3,0.9c0.6,0.2,1.3,0.3,2,0.3c2.3,0,4.7-1.1,6.1-3c0.2,0,0.5,0,0.7-0.1
			c0.2,0.2,0.4,0.5,0.6,0.8c0.1,0.3,0.2,0.7,0.2,1c0.1,0.7,0.2,1.4,0.8,1.9l0.5,0.4l0-0.6c0-1.3-0.1-2.5-0.2-3.7
			C203.7,173.5,204.7,173.3,205.7,173 M260.4,161.5c-4.8,0-8.8,3.9-8.8,8.8c0,4.8,3.9,8.8,8.8,8.8c4.8,0,8.8-3.9,8.8-8.8
			C269.2,165.4,265.2,161.5,260.4,161.5 M164.1,180.1c0.2,0,0.4,0,0.6,0c12.5,0,22.6-10.1,22.6-22.6c0-8.4-4.6-15.8-11.5-19.7
			c-2.6-4.1-6.5-6.7-10.9-6.7c-3.9,0-7.4,2-10,5.3c-8.3,3.3-14.2,11.5-14.2,21c0,7,3.1,13.2,8.1,17.3c0,0.1,0,0.2-0.1,0.4l0.5,0
			c3.9,3.1,8.8,5,14.1,5C163.7,180.1,163.9,180.1,164.1,180.1 M273.6,187.4H140.2c-2,0-3.9-0.8-5.2-2.2c-1.3-1.3-2.1-3.1-2.1-5.1
			V105c0-4,3.3-7.3,7.3-7.3h133.4c2.3,0,4.3,1,5.6,2.6c1,1.3,1.7,2.9,1.7,4.6v75.1C280.9,184.2,277.6,187.4,273.6,187.4"/>
	</defs>
	<clipPath id="SVGID_23_">
		<use xlink:href="#SVGID_22_"  style="overflow:visible;"/>
	</clipPath>
	
		<linearGradient id="SVGID_24_" gradientUnits="userSpaceOnUse" x1="-348.5251" y1="649.8608" x2="-348.2727" y2="649.8608" gradientTransform="matrix(586.192 0 0 -586.192 204435.5625 381085.7812)">
		<stop  offset="0" style="stop-color:#9ED7EB"/>
		<stop  offset="1" style="stop-color:#70C2EA"/>
	</linearGradient>
	<rect x="132.9" y="97.7" class="st22" width="148" height="89.7"/>
</g>
<g>
	<defs>
		<path id="SVGID_25_" d="M164.7,180.1c-0.2,0-0.4,0-0.6,0c12.2-0.3,22-10.3,22-22.6c0-7.6-3.7-14.3-9.5-18.4
			c-0.2-0.4-0.5-0.9-0.8-1.3c6.9,3.9,11.5,11.3,11.5,19.7C187.4,170,177.2,180.1,164.7,180.1"/>
	</defs>
	<clipPath id="SVGID_26_">
		<use xlink:href="#SVGID_25_"  style="overflow:visible;"/>
	</clipPath>
	
		<linearGradient id="SVGID_27_" gradientUnits="userSpaceOnUse" x1="-348.5251" y1="649.8329" x2="-348.2727" y2="649.8329" gradientTransform="matrix(586.192 0 0 -586.192 204435.5625 381085.7812)">
		<stop  offset="0" style="stop-color:#7299BA"/>
		<stop  offset="1" style="stop-color:#528AB8"/>
	</linearGradient>
	<rect x="164.1" y="137.7" class="st23" width="23.3" height="42.4"/>
</g>
<g>
	<defs>
		<path id="SVGID_28_" d="M148.9,174.8c-4.9-4.2-8.1-10.4-8.1-17.3c0-9.5,5.9-17.7,14.2-21c-0.4,0.5-0.8,1.1-1.2,1.7
			c0,0,0,0.1,0,0.1c-0.9,1.6-1.6,3.4-1.8,5.4c-0.1,0.1-0.1,0.2-0.2,0.3c-1.1,1.6-1.1,2.9-0.8,5.3c-1,0.4-1.7,1.6-1.5,2.9
			c0.2,1.1,1,2,1.9,2.2c0.1,2.1,0.1,4.6,0,7.9c-0.3,5-0.8,7.1-0.6,8.7C149.8,171.8,149.2,173.1,148.9,174.8 M163.5,180.1
			c-5.3,0-10.3-1.9-14.1-5l4-0.2c2.6,2.3,6.8,3.6,10.9,3.6c3.4,0,6.6-0.9,8.8-3c0.5-0.5,3.5,0.1,4.4-2l2.1-0.1l0.8-0.9
			c-0.4-0.4-1.4-1.5-2.7-2.6c-0.1-5.3,0-10.9-0.1-15.7c0.9-0.3,1.6-1.1,1.8-2.2c0.1-0.6,0-1.1-0.2-1.5c0-0.3,0-0.7,0-1.3
			c0-3.8-0.9-7.4-2.5-10.3c5.7,4.1,9.5,10.8,9.5,18.4c0,12.3-9.8,22.3-22,22.6C163.9,180.1,163.7,180.1,163.5,180.1"/>
	</defs>
	<clipPath id="SVGID_29_">
		<use xlink:href="#SVGID_28_"  style="overflow:visible;"/>
	</clipPath>
	
		<linearGradient id="SVGID_30_" gradientUnits="userSpaceOnUse" x1="-347.579" y1="649.7861" x2="-347.3266" y2="649.7861" gradientTransform="matrix(179.419 0 0 -179.419 62503.0898 116742.2344)">
		<stop  offset="0" style="stop-color:#214B9B"/>
		<stop  offset="1" style="stop-color:#2C2E7D"/>
	</linearGradient>
	<rect x="140.8" y="136.4" class="st24" width="45.3" height="43.7"/>
</g>
<g>
	<defs>
		<path id="SVGID_31_" d="M151,149.2c-0.2-2.4-0.3-3.7,0.8-5.3c0.1-0.1,0.1-0.2,0.2-0.3c-0.1,0.9-0.1,1.7-0.1,2.6
			c-0.1,0.8-0.1,1.6-0.1,2.4c0,0.1,0,0.3,0,0.4c0,0-0.1,0-0.1,0c-0.1,0-0.2,0-0.3,0C151.3,149.1,151.1,149.2,151,149.2 M177.6,170
			c-0.5-0.4-1-0.8-1.5-1.1c-1.5-1-3.2-1.5-5-1.5l-2.9,0v-3.9c3.7-1.2,6.6-4.7,8-9.2c0.1,0,0.3,0.1,0.4,0.1c0.1,0,0.2,0,0.3,0
			c0.2,0,0.4,0,0.6-0.1C177.6,159.1,177.5,164.8,177.6,170 M150.8,170.8c-0.2-1.6,0.3-3.7,0.6-8.7c0.2-3.2,0.1-5.8,0-7.9
			c0.2,0,0.3,0.1,0.5,0.1c0.1,0,0.2,0,0.3,0c0.1,0,0.3-0.1,0.4-0.1c1.4,4.6,4.5,8.2,8.3,9.4v4.7h-2.7
			C155.1,168.3,152.5,169.1,150.8,170.8 M164.2,178.5c-4,0-8.2-1.3-10.9-3.6l24.1-1.3c-0.9,2.1-3.9,1.5-4.4,2
			C170.8,177.6,167.5,178.5,164.2,178.5"/>
	</defs>
	<clipPath id="SVGID_32_">
		<use xlink:href="#SVGID_31_"  style="overflow:visible;"/>
	</clipPath>
	
		<linearGradient id="SVGID_33_" gradientUnits="userSpaceOnUse" x1="-347.6405" y1="649.8099" x2="-347.3881" y2="649.8099" gradientTransform="matrix(188.413 0 0 -188.413 65640.3906 122593.7266)">
		<stop  offset="0" style="stop-color:#6AC7E5"/>
		<stop  offset="1.410669e-02" style="stop-color:#67C2E2"/>
		<stop  offset="0.1088" style="stop-color:#59A5D3"/>
		<stop  offset="0.209" style="stop-color:#5089C3"/>
		<stop  offset="0.3131" style="stop-color:#4B72B4"/>
		<stop  offset="0.4221" style="stop-color:#495FA7"/>
		<stop  offset="0.5378" style="stop-color:#48519D"/>
		<stop  offset="0.6631" style="stop-color:#474696"/>
		<stop  offset="0.8051" style="stop-color:#464093"/>
		<stop  offset="1" style="stop-color:#463E91"/>
	</linearGradient>
	<rect x="150.6" y="143.6" class="st25" width="27" height="34.9"/>
</g>
<g>
	<defs>
		<path id="SVGID_34_" d="M175.9,137.7c-2-1.1-4.2-2-6.5-2.5c-1.1-0.8-2.2-1.3-3.4-1.6c-0.7-0.2-1.5-0.3-2.3-0.3
			c-0.8,0-1.6,0.1-2.3,0.3c-1.4,0.3-2.7,1-3.8,1.9c-0.9,0.2-1.7,0.5-2.5,0.9c2.6-3.3,6.1-5.3,10-5.3
			C169.4,131.1,173.3,133.7,175.9,137.7 M148.8,175.2c0-0.1,0-0.2,0.1-0.4c0.1,0.1,0.3,0.2,0.4,0.3L148.8,175.2"/>
	</defs>
	<clipPath id="SVGID_35_">
		<use xlink:href="#SVGID_34_"  style="overflow:visible;"/>
	</clipPath>
	
		<linearGradient id="SVGID_36_" gradientUnits="userSpaceOnUse" x1="-348.5251" y1="649.8428" x2="-348.2727" y2="649.8428" gradientTransform="matrix(586.192 0 0 -586.192 204435.5625 381085.7812)">
		<stop  offset="0" style="stop-color:#80AECA"/>
		<stop  offset="1" style="stop-color:#5D9CC9"/>
	</linearGradient>
	<rect x="148.8" y="131.1" class="st26" width="27.1" height="44.1"/>
</g>
<g>
	<defs>
		<path id="SVGID_37_" d="M176.6,139c-2-1.4-4.2-2.5-6.6-3.3c-0.2-0.2-0.4-0.3-0.6-0.5c2.3,0.5,4.5,1.3,6.5,2.5
			C176.2,138.2,176.4,138.6,176.6,139"/>
	</defs>
	<clipPath id="SVGID_38_">
		<use xlink:href="#SVGID_37_"  style="overflow:visible;"/>
	</clipPath>
	
		<linearGradient id="SVGID_39_" gradientUnits="userSpaceOnUse" x1="-348.5251" y1="649.8701" x2="-348.2727" y2="649.8701" gradientTransform="matrix(586.192 0 0 -586.192 204435.5625 381085.7812)">
		<stop  offset="0" style="stop-color:#5F7DA3"/>
		<stop  offset="1" style="stop-color:#4571A3"/>
	</linearGradient>
	<rect x="169.4" y="135.3" class="st27" width="7.3" height="3.8"/>
</g>
<g>
	<defs>
		<path id="SVGID_40_" d="M152,143.6c0.2-2,0.9-3.8,1.8-5.4c0,0,0-0.1,0-0.1c0.4-0.6,0.8-1.2,1.2-1.7c0.8-0.3,1.7-0.6,2.5-0.9
			c-2.2,1.7-3.9,4.2-4.8,7.3C152.5,143.1,152.2,143.4,152,143.6 M177.5,154.4c0-0.4,0-0.8,0-1.2c0.2-0.3,0.3-0.6,0.3-1
			c0.1-0.8-0.1-1.6-0.5-2.1c-0.2-3.1-0.7-5.4-1.6-6.5c-0.4-0.4-0.8-0.8-1.2-1.2c-1-2.7-2.5-5-4.4-6.6c2.4,0.7,4.6,1.8,6.6,3.3
			c1.6,2.9,2.5,6.5,2.5,10.3c0,0.5,0,0.9,0,1.3c0.2,0.5,0.3,1,0.2,1.5C179.1,153.3,178.4,154.1,177.5,154.4 M177.4,173.6
			c0.2-0.4,0.3-1,0.3-1.6c0-0.6,0-1.3-0.1-1.9c1.3,1.1,2.3,2.1,2.7,2.6l-0.8,0.9L177.4,173.6 M149.3,175.1c-0.1-0.1-0.3-0.2-0.4-0.3
			c0.3-1.7,1-3,1.9-3.9c0.1,0.6,0.3,1.2,0.6,1.8c0.5,0.8,1.1,1.6,1.9,2.3L149.3,175.1"/>
	</defs>
	<clipPath id="SVGID_41_">
		<use xlink:href="#SVGID_40_"  style="overflow:visible;"/>
	</clipPath>
	
		<linearGradient id="SVGID_42_" gradientUnits="userSpaceOnUse" x1="-347.579" y1="649.8022" x2="-347.3266" y2="649.8022" gradientTransform="matrix(179.419 0 0 -179.419 62503.0898 116742.2344)">
		<stop  offset="0" style="stop-color:#1C3F8B"/>
		<stop  offset="1" style="stop-color:#2D2C70"/>
	</linearGradient>
	<rect x="148.9" y="135.6" class="st28" width="31.4" height="39.6"/>
</g>
<g>
	<defs>
		<path id="SVGID_43_" d="M152,146.3c-0.1-0.9,0-1.8,0.1-2.6c0.2-0.3,0.4-0.5,0.7-0.8C152.4,144,152.1,145.1,152,146.3 M177.3,150
			c-0.3-0.5-0.8-0.8-1.4-0.9c-0.1,0-0.2,0-0.3,0c0,0,0,0-0.1,0c0-0.1,0-0.2,0-0.4c0,0,0,0,0,0c0,0,0,0,0,0c0,0,0,0,0,0c0,0,0,0,0,0
			c0,0,0,0,0,0c0,0,0,0,0,0c0,0,0,0,0,0c0,0,0,0,0,0c0,0,0,0,0,0c0,0,0,0,0,0c0-2.3-0.4-4.4-1.1-6.3c0.4,0.4,0.8,0.8,1.2,1.2
			C176.6,144.7,177,147,177.3,150 M153.3,174.9c-0.8-0.7-1.4-1.4-1.9-2.3c-0.3-0.6-0.5-1.2-0.6-1.8c1.7-1.7,4.3-2.5,7.4-2.5h8.4
			v-4.8c3.7-1.2,6.6-4.7,8-9.2c0.1,0,0.3,0.1,0.4,0.1c0.1,0,0.2,0,0.3,0c0.8,0,1.6-0.5,2.1-1.3c0,0.4,0,0.8,0,1.2
			c-0.2,0.1-0.4,0.1-0.6,0.1c-0.1,0-0.2,0-0.3,0c-0.1,0-0.3-0.1-0.4-0.1c-1.4,4.5-4.3,7.9-8,9.2v3.9l2.9,0c1.8,0,3.5,0.5,5,1.5
			c0.6,0.4,1.1,0.7,1.5,1.1c0,0.6,0,1.3,0.1,1.9c0,0.7-0.1,1.2-0.3,1.6L153.3,174.9"/>
	</defs>
	<clipPath id="SVGID_44_">
		<use xlink:href="#SVGID_43_"  style="overflow:visible;"/>
	</clipPath>
	
		<linearGradient id="SVGID_45_" gradientUnits="userSpaceOnUse" x1="-347.6405" y1="649.8229" x2="-347.3881" y2="649.8229" gradientTransform="matrix(188.413 0 0 -188.413 65640.3906 122593.7266)">
		<stop  offset="0" style="stop-color:#30B9DA"/>
		<stop  offset="2.942127e-02" style="stop-color:#2EB0D5"/>
		<stop  offset="0.1226" style="stop-color:#2E96C8"/>
		<stop  offset="0.2213" style="stop-color:#337DB9"/>
		<stop  offset="0.3238" style="stop-color:#3867AB"/>
		<stop  offset="0.4311" style="stop-color:#3C55A0"/>
		<stop  offset="0.5449" style="stop-color:#3E4797"/>
		<stop  offset="0.6683" style="stop-color:#3F3D91"/>
		<stop  offset="0.8082" style="stop-color:#40388D"/>
		<stop  offset="1" style="stop-color:#40368C"/>
	</linearGradient>
	<rect x="150.8" y="142.4" class="st29" width="26.9" height="32.6"/>
</g>
<g>
	<defs>
		<path id="SVGID_46_" d="M166.7,168.3h-5.8v-4.7v0.6c0.2,0.1,0.4,0.2,0.6,0.2c0.2,0.1,1,0.3,2.1,0.3c0.3,0,0.5,0,0.8,0
			c0.8-0.1,1.6-0.3,2.2-0.5v-0.6V168.3"/>
	</defs>
	<clipPath id="SVGID_47_">
		<use xlink:href="#SVGID_46_"  style="overflow:visible;"/>
	</clipPath>
	
		<linearGradient id="SVGID_48_" gradientUnits="userSpaceOnUse" x1="-340.4359" y1="649.269" x2="-340.1835" y2="649.269" gradientTransform="matrix(22.8166 0 0 -22.8166 7928.5039 14980.04)">
		<stop  offset="0" style="stop-color:#F5A99D"/>
		<stop  offset="1" style="stop-color:#EE769D"/>
	</linearGradient>
	<rect x="160.9" y="163.5" class="st30" width="5.8" height="4.8"/>
</g>
<g>
	<defs>
		<path id="SVGID_49_" d="M163.7,164.8c-1.1,0-1.9-0.2-2.1-0.3c-0.2-0.1-0.4-0.1-0.6-0.2v-0.6c0.9,0.3,1.8,0.4,2.8,0.4
			c1,0,2-0.2,3-0.5v0.6c-0.6,0.2-1.4,0.5-2.2,0.5C164.2,164.7,163.9,164.8,163.7,164.8"/>
	</defs>
	<clipPath id="SVGID_50_">
		<use xlink:href="#SVGID_49_"  style="overflow:visible;"/>
	</clipPath>
	
		<linearGradient id="SVGID_51_" gradientUnits="userSpaceOnUse" x1="-340.4359" y1="649.3475" x2="-340.1835" y2="649.3475" gradientTransform="matrix(22.8166 0 0 -22.8166 7928.5039 14980.04)">
		<stop  offset="0" style="stop-color:#F08F8B"/>
		<stop  offset="1" style="stop-color:#ED6C8C"/>
	</linearGradient>
	<rect x="160.9" y="163.5" class="st31" width="5.8" height="1.2"/>
</g>
<g>
	<defs>
		<path id="SVGID_52_" d="M151.9,154.4c-0.2,0-0.3,0-0.5-0.1c-0.9-0.2-1.7-1.1-1.9-2.2c-0.2-1.3,0.4-2.5,1.5-2.9
			c0.1-0.1,0.3-0.1,0.4-0.1c0.1,0,0.2,0,0.3,0c0,0,0.1,0,0.1,0c0,1.8,0.3,3.6,0.8,5.2c-0.1,0-0.3,0.1-0.4,0.1
			C152.1,154.4,152,154.4,151.9,154.4"/>
	</defs>
	<clipPath id="SVGID_53_">
		<use xlink:href="#SVGID_52_"  style="overflow:visible;"/>
	</clipPath>
	
		<radialGradient id="SVGID_54_" cx="-325.9602" cy="641.6436" r="0.2524" gradientTransform="matrix(9.0657 -1.405 -1.6113 -10.3961 4140.7573 6364.3472)" gradientUnits="userSpaceOnUse">
		<stop  offset="0" style="stop-color:#EE759C"/>
		<stop  offset="0.1076" style="stop-color:#EF84A2"/>
		<stop  offset="0.5242" style="stop-color:#F6B4B0"/>
		<stop  offset="0.8339" style="stop-color:#FBCEB4"/>
		<stop  offset="1" style="stop-color:#FCD7B4"/>
	</radialGradient>
	<polygon class="st32" points="148.5,149.2 152.5,148.6 153.4,154.3 149.4,154.9 	"/>
</g>
<g>
	<defs>
		<path id="SVGID_55_" d="M175.4,154.5c-0.1,0-0.2,0-0.3,0c-0.1,0-0.3-0.1-0.4-0.1c0.5-1.6,0.8-3.3,0.8-5.2c0,0,0,0,0.1,0
			c0.1,0,0.2,0,0.3,0c0.6,0.1,1,0.4,1.4,0.9c0.4,0.6,0.6,1.3,0.5,2.1c-0.1,0.4-0.2,0.7-0.3,1C177,153.9,176.2,154.5,175.4,154.5"/>
	</defs>
	<clipPath id="SVGID_56_">
		<use xlink:href="#SVGID_55_"  style="overflow:visible;"/>
	</clipPath>
	
		<radialGradient id="SVGID_57_" cx="-366.3053" cy="647.1218" r="0.2524" gradientTransform="matrix(-9.0657 -1.4051 1.6113 -10.3962 -4188.0361 6364.7324)" gradientUnits="userSpaceOnUse">
		<stop  offset="0" style="stop-color:#EE759C"/>
		<stop  offset="0.1076" style="stop-color:#EF84A2"/>
		<stop  offset="0.5242" style="stop-color:#F6B4B0"/>
		<stop  offset="0.8339" style="stop-color:#FBCEB4"/>
		<stop  offset="1" style="stop-color:#FCD7B4"/>
	</radialGradient>
	<polygon class="st33" points="178.7,149.3 174.8,148.7 173.9,154.3 177.8,155 	"/>
</g>
<g>
	<defs>
		<path id="SVGID_58_" d="M175.5,148.7C175.5,148.7,175.5,148.7,175.5,148.7 M175.5,148.7C175.5,148.7,175.5,148.7,175.5,148.7
			C175.5,148.7,175.5,148.7,175.5,148.7 M175.5,148.8C175.5,148.8,175.5,148.7,175.5,148.8C175.5,148.7,175.5,148.8,175.5,148.8
			 M175.5,148.8C175.5,148.8,175.5,148.8,175.5,148.8C175.5,148.8,175.5,148.8,175.5,148.8 M175.5,148.8
			C175.5,148.8,175.5,148.8,175.5,148.8C175.5,148.8,175.5,148.8,175.5,148.8 M163.7,164c-0.9,0-1.9-0.1-2.8-0.4
			c-3.8-1.2-6.9-4.7-8.3-9.4c-0.5-1.6-0.8-3.3-0.8-5.2c0-0.1,0-0.3,0-0.4c0,1.1,0.4,3.8,0.6,4.9c0.8-3.7,4.3-9.5,4.3-9.5
			s3.2,1.7,4.6,2.2c3.9,1.4,8.8,1.7,10.9,2.9c2.8,1.5,2.6,3.5,2.7,4c0.3-1.4,0.5-2.9,0.5-4.4c0,0.1,0,0.2,0,0.4
			c0,1.8-0.3,3.6-0.8,5.2c-1.4,4.5-4.3,7.9-8,9.2C165.7,163.8,164.7,164,163.7,164"/>
	</defs>
	<clipPath id="SVGID_59_">
		<use xlink:href="#SVGID_58_"  style="overflow:visible;"/>
	</clipPath>
	
		<radialGradient id="SVGID_60_" cx="-346.0167" cy="648.9888" r="0.2524" gradientTransform="matrix(62.7664 0 0 -62.7664 21881.8848 40883.3906)" gradientUnits="userSpaceOnUse">
		<stop  offset="0" style="stop-color:#FCD7B4"/>
		<stop  offset="0.1661" style="stop-color:#FBCEB4"/>
		<stop  offset="0.4758" style="stop-color:#F6B4B0"/>
		<stop  offset="0.8924" style="stop-color:#EF84A2"/>
		<stop  offset="1" style="stop-color:#EE759C"/>
	</radialGradient>
	<rect x="151.8" y="144" class="st34" width="23.7" height="20"/>
</g>
<g>
	<defs>
		<path id="SVGID_61_" d="M175.5,148.7C175.5,148.7,175.5,148.7,175.5,148.7C175.5,148.7,175.5,148.7,175.5,148.7 M175.5,148.7
			C175.5,148.7,175.5,148.7,175.5,148.7C175.5,148.7,175.5,148.7,175.5,148.7 M175.5,148.8C175.5,148.8,175.5,148.8,175.5,148.8
			C175.5,148.8,175.5,148.8,175.5,148.8 M175.5,148.8C175.5,148.8,175.5,148.8,175.5,148.8C175.5,148.8,175.5,148.8,175.5,148.8
			 M175.5,148.8C175.5,148.8,175.5,148.8,175.5,148.8C175.5,148.8,175.5,148.8,175.5,148.8"/>
	</defs>
	<clipPath id="SVGID_62_">
		<use xlink:href="#SVGID_61_"  style="overflow:visible;"/>
	</clipPath>
	
		<linearGradient id="SVGID_63_" gradientUnits="userSpaceOnUse" x1="-347.4594" y1="649.8754" x2="-347.4489" y2="649.8754" gradientTransform="matrix(188.413 0 0 -188.413 65640.3906 122593.7266)">
		<stop  offset="0" style="stop-color:#52A8C6"/>
		<stop  offset="6.577539e-02" style="stop-color:#5298C0"/>
		<stop  offset="0.169" style="stop-color:#557FB4"/>
		<stop  offset="0.2784" style="stop-color:#5769A8"/>
		<stop  offset="0.3929" style="stop-color:#59579E"/>
		<stop  offset="0.5144" style="stop-color:#5A4895"/>
		<stop  offset="0.646" style="stop-color:#5A3D90"/>
		<stop  offset="0.7953" style="stop-color:#5A378D"/>
		<stop  offset="1" style="stop-color:#5A358C"/>
	</linearGradient>
	<rect x="175.5" y="148.7" class="st35" width="0" height="0.1"/>
</g>
<g>
	<defs>
		<path id="SVGID_64_" d="M169.4,135.3L169.4,135.3c-1.1-0.8-2.2-1.3-3.4-1.6C167.2,134,168.3,134.5,169.4,135.3"/>
	</defs>
	<clipPath id="SVGID_65_">
		<use xlink:href="#SVGID_64_"  style="overflow:visible;"/>
	</clipPath>
	
		<linearGradient id="SVGID_66_" gradientUnits="userSpaceOnUse" x1="-348.5251" y1="649.8746" x2="-348.2727" y2="649.8746" gradientTransform="matrix(586.192 0 0 -586.192 204435.5625 381085.7812)">
		<stop  offset="0" style="stop-color:#94A1BA"/>
		<stop  offset="1" style="stop-color:#7791B8"/>
	</linearGradient>
	<rect x="166" y="133.7" class="st36" width="3.4" height="1.6"/>
</g>
<g>
	<defs>
		<path id="SVGID_67_" d="M170,135.8L170,135.8c-0.2-0.2-0.4-0.3-0.6-0.5C169.6,135.4,169.8,135.6,170,135.8"/>
	</defs>
	<clipPath id="SVGID_68_">
		<use xlink:href="#SVGID_67_"  style="overflow:visible;"/>
	</clipPath>
	
		<linearGradient id="SVGID_69_" gradientUnits="userSpaceOnUse" x1="-348.5251" y1="649.8728" x2="-348.2727" y2="649.8728" gradientTransform="matrix(586.192 0 0 -586.192 204435.5625 381085.7812)">
		<stop  offset="0" style="stop-color:#77799A"/>
		<stop  offset="1" style="stop-color:#646F99"/>
	</linearGradient>
	<rect x="169.4" y="135.3" class="st37" width="0.6" height="0.5"/>
</g>
<g>
	<defs>
		<path id="SVGID_70_" d="M174.5,142.4L174.5,142.4c-1-2.7-2.5-5-4.4-6.6C171.9,137.4,173.5,139.6,174.5,142.4"/>
	</defs>
	<clipPath id="SVGID_71_">
		<use xlink:href="#SVGID_70_"  style="overflow:visible;"/>
	</clipPath>
	
		<linearGradient id="SVGID_72_" gradientUnits="userSpaceOnUse" x1="-347.579" y1="649.8931" x2="-347.3266" y2="649.8931" gradientTransform="matrix(179.419 0 0 -179.419 62503.0898 116742.2344)">
		<stop  offset="0" style="stop-color:#424689"/>
		<stop  offset="1" style="stop-color:#4B2E77"/>
	</linearGradient>
	<rect x="170" y="135.8" class="st38" width="4.4" height="6.6"/>
</g>
<g>
	<defs>
		<path id="SVGID_73_" d="M175.5,148.7c0-2.3-0.4-4.4-1.1-6.3C175.1,144.3,175.5,146.4,175.5,148.7"/>
	</defs>
	<clipPath id="SVGID_74_">
		<use xlink:href="#SVGID_73_"  style="overflow:visible;"/>
	</clipPath>
	
		<linearGradient id="SVGID_75_" gradientUnits="userSpaceOnUse" x1="-347.6405" y1="649.8925" x2="-347.3881" y2="649.8925" gradientTransform="matrix(188.413 0 0 -188.413 65640.3906 122593.7266)">
		<stop  offset="0" style="stop-color:#52A8C6"/>
		<stop  offset="6.577539e-02" style="stop-color:#5298C0"/>
		<stop  offset="0.169" style="stop-color:#557FB4"/>
		<stop  offset="0.2784" style="stop-color:#5769A8"/>
		<stop  offset="0.3929" style="stop-color:#59579E"/>
		<stop  offset="0.5144" style="stop-color:#5A4895"/>
		<stop  offset="0.646" style="stop-color:#5A3D90"/>
		<stop  offset="0.7953" style="stop-color:#5A378D"/>
		<stop  offset="1" style="stop-color:#5A358C"/>
	</linearGradient>
	<rect x="174.5" y="142.4" class="st39" width="1.1" height="6.3"/>
</g>
<g>
	<defs>
		<path id="SVGID_76_" d="M151.8,148.7L151.8,148.7c0-0.8,0-1.6,0.1-2.4C151.9,147.1,151.8,147.9,151.8,148.7"/>
	</defs>
	<clipPath id="SVGID_77_">
		<use xlink:href="#SVGID_76_"  style="overflow:visible;"/>
	</clipPath>
	
		<linearGradient id="SVGID_78_" gradientUnits="userSpaceOnUse" x1="-347.6405" y1="649.8821" x2="-347.3881" y2="649.8821" gradientTransform="matrix(188.413 0 0 -188.413 65640.3906 122593.7266)">
		<stop  offset="0" style="stop-color:#61C4DC"/>
		<stop  offset="2.107799e-02" style="stop-color:#60BDD9"/>
		<stop  offset="0.115" style="stop-color:#5CA3CC"/>
		<stop  offset="0.2146" style="stop-color:#5B89BE"/>
		<stop  offset="0.3179" style="stop-color:#5B72B1"/>
		<stop  offset="0.4262" style="stop-color:#5C5FA5"/>
		<stop  offset="0.541" style="stop-color:#5C509C"/>
		<stop  offset="0.6654" style="stop-color:#5C4595"/>
		<stop  offset="0.8065" style="stop-color:#5C3F91"/>
		<stop  offset="1" style="stop-color:#5C3D90"/>
	</linearGradient>
	<rect x="151.8" y="146.3" class="st40" width="0.1" height="2.4"/>
</g>
<g>
	<defs>
		<path id="SVGID_79_" d="M157.5,135.6c1.2-0.9,2.4-1.6,3.8-1.9C160,134,158.7,134.7,157.5,135.6"/>
	</defs>
	<clipPath id="SVGID_80_">
		<use xlink:href="#SVGID_79_"  style="overflow:visible;"/>
	</clipPath>
	
		<linearGradient id="SVGID_81_" gradientUnits="userSpaceOnUse" x1="-348.5251" y1="649.8743" x2="-348.2727" y2="649.8743" gradientTransform="matrix(586.192 0 0 -586.192 204435.5625 381085.7812)">
		<stop  offset="0" style="stop-color:#94A1BA"/>
		<stop  offset="1" style="stop-color:#7791B8"/>
	</linearGradient>
	<rect x="157.5" y="133.7" class="st41" width="3.8" height="1.9"/>
</g>
<g>
	<defs>
		<path id="SVGID_82_" d="M152.7,142.9c1-3,2.7-5.6,4.8-7.3C155.4,137.3,153.7,139.8,152.7,142.9L152.7,142.9"/>
	</defs>
	<clipPath id="SVGID_83_">
		<use xlink:href="#SVGID_82_"  style="overflow:visible;"/>
	</clipPath>
	
		<linearGradient id="SVGID_84_" gradientUnits="userSpaceOnUse" x1="-347.579" y1="649.8922" x2="-347.3266" y2="649.8922" gradientTransform="matrix(179.419 0 0 -179.419 62503.0898 116742.2344)">
		<stop  offset="0" style="stop-color:#424689"/>
		<stop  offset="1" style="stop-color:#4B2E77"/>
	</linearGradient>
	<rect x="152.7" y="135.6" class="st42" width="4.8" height="7.3"/>
</g>
<g>
	<defs>
		<path id="SVGID_85_" d="M152,146.3L152,146.3c0.1-1.2,0.4-2.3,0.7-3.4h0C152.4,144,152.1,145.1,152,146.3"/>
	</defs>
	<clipPath id="SVGID_86_">
		<use xlink:href="#SVGID_85_"  style="overflow:visible;"/>
	</clipPath>
	
		<linearGradient id="SVGID_87_" gradientUnits="userSpaceOnUse" x1="-347.6405" y1="649.8975" x2="-347.3881" y2="649.8975" gradientTransform="matrix(188.413 0 0 -188.413 65640.3906 122593.7266)">
		<stop  offset="0" style="stop-color:#52A8C6"/>
		<stop  offset="6.577539e-02" style="stop-color:#5298C0"/>
		<stop  offset="0.169" style="stop-color:#557FB4"/>
		<stop  offset="0.2784" style="stop-color:#5769A8"/>
		<stop  offset="0.3929" style="stop-color:#59579E"/>
		<stop  offset="0.5144" style="stop-color:#5A4895"/>
		<stop  offset="0.646" style="stop-color:#5A3D90"/>
		<stop  offset="0.7953" style="stop-color:#5A378D"/>
		<stop  offset="1" style="stop-color:#5A358C"/>
	</linearGradient>
	<rect x="152" y="142.9" class="st43" width="0.7" height="3.4"/>
</g>
<g>
	<defs>
		<path id="SVGID_88_" d="M152.4,153.6c-0.2-1-0.6-3.8-0.6-4.9c0-0.8,0-1.6,0.1-2.4c0.1-1.2,0.4-2.3,0.7-3.4c1-3,2.7-5.6,4.8-7.3
			c1.2-0.9,2.4-1.6,3.8-1.9c0.7-0.2,1.5-0.3,2.3-0.3c0.8,0,1.6,0.1,2.3,0.3c1.2,0.3,2.4,0.9,3.4,1.6c0.2,0.2,0.4,0.3,0.6,0.5
			c1.9,1.6,3.5,3.9,4.4,6.6c0.7,1.9,1.1,4.1,1.1,6.3c0,0,0,0,0,0c0,0,0,0,0,0c0,0,0,0,0,0c0,0,0,0,0,0c0,0,0,0,0,0c0,0,0,0,0,0
			c0,0,0,0,0,0c0,0,0,0,0,0c0,0,0,0,0,0c0,0,0,0,0,0c0,1.5-0.2,3-0.5,4.4c-0.1-0.5,0-2.5-2.7-4c-2.2-1.2-7-1.5-10.9-2.9
			c-1.4-0.5-4.6-2.2-4.6-2.2S153.2,149.9,152.4,153.6"/>
	</defs>
	<clipPath id="SVGID_89_">
		<use xlink:href="#SVGID_88_"  style="overflow:visible;"/>
	</clipPath>
	
		<radialGradient id="SVGID_90_" cx="-346.0167" cy="648.9888" r="0.2524" gradientTransform="matrix(62.7664 0 0 -62.7664 21881.8848 40883.3906)" gradientUnits="userSpaceOnUse">
		<stop  offset="0" style="stop-color:#F7C0A7"/>
		<stop  offset="0.2057" style="stop-color:#F5B6A6"/>
		<stop  offset="0.5892" style="stop-color:#F29AA0"/>
		<stop  offset="1" style="stop-color:#EE7295"/>
	</radialGradient>
	<rect x="151.8" y="133.4" class="st44" width="23.7" height="20.2"/>
</g>
<g>
	<defs>
		<path id="SVGID_91_" d="M155.6,144.3c3.7-5.2,10.2-7.6,15.1-9.4c-2.6-2.1-6.6-2.9-9.8-2.5c-7.2,1-13.7,9.8-8.7,20.2
			C152.5,149.9,154.1,146.4,155.6,144.3"/>
	</defs>
	<clipPath id="SVGID_92_">
		<use xlink:href="#SVGID_91_"  style="overflow:visible;"/>
	</clipPath>
	
		<linearGradient id="SVGID_93_" gradientUnits="userSpaceOnUse" x1="-346.3053" y1="648.7267" x2="-346.0529" y2="648.7267" gradientTransform="matrix(84.6714 -11.2491 -11.2491 -84.6714 36764.7773 51177.0781)">
		<stop  offset="0" style="stop-color:#594A99"/>
		<stop  offset="1" style="stop-color:#6AC7E5"/>
	</linearGradient>
	<polygon class="st45" points="144.5,132.3 170.3,128.9 173.4,152.2 147.6,155.6 	"/>
</g>
<g>
	<defs>
		<path id="SVGID_94_" d="M169.3,146.2c1.5,0.2,4,1.4,5.9,3.2c1.6,1.5,2.5,4,2.5-0.1c0-10.1-6.3-18.3-14.1-18.3
			c-4.5,0-8.6,2.8-11.2,7.1C153.3,141.3,154.5,144,169.3,146.2"/>
	</defs>
	<clipPath id="SVGID_95_">
		<use xlink:href="#SVGID_94_"  style="overflow:visible;"/>
	</clipPath>
	
		<linearGradient id="SVGID_96_" gradientUnits="userSpaceOnUse" x1="-347.3167" y1="649.4156" x2="-347.0642" y2="649.4156" gradientTransform="matrix(147.509 0 0 -147.509 51375.3828 95936.8984)">
		<stop  offset="0" style="stop-color:#6AC7E5"/>
		<stop  offset="1" style="stop-color:#594A99"/>
	</linearGradient>
	<rect x="152.3" y="131.1" class="st46" width="25.3" height="22.3"/>
</g>
<g>
	<defs>
		<path id="SVGID_97_" d="M166.7,168.3c0,0.8-1.3,1.5-2.9,1.5c-1.6,0-2.9-0.7-2.9-1.5c0-0.8,1.3-1.5,2.9-1.5
			C165.4,166.8,166.7,167.5,166.7,168.3"/>
	</defs>
	<clipPath id="SVGID_98_">
		<use xlink:href="#SVGID_97_"  style="overflow:visible;"/>
	</clipPath>
	
		<linearGradient id="SVGID_99_" gradientUnits="userSpaceOnUse" x1="-342.7902" y1="649.8334" x2="-342.5378" y2="649.8334" gradientTransform="matrix(32.4683 0 0 -32.4683 11288.6289 21267.2891)">
		<stop  offset="0" style="stop-color:#F5A99D"/>
		<stop  offset="1" style="stop-color:#EE769D"/>
	</linearGradient>
	<rect x="160.9" y="166.8" class="st47" width="5.8" height="2.9"/>
</g>
<g>
	<defs>
		<path id="SVGID_100_" d="M179.5,173.5c-1.9-2.6-5.5-5.1-8.7-5.1h-14c-3.9,0-7.3,2.3-8.9,5.6c4.1,3.8,9.5,6.2,15.6,6.2
			C169.7,180.1,175.4,177.6,179.5,173.5"/>
	</defs>
	<clipPath id="SVGID_101_">
		<use xlink:href="#SVGID_100_"  style="overflow:visible;"/>
	</clipPath>
	
		<linearGradient id="SVGID_102_" gradientUnits="userSpaceOnUse" x1="-347.9836" y1="650.0516" x2="-347.7312" y2="650.0516" gradientTransform="matrix(234.255 0 0 -234.255 81663.3984 152452.0625)">
		<stop  offset="0" style="stop-color:#6AC7E5"/>
		<stop  offset="0.138" style="stop-color:#61AAD5"/>
		<stop  offset="0.2835" style="stop-color:#5D8EC5"/>
		<stop  offset="0.4302" style="stop-color:#5B76B6"/>
		<stop  offset="0.5758" style="stop-color:#5A63A9"/>
		<stop  offset="0.72" style="stop-color:#5A55A0"/>
		<stop  offset="0.8621" style="stop-color:#594C9A"/>
		<stop  offset="1" style="stop-color:#594A99"/>
	</linearGradient>
	<rect x="147.9" y="168.3" class="st48" width="31.6" height="11.8"/>
</g>
<g>
	<defs>
		<path id="SVGID_103_" d="M267.1,121.2H165.4c0.2-0.2,0.4-0.5,0.5-0.7h100.4c1.6,0,2.9-1.3,2.9-2.9V109c0-0.6-0.2-1.2-0.5-1.7
			c0.8,0.5,1.3,1.4,1.3,2.4v8.6C270,119.9,268.7,121.2,267.1,121.2"/>
	</defs>
	<clipPath id="SVGID_104_">
		<use xlink:href="#SVGID_103_"  style="overflow:visible;"/>
	</clipPath>
	
		<linearGradient id="SVGID_105_" gradientUnits="userSpaceOnUse" x1="-348.5251" y1="649.9091" x2="-348.2727" y2="649.9091" gradientTransform="matrix(586.192 0 0 -586.192 204435.5625 381085.7812)">
		<stop  offset="0" style="stop-color:#6586AA"/>
		<stop  offset="1" style="stop-color:#4979A9"/>
	</linearGradient>
	<rect x="165.4" y="107.3" class="st49" width="104.6" height="13.9"/>
</g>
<g>
	<defs>
		<path id="SVGID_106_" d="M266.3,120.5H165.9c1.3-1.9,2.1-4.3,2.1-6.8c0-2.9-1-5.6-2.8-7.7h101.1c1,0,1.9,0.5,2.4,1.3
			c0.3,0.5,0.5,1.1,0.5,1.7v8.6C269.3,119.2,267.9,120.5,266.3,120.5"/>
	</defs>
	<clipPath id="SVGID_107_">
		<use xlink:href="#SVGID_106_"  style="overflow:visible;"/>
	</clipPath>
	
		<linearGradient id="SVGID_108_" gradientUnits="userSpaceOnUse" x1="-348.5311" y1="649.6259" x2="-348.2787" y2="649.6259" gradientTransform="matrix(450.156 0 0 -450.156 157049.0156 292546.2812)">
		<stop  offset="0" style="stop-color:#214B9B"/>
		<stop  offset="1" style="stop-color:#2C2E7D"/>
	</linearGradient>
	<rect x="165.2" y="106" class="st50" width="104" height="14.5"/>
</g>
<g>
	<defs>
		<path id="SVGID_109_" d="M156,125.8c-6.7,0-12-5.4-12-12c0-6.7,5.4-12,12-12c3.7,0,7.1,1.7,9.3,4.3h-6.7c-1.6,0-2.9,1.3-2.9,2.9
			v8.6c0,1,0.5,1.9,1.3,2.4c0.5,0.8,1.4,1.3,2.4,1.3h6.1C163.2,124,159.8,125.8,156,125.8"/>
	</defs>
	<clipPath id="SVGID_110_">
		<use xlink:href="#SVGID_109_"  style="overflow:visible;"/>
	</clipPath>
	
		<linearGradient id="SVGID_111_" gradientUnits="userSpaceOnUse" x1="-348.5251" y1="649.91" x2="-348.2727" y2="649.91" gradientTransform="matrix(586.192 0 0 -586.192 204435.5625 381085.7812)">
		<stop  offset="0" style="stop-color:#6586AA"/>
		<stop  offset="1" style="stop-color:#4979A9"/>
	</linearGradient>
	<rect x="143.9" y="101.7" class="st51" width="21.5" height="24.1"/>
</g>
<g>
	<defs>
		<path id="SVGID_112_" d="M165.4,121.2h-6.1c-1,0-1.9-0.5-2.4-1.3c0.5,0.3,1.1,0.5,1.7,0.5h7.4C165.7,120.8,165.6,121,165.4,121.2"
			/>
	</defs>
	<clipPath id="SVGID_113_">
		<use xlink:href="#SVGID_112_"  style="overflow:visible;"/>
	</clipPath>
	
		<linearGradient id="SVGID_114_" gradientUnits="userSpaceOnUse" x1="-348.5251" y1="649.8983" x2="-348.2727" y2="649.8983" gradientTransform="matrix(586.192 0 0 -586.192 204435.5625 381085.7812)">
		<stop  offset="0" style="stop-color:#425583"/>
		<stop  offset="1" style="stop-color:#324D82"/>
	</linearGradient>
	<rect x="156.9" y="120" class="st52" width="9" height="1.3"/>
</g>
<g>
	<defs>
		<path id="SVGID_115_" d="M165.9,120.5h-7.4c-0.6,0-1.2-0.2-1.7-0.5c-0.8-0.5-1.3-1.4-1.3-2.4V109c0-1.6,1.3-2.9,2.9-2.9h6.7
			c1.7,2.1,2.8,4.8,2.8,7.7C168,116.2,167.2,118.6,165.9,120.5"/>
	</defs>
	<clipPath id="SVGID_116_">
		<use xlink:href="#SVGID_115_"  style="overflow:visible;"/>
	</clipPath>
	
		<linearGradient id="SVGID_117_" gradientUnits="userSpaceOnUse" x1="-348.5311" y1="649.6259" x2="-348.2787" y2="649.6259" gradientTransform="matrix(450.156 0 0 -450.156 157049.0156 292546.2812)">
		<stop  offset="0" style="stop-color:#253672"/>
		<stop  offset="1" style="stop-color:#2B2A63"/>
	</linearGradient>
	<rect x="155.6" y="106" class="st53" width="12.4" height="14.5"/>
</g>
<g>
	<defs>
		<path id="SVGID_118_" d="M143.1,113.6c0-6.5,5.3-11.9,11.9-11.9s11.9,5.3,11.9,11.9c0,6.5-5.3,11.9-11.9,11.9
			S143.1,120.1,143.1,113.6"/>
	</defs>
	<clipPath id="SVGID_119_">
		<use xlink:href="#SVGID_118_"  style="overflow:visible;"/>
	</clipPath>
	
		<radialGradient id="SVGID_120_" cx="-346.3335" cy="648.2433" r="0.2524" gradientTransform="matrix(91.0414 0 0 -91.0414 31675.6055 59133.1016)" gradientUnits="userSpaceOnUse">
		<stop  offset="0" style="stop-color:#FEF5AF"/>
		<stop  offset="0.9947" style="stop-color:#F9BA64"/>
		<stop  offset="1" style="stop-color:#F9BA64"/>
	</radialGradient>
	<rect x="143.1" y="101.7" class="st54" width="23.7" height="23.7"/>
</g>
<g>
	<defs>
		<path id="SVGID_121_" d="M263.1,134.7h-65.4c-0.9,0-1.6-1-1.6-2.2v-0.1c0-1.2,0.7-2.2,1.6-2.2h65.4c0.9,0,1.6,1,1.6,2.2v0.1
			C264.7,133.7,264,134.7,263.1,134.7"/>
	</defs>
	<clipPath id="SVGID_122_">
		<use xlink:href="#SVGID_121_"  style="overflow:visible;"/>
	</clipPath>
	
		<linearGradient id="SVGID_123_" gradientUnits="userSpaceOnUse" x1="-348.5251" y1="649.8781" x2="-348.2727" y2="649.8781" gradientTransform="matrix(586.192 0 0 -586.192 204435.5625 381085.7812)">
		<stop  offset="0" style="stop-color:#CFEAF4"/>
		<stop  offset="1" style="stop-color:#B8E0F4"/>
	</linearGradient>
	<rect x="196" y="130.2" class="st55" width="68.7" height="4.5"/>
</g>
<g>
	<defs>
		<path id="SVGID_124_" d="M232.7,144.1h-35.2c-0.5,0-0.9-0.7-0.9-1.6v-0.1c0-0.9,0.4-1.6,0.9-1.6h35.2c0.5,0,0.9,0.7,0.9,1.6v0.1
			C233.5,143.3,233.1,144.1,232.7,144.1"/>
	</defs>
	<clipPath id="SVGID_125_">
		<use xlink:href="#SVGID_124_"  style="overflow:visible;"/>
	</clipPath>
	
		<linearGradient id="SVGID_126_" gradientUnits="userSpaceOnUse" x1="-348.5251" y1="649.8611" x2="-348.2727" y2="649.8611" gradientTransform="matrix(586.192 0 0 -586.192 204435.5625 381085.7812)">
		<stop  offset="0" style="stop-color:#CFEAF4"/>
		<stop  offset="1" style="stop-color:#B8E0F4"/>
	</linearGradient>
	<rect x="196.6" y="140.7" class="st56" width="37" height="3.3"/>
</g>
<g>
	<defs>
		<path id="SVGID_127_" d="M232.7,151.6h-35.2c-0.5,0-0.9-0.7-0.9-1.6v-0.1c0-0.9,0.4-1.6,0.9-1.6h35.2c0.5,0,0.9,0.7,0.9,1.6v0.1
			C233.5,150.8,233.1,151.6,232.7,151.6"/>
	</defs>
	<clipPath id="SVGID_128_">
		<use xlink:href="#SVGID_127_"  style="overflow:visible;"/>
	</clipPath>
	
		<linearGradient id="SVGID_129_" gradientUnits="userSpaceOnUse" x1="-348.5251" y1="649.8483" x2="-348.2727" y2="649.8483" gradientTransform="matrix(586.192 0 0 -586.192 204435.5625 381085.7812)">
		<stop  offset="0" style="stop-color:#CFEAF4"/>
		<stop  offset="1" style="stop-color:#B8E0F4"/>
	</linearGradient>
	<rect x="196.6" y="148.2" class="st57" width="37" height="3.3"/>
</g>
<g>
	<defs>
		<path id="SVGID_130_" d="M232.7,159.1h-35.2c-0.5,0-0.9-0.7-0.9-1.6v-0.1c0-0.9,0.4-1.6,0.9-1.6h35.2c0.5,0,0.9,0.7,0.9,1.6v0.1
			C233.5,158.3,233.1,159.1,232.7,159.1"/>
	</defs>
	<clipPath id="SVGID_131_">
		<use xlink:href="#SVGID_130_"  style="overflow:visible;"/>
	</clipPath>
	
		<linearGradient id="SVGID_132_" gradientUnits="userSpaceOnUse" x1="-348.5251" y1="649.8356" x2="-348.2727" y2="649.8356" gradientTransform="matrix(586.192 0 0 -586.192 204435.5625 381085.7812)">
		<stop  offset="0" style="stop-color:#CFEAF4"/>
		<stop  offset="1" style="stop-color:#B8E0F4"/>
	</linearGradient>
	<rect x="196.6" y="155.7" class="st58" width="37" height="3.3"/>
</g>
<polyline class="st59" points="155,104.9 157.1,111.3 163.8,111.3 158.4,115.3 160.4,121.7 155,117.7 149.5,121.7 151.6,115.3 
	146.1,111.3 152.9,111.3 155,104.9 "/>
<g>
	<defs>
		<path id="SVGID_133_" d="M221.2,166.7c-1.4,1.5-2.5,3.3-3,5.3C219.6,170.4,221,168.7,221.2,166.7 M201.9,169.6
			c-0.1,0.2-0.1,0.5-0.2,0.7c-0.2,0.7-0.4,1.5-0.7,2.2c-0.1,0.2-0.2,0.5-0.3,0.7c0.1,0.1,0.2,0.1,0.3,0.2c0.4,0,0.7-0.1,1.1-0.2
			c0-0.2,0-0.3,0-0.5C202,171.7,201.9,170.7,201.9,169.6 M198.2,173.2c-0.5,0-1,0-1.4,0.1c0.1,0.1,0.4,0.3,0.7,0.3c0,0,0,0,0,0
			c0.7,0,1.5-0.1,2.2-0.1l0,0C199.4,173.3,198.8,173.2,198.2,173.2 M202.1,173.8c-0.2,0-0.4,0.1-0.5,0.1c0.2,0.2,0.3,0.4,0.4,0.7
			c0.1,0.4,0.2,0.8,0.2,1.2c0,0,0,0.1,0,0.1C202.2,175.1,202.1,174.5,202.1,173.8 M203.8,178.9l0.5-1.8c0.2-0.7,0.5-1.3,0.9-1.9
			c0.3-0.7,0.4-1.4,0.5-2.1c-1,0.3-2,0.5-3,0.7c0.1,1.2,0.1,2.4,0.2,3.7l0,0.6l-0.5-0.4c-0.6-0.5-0.7-1.2-0.8-1.9
			c0-0.4-0.1-0.7-0.2-1c-0.1-0.3-0.3-0.6-0.6-0.8c-0.2,0-0.5,0.1-0.7,0.1c-1.4,1.8-3.8,3-6.1,3c-0.7,0-1.3-0.1-2-0.3
			c-0.4-0.1-1-0.3-1.3-0.9c-0.3-0.5-0.2-1.3,0.3-1.8c0.4-0.4,1-0.6,1.6-0.7l0,0.6c-0.3,0-0.9,0.1-1.2,0.5c-0.3,0.3-0.4,0.8-0.2,1.1
			c0.2,0.3,0.6,0.5,0.9,0.6c0.6,0.2,1.2,0.3,1.8,0.3c2,0,4-0.9,5.3-2.3c-0.6,0-1.1,0.1-1.7,0.1c-0.5,0-1.1-0.2-1.3-0.6
			c-0.1-0.2-0.1-0.4,0-0.7l0.1-0.1l0.1,0c0.6-0.1,1.2-0.1,1.7-0.1c0.8,0,1.4,0.1,2,0.3c0.1-0.2,0.2-0.4,0.3-0.7
			c0.3-0.7,0.5-1.4,0.6-2.1c0.2-0.8,0.4-1.5,0.7-2.3l0.5-1.2l0,1.3c0.1,1.6,0.1,3.2,0.2,4.7c0,0.1,0,0.3,0,0.4
			c1.1-0.2,2.2-0.5,3.3-0.8l0.4-0.1l0,0.4c0,0.5-0.1,1-0.3,1.6c0.5-0.5,1.2-0.8,1.8-1l0.4-0.1l0.1,1.9c0.6-0.9,1.3-1.7,2.1-2.5
			l0.4-0.4l0.1,0.5c0.1,0.5,0.1,1.1,0.1,1.6c0.5-0.5,1-1,1.6-1.3l0.4-0.2l0.1,2.5c0.8-0.7,1.5-1.4,2.2-2.2l0.3-0.3l0.2,0.4
			c0.1,0.1,0.2,0.2,0.3,0.2c0,0,0.1,0,0.1,0c0.3,0,0.8-0.2,1.1-0.5c0.5-2.6,1.9-5.1,3.9-6.9l0.4-0.4l0,0.6c0.2,2.7-1.8,4.9-3.6,6.9
			c-0.1,0.1-0.1,0.1-0.2,0.2c-0.2,0.9-0.2,1.8-0.2,2.7c0.3,1,0.8,1.6,1.6,1.8c0.2,0,0.3,0.1,0.5,0.1c1.1,0,2.6-0.7,3.7-2
			c1-1.1,1.4-2.2,1.3-3c-0.1,0-0.2,0-0.4,0c-0.9,0.5-1.8,0.9-2.7,1.2l-1,0.4l0.7-0.8c0.7-0.8,1.8-1.3,2.8-1.3c0,0,0,0,0,0
			c1.3-0.7,2.6-1.6,3.7-2.6l0.3-0.3l0.6,1.3c1.1-0.2,2.2-0.7,3.1-1.4l0.3-0.2l0.2,0.3c0.2,0.4,0.6,0.6,1,0.6c0,0,0,0,0.1,0l0,0.6
			c0,0-0.1,0-0.1,0c-0.5,0-1-0.3-1.4-0.7c-1,0.7-2.1,1.2-3.3,1.4l-0.2,0l-0.4-1c-0.9,0.8-1.9,1.4-2.9,2l0,0l0.1,0.2
			c0.4,1.1-0.2,2.5-1.3,3.8c-1,1.1-2.6,2.2-4.1,2.2c-0.2,0-0.4,0-0.7-0.1c-0.7-0.2-1.6-0.7-2-2.3l0-0.1c0-0.8,0-1.5,0.1-2.3
			c-0.3,0.2-0.7,0.3-1,0.3c-0.1,0-0.1,0-0.2,0c-0.2,0-0.4-0.1-0.5-0.2c-0.8,0.9-1.6,1.6-2.5,2.3l-0.5,0.3l-0.1-2.6
			c-0.7,0.5-1.3,1.1-1.8,1.9c-0.1,0.4-0.3,0.8-0.5,1.2l-1.3,2.2l0.7-2.4c0.1-0.4,0.3-0.8,0.5-1.2c0.2-0.7,0.3-1.3,0.2-2
			c-0.8,0.8-1.5,1.8-2,2.7l-0.5,0.8l-0.2-2.9c-0.8,0.3-1.5,0.9-2.1,1.6c-0.2,0.6-0.6,1.3-0.9,1.9L203.8,178.9"/>
	</defs>
	<clipPath id="SVGID_134_">
		<use xlink:href="#SVGID_133_"  style="overflow:visible;"/>
	</clipPath>
	
		<linearGradient id="SVGID_135_" gradientUnits="userSpaceOnUse" x1="-348.5251" y1="649.8104" x2="-348.2727" y2="649.8104" gradientTransform="matrix(586.192 0 0 -586.192 204435.5625 381085.7812)">
		<stop  offset="0" style="stop-color:#E9F6FA"/>
		<stop  offset="1" style="stop-color:#E1F2FA"/>
	</linearGradient>
	<rect x="190.5" y="165.4" class="st60" width="43" height="13.5"/>
</g>
<g>
	<defs>
		<path id="SVGID_136_" d="M260.4,175.2c-2.7,0-4.9-2.2-4.9-4.9c0-2.7,2.2-4.9,4.9-4.9c2.7,0,4.9,2.2,4.9,4.9
			C265.3,173,263.1,175.2,260.4,175.2"/>
	</defs>
	<clipPath id="SVGID_137_">
		<use xlink:href="#SVGID_136_"  style="overflow:visible;"/>
	</clipPath>
	
		<linearGradient id="SVGID_138_" gradientUnits="userSpaceOnUse" x1="-348.5251" y1="649.8135" x2="-348.2727" y2="649.8135" gradientTransform="matrix(586.192 0 0 -586.192 204435.5625 381085.7812)">
		<stop  offset="0" style="stop-color:#CFEAF4"/>
		<stop  offset="1" style="stop-color:#B9E1F4"/>
	</linearGradient>
	<rect x="255.4" y="165.3" class="st61" width="9.9" height="9.9"/>
</g>
<g>
	<defs>
		<path id="SVGID_139_" d="M260.4,162.7c-4.2,0-7.6,3.4-7.6,7.6c0,4.2,3.4,7.6,7.6,7.6s7.6-3.4,7.6-7.6
			C268,166.1,264.6,162.7,260.4,162.7 M260.4,179.1c-4.8,0-8.8-3.9-8.8-8.8c0-4.8,3.9-8.8,8.8-8.8c4.8,0,8.8,3.9,8.8,8.8
			C269.2,175.1,265.2,179.1,260.4,179.1"/>
	</defs>
	<clipPath id="SVGID_140_">
		<use xlink:href="#SVGID_139_"  style="overflow:visible;"/>
	</clipPath>
	
		<linearGradient id="SVGID_141_" gradientUnits="userSpaceOnUse" x1="-348.5251" y1="649.8135" x2="-348.2727" y2="649.8135" gradientTransform="matrix(586.192 0 0 -586.192 204435.5625 381085.7812)">
		<stop  offset="0" style="stop-color:#CFEAF4"/>
		<stop  offset="1" style="stop-color:#B9E1F4"/>
	</linearGradient>
	<rect x="251.6" y="161.5" class="st62" width="17.6" height="17.6"/>
</g>
<polygon class="st63" points="117.6,80.4 117.6,216.6 281.8,179.4 281.8,119.7 "/>
<g>
	<defs>
		<path id="SVGID_142_" d="M78,168.8c-0.3,0-0.5,0-0.8,0c14.8-0.4,26.8-12.6,26.8-27.5c0-9.2-4.5-17.4-11.5-22.4
			c-0.3-0.5-0.6-1.1-0.9-1.6c8.3,4.7,14,13.7,14,24C105.5,156.5,93.2,168.8,78,168.8"/>
	</defs>
	<clipPath id="SVGID_143_">
		<use xlink:href="#SVGID_142_"  style="overflow:visible;"/>
	</clipPath>
	
		<linearGradient id="SVGID_144_" gradientUnits="userSpaceOnUse" x1="-348.6848" y1="649.8599" x2="-348.3779" y2="649.8599" gradientTransform="matrix(586.192 0 0 -586.192 204435.5625 381085.7812)">
		<stop  offset="0" style="stop-color:#7299BA"/>
		<stop  offset="1" style="stop-color:#528AB8"/>
	</linearGradient>
	<rect x="77.2" y="117.3" class="st64" width="28.3" height="51.5"/>
</g>
<g>
	<defs>
		<path id="SVGID_145_" d="M58.8,162.4c-6-5-9.8-12.6-9.8-21.1c0-11.6,7.1-21.5,17.3-25.5c-0.5,0.7-1,1.4-1.4,2.1c0,0,0,0.1,0,0.1
			c-1.1,1.9-1.9,4.1-2.2,6.5c-0.1,0.1-0.2,0.2-0.3,0.4c-1.3,1.9-1.3,3.5-1,6.4c-1.2,0.5-2,1.9-1.8,3.5c0.2,1.4,1.2,2.4,2.3,2.7
			c0.1,2.5,0.2,5.6,0,9.5c-0.3,6.1-1,8.6-0.7,10.5C59.9,158.8,59.1,160.4,58.8,162.4 M76.5,168.8c-6.5,0-12.5-2.3-17.2-6l4.8-0.3
			c3.2,2.8,8.3,4.4,13.2,4.4c4.1,0,8.1-1.1,10.7-3.6c0.6-0.6,4.3,0.1,5.4-2.4l2.5-0.1l1-1.1c-0.5-0.5-1.7-1.8-3.3-3.1
			c-0.1-6.4,0-13.3-0.1-19c1.1-0.3,1.9-1.4,2.1-2.7c0.1-0.7,0-1.3-0.2-1.9c0-0.4,0.1-0.9,0.1-1.5c0-4.7-1.1-9-3-12.6
			c7,5,11.5,13.2,11.5,22.4c0,14.9-11.9,27.1-26.8,27.5C77,168.8,76.7,168.8,76.5,168.8"/>
	</defs>
	<clipPath id="SVGID_146_">
		<use xlink:href="#SVGID_145_"  style="overflow:visible;"/>
	</clipPath>
	
		<linearGradient id="SVGID_147_" gradientUnits="userSpaceOnUse" x1="-348.0911" y1="649.8751" x2="-347.7842" y2="649.8751" gradientTransform="matrix(179.419 0 0 -179.419 62503.0898 116742.2344)">
		<stop  offset="0" style="stop-color:#214B9B"/>
		<stop  offset="1" style="stop-color:#2C2E7D"/>
	</linearGradient>
	<rect x="48.9" y="115.8" class="st65" width="55.1" height="53.1"/>
</g>
<g>
	<defs>
		<path id="SVGID_148_" d="M61.3,131.3c-0.3-2.9-0.3-4.5,1-6.4c0.1-0.1,0.2-0.2,0.3-0.4c-0.1,1-0.1,2.1-0.1,3.2
			c-0.1,1-0.2,1.9-0.2,2.9c0,0.2,0,0.3,0,0.5c0,0-0.1,0-0.1,0c-0.1,0-0.3,0-0.4,0C61.6,131.2,61.5,131.2,61.3,131.3 M93.6,156.6
			c-0.6-0.5-1.2-0.9-1.9-1.4c-1.8-1.2-3.9-1.8-6.1-1.8l-3.6,0v-4.7c4.5-1.5,8.1-5.7,9.7-11.2c0.2,0.1,0.3,0.1,0.5,0.1
			c0.1,0,0.3,0,0.4,0c0.3,0,0.5,0,0.8-0.1C93.7,143.3,93.5,150.2,93.6,156.6 M61.1,157.6c-0.2-1.9,0.4-4.4,0.7-10.5
			c0.2-3.9,0.2-7,0-9.5c0.2,0,0.4,0.1,0.6,0.1c0.1,0,0.3,0,0.4,0c0.2,0,0.3-0.1,0.5-0.1c1.7,5.6,5.5,9.9,10.1,11.4v5.8h-3.3
			C66.3,154.5,63.2,155.5,61.1,157.6 M77.3,166.9c-4.9,0-10-1.6-13.2-4.4l29.3-1.6c-1.1,2.5-4.8,1.8-5.4,2.4
			C85.4,165.8,81.4,166.9,77.3,166.9"/>
	</defs>
	<clipPath id="SVGID_149_">
		<use xlink:href="#SVGID_148_"  style="overflow:visible;"/>
	</clipPath>
	
		<linearGradient id="SVGID_150_" gradientUnits="userSpaceOnUse" x1="-348.1286" y1="649.8914" x2="-347.8217" y2="649.8914" gradientTransform="matrix(188.413 0 0 -188.413 65640.3906 122593.7266)">
		<stop  offset="0" style="stop-color:#6AC7E5"/>
		<stop  offset="1.410669e-02" style="stop-color:#67C2E2"/>
		<stop  offset="0.1088" style="stop-color:#59A5D3"/>
		<stop  offset="0.209" style="stop-color:#5089C3"/>
		<stop  offset="0.3131" style="stop-color:#4B72B4"/>
		<stop  offset="0.4221" style="stop-color:#495FA7"/>
		<stop  offset="0.5378" style="stop-color:#48519D"/>
		<stop  offset="0.6631" style="stop-color:#474696"/>
		<stop  offset="0.8051" style="stop-color:#464093"/>
		<stop  offset="1" style="stop-color:#463E91"/>
	</linearGradient>
	<rect x="60.9" y="124.5" class="st66" width="32.8" height="42.4"/>
</g>
<g>
	<defs>
		<path id="SVGID_151_" d="M91.6,117.3c-2.4-1.4-5.1-2.4-7.9-3c-1.3-0.9-2.7-1.6-4.2-2c-0.9-0.2-1.8-0.3-2.8-0.3
			c-1,0-1.9,0.1-2.8,0.3c-1.7,0.4-3.2,1.2-4.6,2.3c-1.1,0.3-2.1,0.6-3.1,1c3.1-4,7.4-6.5,12.1-6.5C83.7,109.3,88.4,112.4,91.6,117.3
			 M58.7,162.8c0-0.2,0-0.3,0.1-0.5c0.2,0.1,0.3,0.3,0.5,0.4L58.7,162.8"/>
	</defs>
	<clipPath id="SVGID_152_">
		<use xlink:href="#SVGID_151_"  style="overflow:visible;"/>
	</clipPath>
	
		<linearGradient id="SVGID_153_" gradientUnits="userSpaceOnUse" x1="-348.6848" y1="649.8719" x2="-348.3779" y2="649.8719" gradientTransform="matrix(586.192 0 0 -586.192 204435.5625 381085.7812)">
		<stop  offset="0" style="stop-color:#80AECA"/>
		<stop  offset="1" style="stop-color:#5D9CC9"/>
	</linearGradient>
	<rect x="58.7" y="109.3" class="st67" width="32.9" height="53.6"/>
</g>
<g>
	<defs>
		<path id="SVGID_154_" d="M92.5,118.9c-2.4-1.7-5.1-3.1-8.1-4c-0.3-0.2-0.5-0.4-0.8-0.6c2.8,0.6,5.5,1.6,7.9,3
			C91.9,117.9,92.2,118.4,92.5,118.9"/>
	</defs>
	<clipPath id="SVGID_155_">
		<use xlink:href="#SVGID_154_"  style="overflow:visible;"/>
	</clipPath>
	
		<linearGradient id="SVGID_156_" gradientUnits="userSpaceOnUse" x1="-348.6848" y1="649.905" x2="-348.3779" y2="649.905" gradientTransform="matrix(586.192 0 0 -586.192 204435.5625 381085.7812)">
		<stop  offset="0" style="stop-color:#5F7DA3"/>
		<stop  offset="1" style="stop-color:#4571A3"/>
	</linearGradient>
	<rect x="83.7" y="114.4" class="st68" width="8.8" height="4.6"/>
</g>
<g>
	<defs>
		<path id="SVGID_157_" d="M62.6,124.5c0.3-2.4,1.1-4.6,2.2-6.5c0,0,0-0.1,0-0.1c0.4-0.7,0.9-1.4,1.4-2.1c1-0.4,2-0.8,3.1-1
			c-2.6,2.1-4.7,5.2-5.9,8.9C63.1,123.9,62.8,124.2,62.6,124.5 M93.5,137.6c0-0.5,0-1,0-1.5c0.2-0.4,0.3-0.8,0.4-1.2
			c0.2-1-0.1-1.9-0.6-2.6c-0.3-3.7-0.9-6.6-2-7.9c-0.4-0.5-0.9-1-1.5-1.5c-1.2-3.3-3-6.1-5.4-8c2.9,0.9,5.6,2.2,8.1,4
			c1.9,3.6,3,7.9,3,12.6c0,0.6,0,1.1-0.1,1.5c0.2,0.6,0.3,1.2,0.2,1.9C95.5,136.2,94.6,137.2,93.5,137.6 M93.4,160.9
			c0.2-0.5,0.4-1.2,0.3-2c0-0.8,0-1.5-0.1-2.3c1.6,1.3,2.8,2.6,3.3,3.1l-1,1.1L93.4,160.9 M59.3,162.8c-0.2-0.1-0.3-0.3-0.5-0.4
			c0.3-2,1.2-3.6,2.3-4.8c0.1,0.8,0.3,1.4,0.7,2.2c0.6,1,1.3,1.9,2.3,2.8L59.3,162.8"/>
	</defs>
	<clipPath id="SVGID_158_">
		<use xlink:href="#SVGID_157_"  style="overflow:visible;"/>
	</clipPath>
	
		<linearGradient id="SVGID_159_" gradientUnits="userSpaceOnUse" x1="-348.0911" y1="649.8948" x2="-347.7842" y2="649.8948" gradientTransform="matrix(179.419 0 0 -179.419 62503.0898 116742.2344)">
		<stop  offset="0" style="stop-color:#1C3F8B"/>
		<stop  offset="1" style="stop-color:#2D2C70"/>
	</linearGradient>
	<rect x="58.8" y="114.7" class="st69" width="38.2" height="48.1"/>
</g>
<g>
	<defs>
		<path id="SVGID_160_" d="M62.5,127.7c-0.1-1.1,0-2.2,0.1-3.2c0.3-0.3,0.5-0.6,0.8-0.9C63,124.9,62.7,126.3,62.5,127.7 M93.3,132.3
			c-0.4-0.5-1-0.9-1.7-1c-0.1,0-0.3,0-0.4,0c0,0-0.1,0-0.1,0c0-0.1,0-0.3,0-0.4c0,0,0,0,0,0c0,0,0,0,0,0c0,0,0,0,0,0c0,0,0,0,0,0
			c0,0,0,0,0,0c0,0,0,0,0,0c0,0,0,0,0,0c0,0,0,0,0,0c0,0,0,0,0,0c0,0,0,0,0,0c0-2.8-0.5-5.4-1.3-7.7c0.5,0.4,1,0.9,1.5,1.5
			C92.4,125.7,93,128.6,93.3,132.3 M64.1,162.5c-0.9-0.8-1.7-1.7-2.3-2.8c-0.4-0.8-0.6-1.4-0.7-2.2c2.1-2.1,5.2-3.1,9-3.1h10.3v-5.9
			c4.5-1.5,8.1-5.7,9.7-11.2c0.2,0.1,0.3,0.1,0.5,0.1c0.1,0,0.3,0,0.4,0c1,0,2-0.6,2.5-1.6c0,0.5,0,1,0,1.5
			c-0.2,0.1-0.5,0.1-0.8,0.1c-0.1,0-0.3,0-0.4,0c-0.2,0-0.3-0.1-0.5-0.1c-1.7,5.5-5.3,9.7-9.7,11.2v4.7l3.6,0c2.2,0,4.3,0.6,6.1,1.8
			c0.7,0.4,1.3,0.9,1.9,1.4c0,0.8,0,1.6,0.1,2.3c0,0.8-0.1,1.5-0.3,2L64.1,162.5"/>
	</defs>
	<clipPath id="SVGID_161_">
		<use xlink:href="#SVGID_160_"  style="overflow:visible;"/>
	</clipPath>
	
		<linearGradient id="SVGID_162_" gradientUnits="userSpaceOnUse" x1="-348.1286" y1="649.9073" x2="-347.8217" y2="649.9073" gradientTransform="matrix(188.413 0 0 -188.413 65640.3906 122593.7266)">
		<stop  offset="0" style="stop-color:#30B9DA"/>
		<stop  offset="2.942127e-02" style="stop-color:#2EB0D5"/>
		<stop  offset="0.1226" style="stop-color:#2E96C8"/>
		<stop  offset="0.2213" style="stop-color:#337DB9"/>
		<stop  offset="0.3238" style="stop-color:#3867AB"/>
		<stop  offset="0.4311" style="stop-color:#3C55A0"/>
		<stop  offset="0.5449" style="stop-color:#3E4797"/>
		<stop  offset="0.6683" style="stop-color:#3F3D91"/>
		<stop  offset="0.8082" style="stop-color:#40388D"/>
		<stop  offset="1" style="stop-color:#40368C"/>
	</linearGradient>
	<rect x="61.1" y="123" class="st70" width="32.6" height="39.6"/>
</g>
<g>
	<defs>
		<path id="SVGID_163_" d="M80.4,154.5h-7v-5.8v0.8c0.2,0.1,0.5,0.2,0.8,0.3c0.3,0.1,1.2,0.4,2.6,0.4c0.3,0,0.6,0,1,0
			c1-0.1,1.9-0.4,2.7-0.7v-0.8V154.5"/>
	</defs>
	<clipPath id="SVGID_164_">
		<use xlink:href="#SVGID_163_"  style="overflow:visible;"/>
	</clipPath>
	
		<linearGradient id="SVGID_165_" gradientUnits="userSpaceOnUse" x1="-344.2726" y1="649.8966" x2="-343.9657" y2="649.8966" gradientTransform="matrix(22.8166 0 0 -22.8166 7928.5039 14980.04)">
		<stop  offset="0" style="stop-color:#F5A99D"/>
		<stop  offset="1" style="stop-color:#EE769D"/>
	</linearGradient>
	<rect x="73.4" y="148.7" class="st71" width="7" height="5.9"/>
</g>
<g>
	<defs>
		<path id="SVGID_166_" d="M76.7,150.2c-1.3,0-2.3-0.3-2.6-0.4c-0.3-0.1-0.5-0.2-0.8-0.3v-0.8c1.1,0.3,2.2,0.5,3.3,0.5
			c1.3,0,2.5-0.2,3.7-0.6v0.8c-0.8,0.3-1.6,0.6-2.7,0.7C77.4,150.2,77,150.2,76.7,150.2"/>
	</defs>
	<clipPath id="SVGID_167_">
		<use xlink:href="#SVGID_166_"  style="overflow:visible;"/>
	</clipPath>
	
		<linearGradient id="SVGID_168_" gradientUnits="userSpaceOnUse" x1="-344.2726" y1="649.9921" x2="-343.9657" y2="649.9921" gradientTransform="matrix(22.8166 0 0 -22.8166 7928.5039 14980.04)">
		<stop  offset="0" style="stop-color:#F08F8B"/>
		<stop  offset="1" style="stop-color:#ED6C8C"/>
	</linearGradient>
	<rect x="73.4" y="148.7" class="st72" width="7" height="1.5"/>
</g>
<g>
	<defs>
		<path id="SVGID_169_" d="M62.4,137.6c-0.2,0-0.4,0-0.6-0.1c-1.1-0.3-2.1-1.3-2.3-2.7c-0.2-1.6,0.5-3,1.8-3.5
			c0.2-0.1,0.3-0.1,0.5-0.1c0.1,0,0.3,0,0.4,0c0,0,0.1,0,0.1,0c0,2.2,0.4,4.3,1,6.3c-0.2,0.1-0.3,0.1-0.5,0.1
			C62.7,137.6,62.6,137.6,62.4,137.6"/>
	</defs>
	<clipPath id="SVGID_170_">
		<use xlink:href="#SVGID_169_"  style="overflow:visible;"/>
	</clipPath>
	
		<radialGradient id="SVGID_171_" cx="-335.3109" cy="644.5793" r="0.3069" gradientTransform="matrix(9.0657 -1.405 -1.6113 -10.3961 4140.7573 6364.3472)" gradientUnits="userSpaceOnUse">
		<stop  offset="0" style="stop-color:#EE759C"/>
		<stop  offset="0.1076" style="stop-color:#EF84A2"/>
		<stop  offset="0.5242" style="stop-color:#F6B4B0"/>
		<stop  offset="0.8339" style="stop-color:#FBCEB4"/>
		<stop  offset="1" style="stop-color:#FCD7B4"/>
	</radialGradient>
	<polygon class="st73" points="58.3,131.3 63.2,130.5 64.3,137.4 59.4,138.2 	"/>
</g>
<g>
	<defs>
		<path id="SVGID_172_" d="M91,137.7c-0.1,0-0.3,0-0.4,0c-0.2,0-0.3-0.1-0.5-0.1c0.6-2,0.9-4.1,1-6.3c0,0,0.1,0,0.1,0
			c0.1,0,0.3,0,0.4,0c0.7,0.1,1.3,0.5,1.7,1c0.5,0.7,0.8,1.6,0.6,2.6c-0.1,0.4-0.2,0.8-0.4,1.2C92.9,137,92,137.7,91,137.7"/>
	</defs>
	<clipPath id="SVGID_173_">
		<use xlink:href="#SVGID_172_"  style="overflow:visible;"/>
	</clipPath>
	
		<radialGradient id="SVGID_174_" cx="-356.9243" cy="647.5241" r="0.3069" gradientTransform="matrix(-9.0657 -1.4051 1.6113 -10.3962 -4188.0361 6364.7324)" gradientUnits="userSpaceOnUse">
		<stop  offset="0" style="stop-color:#EE759C"/>
		<stop  offset="0.1076" style="stop-color:#EF84A2"/>
		<stop  offset="0.5242" style="stop-color:#F6B4B0"/>
		<stop  offset="0.8339" style="stop-color:#FBCEB4"/>
		<stop  offset="1" style="stop-color:#FCD7B4"/>
	</radialGradient>
	<polygon class="st74" points="95,131.4 90.2,130.6 89.1,137.5 93.9,138.3 	"/>
</g>
<g>
	<defs>
		<path id="SVGID_175_" d="M91.1,130.7C91.1,130.7,91.1,130.7,91.1,130.7 M91.1,130.7C91.1,130.7,91.1,130.7,91.1,130.7
			C91.1,130.7,91.1,130.7,91.1,130.7 M91.1,130.7C91.1,130.7,91.1,130.7,91.1,130.7C91.1,130.7,91.1,130.7,91.1,130.7 M91.1,130.8
			C91.1,130.8,91.1,130.8,91.1,130.8C91.1,130.8,91.1,130.8,91.1,130.8 M91.1,130.8C91.1,130.8,91.1,130.8,91.1,130.8
			C91.1,130.8,91.1,130.8,91.1,130.8 M76.7,149.3c-1.2,0-2.3-0.2-3.3-0.5c-4.6-1.4-8.4-5.7-10.1-11.4c-0.6-2-0.9-4.1-1-6.3
			c0-0.2,0-0.3,0-0.5c0,1.4,0.5,4.7,0.8,5.9c1-4.5,5.2-11.6,5.2-11.6s3.8,2.1,5.6,2.7c4.7,1.7,10.7,2.1,13.3,3.6
			c3.4,1.9,3.2,4.2,3.3,4.9c0.4-1.7,0.6-3.5,0.6-5.3c0,0.1,0,0.3,0,0.4c-0.1,2.2-0.4,4.3-1,6.3c-1.7,5.5-5.3,9.7-9.7,11.2
			C79.2,149.1,78,149.3,76.7,149.3"/>
	</defs>
	<clipPath id="SVGID_176_">
		<use xlink:href="#SVGID_175_"  style="overflow:visible;"/>
	</clipPath>
	
		<radialGradient id="SVGID_177_" cx="-347.4019" cy="649.2761" r="0.3069" gradientTransform="matrix(62.7664 0 0 -62.7664 21881.8848 40883.3906)" gradientUnits="userSpaceOnUse">
		<stop  offset="0" style="stop-color:#FCD7B4"/>
		<stop  offset="0.1661" style="stop-color:#FBCEB4"/>
		<stop  offset="0.4758" style="stop-color:#F6B4B0"/>
		<stop  offset="0.8924" style="stop-color:#EF84A2"/>
		<stop  offset="1" style="stop-color:#EE759C"/>
	</radialGradient>
	<rect x="62.3" y="125" class="st75" width="28.8" height="24.3"/>
</g>
<g>
	<defs>
		<path id="SVGID_178_" d="M91.1,130.7C91.1,130.7,91.1,130.7,91.1,130.7C91.1,130.7,91.1,130.7,91.1,130.7 M91.1,130.7
			C91.1,130.7,91.1,130.7,91.1,130.7C91.1,130.7,91.1,130.7,91.1,130.7 M91.1,130.8C91.1,130.7,91.1,130.7,91.1,130.8
			C91.1,130.7,91.1,130.7,91.1,130.8 M91.1,130.8C91.1,130.8,91.1,130.8,91.1,130.8C91.1,130.8,91.1,130.8,91.1,130.8 M91.1,130.8
			C91.1,130.8,91.1,130.8,91.1,130.8C91.1,130.8,91.1,130.8,91.1,130.8"/>
	</defs>
	<clipPath id="SVGID_179_">
		<use xlink:href="#SVGID_178_"  style="overflow:visible;"/>
	</clipPath>
	
		<linearGradient id="SVGID_180_" gradientUnits="userSpaceOnUse" x1="-347.9084" y1="649.971" x2="-347.8957" y2="649.971" gradientTransform="matrix(188.413 0 0 -188.413 65640.3906 122593.7266)">
		<stop  offset="0" style="stop-color:#52A8C6"/>
		<stop  offset="6.577539e-02" style="stop-color:#5298C0"/>
		<stop  offset="0.169" style="stop-color:#557FB4"/>
		<stop  offset="0.2784" style="stop-color:#5769A8"/>
		<stop  offset="0.3929" style="stop-color:#59579E"/>
		<stop  offset="0.5144" style="stop-color:#5A4895"/>
		<stop  offset="0.646" style="stop-color:#5A3D90"/>
		<stop  offset="0.7953" style="stop-color:#5A378D"/>
		<stop  offset="1" style="stop-color:#5A358C"/>
	</linearGradient>
	<rect x="91.1" y="130.7" class="st76" width="0" height="0.1"/>
</g>
<g>
	<defs>
		<path id="SVGID_181_" d="M83.7,114.4L83.7,114.4c-1.3-0.9-2.7-1.6-4.2-2C81,112.8,82.4,113.4,83.7,114.4"/>
	</defs>
	<clipPath id="SVGID_182_">
		<use xlink:href="#SVGID_181_"  style="overflow:visible;"/>
	</clipPath>
	
		<linearGradient id="SVGID_183_" gradientUnits="userSpaceOnUse" x1="-348.6848" y1="649.9106" x2="-348.3779" y2="649.9106" gradientTransform="matrix(586.192 0 0 -586.192 204435.5625 381085.7812)">
		<stop  offset="0" style="stop-color:#94A1BA"/>
		<stop  offset="1" style="stop-color:#7791B8"/>
	</linearGradient>
	<rect x="79.5" y="112.4" class="st77" width="4.2" height="2"/>
</g>
<g>
	<defs>
		<path id="SVGID_184_" d="M84.4,114.9L84.4,114.9c-0.3-0.2-0.5-0.4-0.8-0.6C83.9,114.5,84.2,114.7,84.4,114.9"/>
	</defs>
	<clipPath id="SVGID_185_">
		<use xlink:href="#SVGID_184_"  style="overflow:visible;"/>
	</clipPath>
	
		<linearGradient id="SVGID_186_" gradientUnits="userSpaceOnUse" x1="-348.6848" y1="649.9084" x2="-348.3779" y2="649.9084" gradientTransform="matrix(586.192 0 0 -586.192 204435.5625 381085.7812)">
		<stop  offset="0" style="stop-color:#77799A"/>
		<stop  offset="1" style="stop-color:#646F99"/>
	</linearGradient>
	<rect x="83.7" y="114.4" class="st78" width="0.8" height="0.6"/>
</g>
<g>
	<defs>
		<path id="SVGID_187_" d="M89.8,123L89.8,123c-1.2-3.3-3-6.1-5.4-8C86.8,116.9,88.7,119.7,89.8,123"/>
	</defs>
	<clipPath id="SVGID_188_">
		<use xlink:href="#SVGID_187_"  style="overflow:visible;"/>
	</clipPath>
	
		<linearGradient id="SVGID_189_" gradientUnits="userSpaceOnUse" x1="-348.0911" y1="650.0052" x2="-347.7842" y2="650.0052" gradientTransform="matrix(179.419 0 0 -179.419 62503.0898 116742.2344)">
		<stop  offset="0" style="stop-color:#424689"/>
		<stop  offset="1" style="stop-color:#4B2E77"/>
	</linearGradient>
	<rect x="84.4" y="114.9" class="st79" width="5.4" height="8"/>
</g>
<g>
	<defs>
		<path id="SVGID_190_" d="M91.1,130.7c0-2.8-0.5-5.4-1.3-7.7C90.7,125.3,91.1,127.9,91.1,130.7"/>
	</defs>
	<clipPath id="SVGID_191_">
		<use xlink:href="#SVGID_190_"  style="overflow:visible;"/>
	</clipPath>
	
		<linearGradient id="SVGID_192_" gradientUnits="userSpaceOnUse" x1="-348.1286" y1="649.9919" x2="-347.8217" y2="649.9919" gradientTransform="matrix(188.413 0 0 -188.413 65640.3906 122593.7266)">
		<stop  offset="0" style="stop-color:#52A8C6"/>
		<stop  offset="6.577539e-02" style="stop-color:#5298C0"/>
		<stop  offset="0.169" style="stop-color:#557FB4"/>
		<stop  offset="0.2784" style="stop-color:#5769A8"/>
		<stop  offset="0.3929" style="stop-color:#59579E"/>
		<stop  offset="0.5144" style="stop-color:#5A4895"/>
		<stop  offset="0.646" style="stop-color:#5A3D90"/>
		<stop  offset="0.7953" style="stop-color:#5A378D"/>
		<stop  offset="1" style="stop-color:#5A358C"/>
	</linearGradient>
	<rect x="89.8" y="123" class="st80" width="1.3" height="7.7"/>
</g>
<g>
	<defs>
		<path id="SVGID_193_" d="M62.3,130.7L62.3,130.7c0-1,0.1-2,0.2-2.9C62.4,128.7,62.3,129.7,62.3,130.7"/>
	</defs>
	<clipPath id="SVGID_194_">
		<use xlink:href="#SVGID_193_"  style="overflow:visible;"/>
	</clipPath>
	
		<linearGradient id="SVGID_195_" gradientUnits="userSpaceOnUse" x1="-348.1286" y1="649.9792" x2="-347.8217" y2="649.9792" gradientTransform="matrix(188.413 0 0 -188.413 65640.3906 122593.7266)">
		<stop  offset="0" style="stop-color:#61C4DC"/>
		<stop  offset="2.107799e-02" style="stop-color:#60BDD9"/>
		<stop  offset="0.115" style="stop-color:#5CA3CC"/>
		<stop  offset="0.2146" style="stop-color:#5B89BE"/>
		<stop  offset="0.3179" style="stop-color:#5B72B1"/>
		<stop  offset="0.4262" style="stop-color:#5C5FA5"/>
		<stop  offset="0.541" style="stop-color:#5C509C"/>
		<stop  offset="0.6654" style="stop-color:#5C4595"/>
		<stop  offset="0.8065" style="stop-color:#5C3F91"/>
		<stop  offset="1" style="stop-color:#5C3D90"/>
	</linearGradient>
	<rect x="62.3" y="127.7" class="st81" width="0.2" height="2.9"/>
</g>
<g>
	<defs>
		<path id="SVGID_196_" d="M69.3,114.7c1.4-1.1,3-1.9,4.6-2.3C72.3,112.8,70.7,113.6,69.3,114.7"/>
	</defs>
	<clipPath id="SVGID_197_">
		<use xlink:href="#SVGID_196_"  style="overflow:visible;"/>
	</clipPath>
	
		<linearGradient id="SVGID_198_" gradientUnits="userSpaceOnUse" x1="-348.6848" y1="649.9103" x2="-348.3779" y2="649.9103" gradientTransform="matrix(586.192 0 0 -586.192 204435.5625 381085.7812)">
		<stop  offset="0" style="stop-color:#94A1BA"/>
		<stop  offset="1" style="stop-color:#7791B8"/>
	</linearGradient>
	<rect x="69.3" y="112.4" class="st82" width="4.6" height="2.3"/>
</g>
<g>
	<defs>
		<path id="SVGID_199_" d="M63.4,123.6c1.2-3.7,3.3-6.8,5.9-8.9C66.7,116.8,64.6,119.9,63.4,123.6L63.4,123.6"/>
	</defs>
	<clipPath id="SVGID_200_">
		<use xlink:href="#SVGID_199_"  style="overflow:visible;"/>
	</clipPath>
	
		<linearGradient id="SVGID_201_" gradientUnits="userSpaceOnUse" x1="-348.0911" y1="650.0041" x2="-347.7842" y2="650.0041" gradientTransform="matrix(179.419 0 0 -179.419 62503.0898 116742.2344)">
		<stop  offset="0" style="stop-color:#424689"/>
		<stop  offset="1" style="stop-color:#4B2E77"/>
	</linearGradient>
	<rect x="63.4" y="114.7" class="st83" width="5.9" height="8.9"/>
</g>
<g>
	<defs>
		<path id="SVGID_202_" d="M62.5,127.7L62.5,127.7c0.2-1.4,0.5-2.8,0.9-4.2h0C63,124.9,62.7,126.3,62.5,127.7"/>
	</defs>
	<clipPath id="SVGID_203_">
		<use xlink:href="#SVGID_202_"  style="overflow:visible;"/>
	</clipPath>
	
		<linearGradient id="SVGID_204_" gradientUnits="userSpaceOnUse" x1="-348.1286" y1="649.998" x2="-347.8217" y2="649.998" gradientTransform="matrix(188.413 0 0 -188.413 65640.3906 122593.7266)">
		<stop  offset="0" style="stop-color:#52A8C6"/>
		<stop  offset="6.577539e-02" style="stop-color:#5298C0"/>
		<stop  offset="0.169" style="stop-color:#557FB4"/>
		<stop  offset="0.2784" style="stop-color:#5769A8"/>
		<stop  offset="0.3929" style="stop-color:#59579E"/>
		<stop  offset="0.5144" style="stop-color:#5A4895"/>
		<stop  offset="0.646" style="stop-color:#5A3D90"/>
		<stop  offset="0.7953" style="stop-color:#5A378D"/>
		<stop  offset="1" style="stop-color:#5A358C"/>
	</linearGradient>
	<rect x="62.5" y="123.6" class="st84" width="0.9" height="4.2"/>
</g>
<g>
	<defs>
		<path id="SVGID_205_" d="M63.1,136.6c-0.2-1.3-0.8-4.6-0.8-5.9c0-1,0.1-2,0.2-2.9c0.2-1.4,0.5-2.8,0.9-4.2
			c1.2-3.7,3.3-6.8,5.9-8.9c1.4-1.1,3-1.9,4.6-2.3c0.9-0.2,1.8-0.3,2.8-0.3c1,0,1.9,0.1,2.8,0.3c1.5,0.4,2.9,1,4.2,2
			c0.3,0.2,0.5,0.4,0.8,0.6c2.3,1.9,4.2,4.7,5.4,8c0.8,2.3,1.3,5,1.3,7.7c0,0,0,0,0,0c0,0,0,0,0,0c0,0,0,0,0,0c0,0,0,0,0,0
			c0,0,0,0,0,0c0,0,0,0,0,0c0,0,0,0,0,0c0,0,0,0,0,0c0,0,0,0,0,0c0,0,0,0,0,0c0,1.9-0.2,3.6-0.6,5.3c-0.1-0.7,0-3-3.3-4.9
			c-2.6-1.5-8.6-1.9-13.3-3.6c-1.7-0.6-5.6-2.7-5.6-2.7S64,132.1,63.1,136.6"/>
	</defs>
	<clipPath id="SVGID_206_">
		<use xlink:href="#SVGID_205_"  style="overflow:visible;"/>
	</clipPath>
	
		<radialGradient id="SVGID_207_" cx="-347.4019" cy="649.2761" r="0.3069" gradientTransform="matrix(62.7664 0 0 -62.7664 21881.8848 40883.3906)" gradientUnits="userSpaceOnUse">
		<stop  offset="0" style="stop-color:#F7C0A7"/>
		<stop  offset="0.2057" style="stop-color:#F5B6A6"/>
		<stop  offset="0.5892" style="stop-color:#F29AA0"/>
		<stop  offset="1" style="stop-color:#EE7295"/>
	</radialGradient>
	<rect x="62.3" y="112" class="st85" width="28.8" height="24.6"/>
</g>
<g>
	<defs>
		<path id="SVGID_208_" d="M66.9,125.3c4.5-6.3,12.3-9.2,18.3-11.4c-3.2-2.6-8-3.6-11.9-3c-8.7,1.2-16.6,11.9-10.6,24.5
			C63.2,132.1,65.1,127.9,66.9,125.3"/>
	</defs>
	<clipPath id="SVGID_209_">
		<use xlink:href="#SVGID_208_"  style="overflow:visible;"/>
	</clipPath>
	
		<linearGradient id="SVGID_210_" gradientUnits="userSpaceOnUse" x1="-347.3316" y1="649.0878" x2="-347.0247" y2="649.0878" gradientTransform="matrix(84.6714 -11.2491 -11.2491 -84.6714 36764.7773 51177.0781)">
		<stop  offset="0" style="stop-color:#594A99"/>
		<stop  offset="1" style="stop-color:#6AC7E5"/>
	</linearGradient>
	<polygon class="st86" points="53.5,110.7 84.8,106.6 88.5,134.9 57.2,139.1 	"/>
</g>
<g>
	<defs>
		<path id="SVGID_211_" d="M83.6,127.6c1.8,0.3,4.9,1.8,7.1,3.9c1.9,1.8,3,4.8,3-0.1c0-12.3-7.7-22.2-17.2-22.2
			c-5.5,0-10.4,3.4-13.6,8.6C64.1,121.7,65.6,124.9,83.6,127.6"/>
	</defs>
	<clipPath id="SVGID_212_">
		<use xlink:href="#SVGID_211_"  style="overflow:visible;"/>
	</clipPath>
	
		<linearGradient id="SVGID_213_" gradientUnits="userSpaceOnUse" x1="-347.9362" y1="649.5473" x2="-347.6294" y2="649.5473" gradientTransform="matrix(147.509 0 0 -147.509 51375.3828 95936.8984)">
		<stop  offset="0" style="stop-color:#6AC7E5"/>
		<stop  offset="1" style="stop-color:#594A99"/>
	</linearGradient>
	<rect x="63" y="109.3" class="st87" width="30.8" height="27.1"/>
</g>
<g>
	<defs>
		<path id="SVGID_214_" d="M80.4,154.5c0,1-1.6,1.8-3.5,1.8c-1.9,0-3.5-0.8-3.5-1.8c0-1,1.6-1.8,3.5-1.8
			C78.8,152.7,80.4,153.5,80.4,154.5"/>
	</defs>
	<clipPath id="SVGID_215_">
		<use xlink:href="#SVGID_214_"  style="overflow:visible;"/>
	</clipPath>
	
		<linearGradient id="SVGID_216_" gradientUnits="userSpaceOnUse" x1="-345.5003" y1="650.2586" x2="-345.1935" y2="650.2586" gradientTransform="matrix(32.4683 0 0 -32.4683 11288.6289 21267.2891)">
		<stop  offset="0" style="stop-color:#F5A99D"/>
		<stop  offset="1" style="stop-color:#EE769D"/>
	</linearGradient>
	<rect x="73.4" y="152.7" class="st88" width="7" height="3.5"/>
</g>
<g>
	<defs>
		<path id="SVGID_217_" d="M95.9,160.8c-2.3-3.1-6.6-6.2-10.6-6.2h-17c-4.7,0-8.8,2.8-10.8,6.7c4.9,4.7,11.6,7.5,18.9,7.5
			C84.1,168.8,90.9,165.8,95.9,160.8"/>
	</defs>
	<clipPath id="SVGID_218_">
		<use xlink:href="#SVGID_217_"  style="overflow:visible;"/>
	</clipPath>
	
		<linearGradient id="SVGID_219_" gradientUnits="userSpaceOnUse" x1="-348.3705" y1="650.1051" x2="-348.0637" y2="650.1051" gradientTransform="matrix(234.255 0 0 -234.255 81663.3984 152452.0625)">
		<stop  offset="0" style="stop-color:#6AC7E5"/>
		<stop  offset="0.138" style="stop-color:#61AAD5"/>
		<stop  offset="0.2835" style="stop-color:#5D8EC5"/>
		<stop  offset="0.4302" style="stop-color:#5B76B6"/>
		<stop  offset="0.5758" style="stop-color:#5A63A9"/>
		<stop  offset="0.72" style="stop-color:#5A55A0"/>
		<stop  offset="0.8621" style="stop-color:#594C9A"/>
		<stop  offset="1" style="stop-color:#594A99"/>
	</linearGradient>
	<rect x="57.5" y="154.5" class="st89" width="38.4" height="14.3"/>
</g>
<g>
	<defs>
		<path id="SVGID_220_" d="M78.7,200.2c-1.4,1.5-2.5,3.3-3,5.3C77.1,203.9,78.5,202.1,78.7,200.2 M59.4,203.1
			c-0.1,0.2-0.1,0.5-0.2,0.7c-0.2,0.7-0.4,1.5-0.7,2.2c-0.1,0.2-0.2,0.5-0.3,0.7c0.1,0.1,0.2,0.1,0.3,0.2c0.4,0,0.7-0.1,1.1-0.2
			c0-0.2,0-0.3,0-0.5C59.5,205.2,59.4,204.1,59.4,203.1 M55.7,206.7c-0.5,0-1,0-1.4,0.1c0.1,0.1,0.4,0.3,0.7,0.3c0,0,0,0,0,0
			c0.7,0,1.5-0.1,2.2-0.1l0,0C56.9,206.8,56.3,206.7,55.7,206.7 M59.6,207.2c-0.2,0-0.4,0.1-0.5,0.1c0.2,0.2,0.3,0.4,0.4,0.7
			c0.1,0.4,0.2,0.8,0.2,1.2c0,0,0,0.1,0,0.1C59.7,208.6,59.6,207.9,59.6,207.2 M61.2,212.3l0.5-1.8c0.2-0.7,0.5-1.3,0.9-1.9
			c0.3-0.7,0.4-1.4,0.5-2.1c-1,0.3-2,0.5-3,0.7c0.1,1.2,0.1,2.4,0.2,3.7l0,0.6l-0.5-0.4c-0.6-0.5-0.7-1.2-0.8-1.9
			c0-0.4-0.1-0.7-0.2-1c-0.1-0.3-0.3-0.6-0.6-0.8c-0.2,0-0.5,0.1-0.7,0.1c-1.4,1.8-3.8,3-6.1,3c-0.7,0-1.3-0.1-2-0.3
			c-0.4-0.1-1-0.3-1.3-0.9c-0.3-0.5-0.2-1.3,0.3-1.8c0.4-0.4,1-0.6,1.6-0.7l0,0.6c-0.3,0-0.9,0.1-1.2,0.5c-0.3,0.3-0.4,0.8-0.2,1.1
			c0.2,0.3,0.6,0.5,0.9,0.6c0.6,0.2,1.2,0.3,1.8,0.3c2,0,4-0.9,5.3-2.3c-0.6,0-1.1,0.1-1.7,0.1c-0.5,0-1.1-0.2-1.3-0.6
			c-0.1-0.2-0.1-0.4,0-0.7l0.1-0.1l0.1,0c0.6-0.1,1.2-0.1,1.7-0.1c0.8,0,1.4,0.1,2,0.3c0.1-0.2,0.2-0.4,0.3-0.7
			c0.3-0.7,0.5-1.4,0.6-2.1c0.2-0.8,0.4-1.5,0.7-2.3l0.5-1.2l0,1.3c0.1,1.6,0.1,3.2,0.2,4.7c0,0.1,0,0.3,0,0.4
			c1.1-0.2,2.2-0.5,3.3-0.8l0.4-0.1l0,0.4c0,0.5-0.1,1-0.3,1.6c0.5-0.5,1.2-0.8,1.8-1l0.4-0.1l0.1,1.9c0.6-0.9,1.3-1.7,2.1-2.5
			l0.4-0.4l0.1,0.5c0.1,0.5,0.1,1.1,0.1,1.6c0.5-0.5,1-1,1.6-1.3l0.4-0.2l0.1,2.5c0.8-0.7,1.5-1.4,2.2-2.2l0.3-0.3l0.2,0.4
			c0.1,0.1,0.2,0.2,0.3,0.2c0,0,0.1,0,0.1,0c0.3,0,0.8-0.2,1.1-0.5c0.5-2.6,1.9-5.1,3.9-6.9l0.4-0.4l0,0.6c0.2,2.7-1.8,4.9-3.6,6.9
			c-0.1,0.1-0.1,0.1-0.2,0.2c-0.2,0.9-0.2,1.8-0.2,2.7c0.3,1,0.8,1.6,1.6,1.8c0.2,0,0.3,0.1,0.5,0.1c1.1,0,2.6-0.7,3.7-2
			c1-1.1,1.4-2.2,1.3-3c-0.1,0-0.2,0-0.4,0c-0.9,0.5-1.8,0.9-2.7,1.2l-1,0.4l0.7-0.8c0.7-0.8,1.8-1.3,2.8-1.3c0,0,0,0,0,0
			c1.3-0.7,2.6-1.6,3.7-2.6l0.3-0.3l0.6,1.3c1.1-0.2,2.2-0.7,3.1-1.4l0.3-0.2l0.2,0.3c0.2,0.4,0.6,0.6,1,0.6c0,0,0,0,0.1,0l0,0.6
			c0,0-0.1,0-0.1,0c-0.5,0-1-0.3-1.4-0.7c-1,0.7-2.1,1.2-3.3,1.4l-0.2,0l-0.4-1c-0.9,0.8-1.9,1.4-2.9,2l0,0l0.1,0.2
			c0.4,1.1-0.2,2.5-1.3,3.8c-1,1.1-2.6,2.2-4.1,2.2c-0.2,0-0.4,0-0.7-0.1c-0.7-0.2-1.6-0.7-2-2.3l0-0.1c0-0.8,0-1.5,0.1-2.3
			c-0.3,0.2-0.7,0.3-1,0.3c-0.1,0-0.1,0-0.2,0c-0.2,0-0.4-0.1-0.5-0.2c-0.8,0.9-1.6,1.6-2.5,2.3l-0.5,0.3l-0.1-2.6
			c-0.7,0.5-1.3,1.1-1.8,1.9c-0.1,0.4-0.3,0.8-0.5,1.2l-1.3,2.2l0.7-2.4c0.1-0.4,0.3-0.8,0.5-1.2c0.2-0.7,0.3-1.3,0.2-2
			c-0.8,0.8-1.5,1.8-2,2.7l-0.5,0.8l-0.2-2.9c-0.8,0.3-1.5,0.9-2.1,1.6c-0.2,0.6-0.6,1.3-0.9,1.9L61.2,212.3"/>
	</defs>
	<clipPath id="SVGID_221_">
		<use xlink:href="#SVGID_220_"  style="overflow:visible;"/>
	</clipPath>
	
		<linearGradient id="SVGID_222_" gradientUnits="userSpaceOnUse" x1="-348.7682" y1="649.7533" x2="-348.5158" y2="649.7533" gradientTransform="matrix(586.192 0 0 -586.192 204435.5625 381085.7812)">
		<stop  offset="0" style="stop-color:#E9F6FA"/>
		<stop  offset="1" style="stop-color:#E1F2FA"/>
	</linearGradient>
	<rect x="48" y="198.8" class="st90" width="43" height="13.5"/>
</g>
<g>
	<defs>
		<path id="SVGID_223_" d="M98.3,211.3c-2.7,0-4.9-2.2-4.9-4.9c0-2.7,2.2-4.9,4.9-4.9c2.7,0,4.9,2.2,4.9,4.9
			C103.3,209.1,101,211.3,98.3,211.3"/>
	</defs>
	<clipPath id="SVGID_224_">
		<use xlink:href="#SVGID_223_"  style="overflow:visible;"/>
	</clipPath>
	
		<linearGradient id="SVGID_225_" gradientUnits="userSpaceOnUse" x1="-348.8016" y1="649.752" x2="-348.5492" y2="649.752" gradientTransform="matrix(586.192 0 0 -586.192 204435.5625 381085.7812)">
		<stop  offset="0" style="stop-color:#CFEAF4"/>
		<stop  offset="1" style="stop-color:#B9E1F4"/>
	</linearGradient>
	<rect x="93.4" y="201.4" class="st91" width="9.9" height="9.9"/>
</g>
<g>
	<defs>
		<path id="SVGID_226_" d="M98.3,198.7c-4.2,0-7.6,3.4-7.6,7.6c0,4.2,3.4,7.6,7.6,7.6c4.2,0,7.6-3.4,7.6-7.6
			C105.9,202.2,102.5,198.7,98.3,198.7 M98.3,215.1c-4.8,0-8.8-3.9-8.8-8.8c0-4.8,3.9-8.8,8.8-8.8c4.8,0,8.8,3.9,8.8,8.8
			C107.1,211.2,103.2,215.1,98.3,215.1"/>
	</defs>
	<clipPath id="SVGID_227_">
		<use xlink:href="#SVGID_226_"  style="overflow:visible;"/>
	</clipPath>
	
		<linearGradient id="SVGID_228_" gradientUnits="userSpaceOnUse" x1="-348.8016" y1="649.752" x2="-348.5492" y2="649.752" gradientTransform="matrix(586.192 0 0 -586.192 204435.5625 381085.7812)">
		<stop  offset="0" style="stop-color:#CFEAF4"/>
		<stop  offset="1" style="stop-color:#B9E1F4"/>
	</linearGradient>
	<rect x="89.5" y="197.6" class="st92" width="17.6" height="17.6"/>
</g>
<path class="st0" d="M50.3,72.8l0.2-8.1l-4.2,6.9c-1.6,2.6-4.4,4.1-7.4,4.1l-8.1-0.2l6.9,3.8c2.9,1.6,4.5,4.7,4.3,7.9l-0.5,7.9
	l3.8-6.9c1.6-2.9,4.7-4.5,7.9-4.3l7.9,0.5l-6.9-4.2C51.7,78.6,50.2,75.8,50.3,72.8"/>
</svg>
