<svg width="217" height="86" viewBox="0 0 217 86" fill="none" xmlns="http://www.w3.org/2000/svg">
<g clip-path="url(#clip0)">
<path d="M76.4355 11.8438C77.582 9.65612 79.8751 8.59998 82.1681 8.59998C88.0536 8.75085 91.111 13.428 91.111 18.9351C91.111 26.2526 84.6905 31.3824 77.7349 28.5912V39.1526H70.7028V15.314C70.7028 13.7298 70.7793 12.9754 69.0212 12.9754V9.20348C71.4672 8.59998 76.359 8.07191 76.359 11.7684V11.8438H76.4355ZM77.6584 22.6316C81.098 24.1403 84.079 22.7824 84.079 18.9351C84.079 16.8982 83.0089 14.6351 80.6394 14.7859C78.6521 14.7859 77.582 16.521 77.582 18.2561V22.6316H77.6584Z" fill="#E7C700"/>
<path d="M107.774 8.59994C109.303 8.5245 110.755 8.97713 111.825 9.80695L110.449 15.4648C109.303 14.7105 108.156 14.4087 107.01 14.4841C104.64 14.635 102.576 16.0684 102.576 19.0859V28.9684H95.6208V15.1631C95.6208 13.6543 95.5444 12.8999 93.8628 12.8999V9.12801C96.6145 8.44906 102.041 7.99643 102.347 11.8438C103.188 9.65608 105.481 8.59994 107.774 8.59994Z" fill="#E7C700"/>
<path d="M132.539 20.7456H120.156C120.462 23.3105 122.755 23.914 125.125 23.914C127.494 23.914 130.475 23.3105 131.851 22.6316L132.615 27.6859C130.169 28.8175 127.418 29.4965 124.59 29.4965C117.94 29.4965 113.048 25.7245 113.048 19.0105C113.048 11.8438 118.551 8.67542 123.672 8.67542C131.316 8.82629 134.297 13.7298 132.539 20.7456ZM126.653 16.521C126.883 14.7105 125.125 13.9561 123.672 13.9561C122.144 13.9561 120.539 14.7859 120.156 16.521H126.653Z" fill="#E7C700"/>
<path d="M142.781 22.707C142.781 23.9895 143.928 24.4421 145.074 24.4421C146.221 24.4421 147.367 23.914 147.367 22.8579C147.367 21.6509 146.297 21.5 145.151 21.3491C141.176 20.8965 136.131 20.1421 136.131 15.314C136.131 10.7123 140.565 8.59998 145.074 8.59998C149.661 8.59998 154.094 10.9386 153.941 15.314H147.75C147.597 14.3333 146.45 13.8052 145.227 13.8052C144.081 13.8807 143.087 14.3333 143.087 15.0877C142.934 16.2947 144.463 16.3702 145.38 16.4456C149.813 16.8982 154.552 17.5017 154.4 22.7824C154.247 27.2333 149.813 29.421 145.227 29.421C140.641 29.421 135.826 28.2895 135.749 22.5561H142.781V22.707Z" fill="#E7C700"/>
<path d="M167.011 9.20342H173.126V14.1069H167.011V20.9718C167.011 24.5929 170.833 24.3666 173.432 23.4613L174.043 28.6666C167.164 30.5525 160.132 29.4964 160.132 21.1982V14.1824L156.616 13.7297V9.27886H160.132L160.897 3.16833H167.011V9.20342Z" fill="#E7C700"/>
<path d="M181.075 -3.21683e-05C183.139 0.0754064 185.127 1.35786 185.127 3.92277C185.127 6.56313 183.139 7.84558 181.075 7.92102C179.012 7.99646 176.948 6.63856 176.948 3.92277C176.948 1.20699 179.012 -0.0754708 181.075 -3.21683e-05ZM184.515 28.9684H177.483L177.559 9.50523H184.592V28.9684H184.515Z" fill="#E7C700"/>
<path d="M198.197 9.20342H204.312V14.1069H198.197V20.9718C198.197 24.5929 202.019 24.3666 204.618 23.4613L205.229 28.6666C198.35 30.5525 191.318 29.4964 191.318 21.1982V14.1824L187.802 13.7297V9.27886H191.318L192.082 3.16833H198.197V9.20342Z" fill="#E7C700"/>
<path d="M212.261 -3.21683e-05C214.325 0.0754064 216.312 1.35786 216.312 3.92277C216.312 6.56313 214.325 7.84558 212.261 7.92102C210.197 7.99646 208.134 6.63856 208.134 3.92277C208.134 1.20699 210.121 -0.0754708 212.261 -3.21683e-05ZM215.701 28.9684H208.669L208.745 9.50523H215.777V28.9684H215.701Z" fill="#E7C700"/>
<path d="M95.4677 45.4895H92.8689V43.0754H95.5441V41.1895C95.5441 35.6825 99.8245 34.8526 104.258 36.286L103.876 38.4737C101.353 37.493 98.6015 37.7193 98.6015 41.2649V43.0754H103.417V45.4895H98.6015V57.0316H95.4677V45.4895Z" fill="#6B767C"/>
<path d="M109.761 57.3333C107.162 57.3333 104.64 55.6737 104.64 52.9579C104.563 49.6386 107.009 48.0544 110.143 48.0544C111.519 48.0544 113.124 48.4316 114.347 49.1105V47.7526C114.347 44.0561 107.927 45.2632 106.169 46.1684L105.71 43.9053C107.162 43.1509 109.073 42.7737 110.984 42.7737C114.424 42.7737 117.481 43.9807 117.481 47.8281V53.3351C117.481 54.6175 117.405 55.4474 118.933 55.3719L119.01 57.1825C116.793 57.5597 115.035 57.5597 114.959 54.7684C114.041 56.579 111.748 57.3333 109.761 57.3333ZM114.347 51.0719C113.277 50.4684 111.901 50.0912 110.678 50.0912C109.15 50.0912 107.774 50.9965 107.774 52.7316C107.774 54.0895 109.073 54.7684 110.373 54.7684C112.054 54.7684 114.041 54.014 114.347 52.2035V51.0719Z" fill="#6B767C"/>
<path d="M123.596 36.8894C124.59 36.8894 125.507 37.4929 125.507 38.7754C125.507 40.0578 124.59 40.6613 123.596 40.6613C122.602 40.6613 121.609 40.0578 121.609 38.7754C121.609 37.4929 122.602 36.8894 123.596 36.8894ZM125.125 57.0315H121.914V43.2262H125.125V57.0315Z" fill="#6B767C"/>
<path d="M139.724 54.4667C138.807 56.5036 137.125 57.3334 134.985 57.3334C130.781 57.4088 128.488 53.9386 128.488 50.0158C128.488 45.7158 131.545 42.8492 135.214 42.8492C136.513 42.8492 137.889 43.1509 139.189 43.9053V35.7579H142.399V52.6562C142.399 54.2404 142.246 54.8439 143.851 54.8439L143.928 57.0316C141.711 57.4088 139.8 57.1825 139.8 54.8439V54.4667H139.724ZM139.189 46.6965C138.042 45.9421 136.819 45.565 135.673 45.565C133.456 45.565 131.622 47.1492 131.622 50.0158C131.622 52.4299 132.845 54.5422 135.443 54.5422C137.66 54.5422 139.112 52.8071 139.112 50.6193V46.6965H139.189Z" fill="#6B767C"/>
<path d="M151.113 57.3333C148.514 57.3333 145.991 55.6737 145.991 52.9579C145.915 49.6386 148.361 48.0544 151.495 48.0544C152.871 48.0544 154.399 48.4316 155.699 49.1105V47.7526C155.699 44.0561 149.278 45.2632 147.52 46.1684L147.062 43.9053C148.514 43.1509 150.425 42.7737 152.336 42.7737C155.775 42.7737 158.833 43.9807 158.833 47.8281V53.3351C158.833 54.6175 158.756 55.4474 160.285 55.3719L160.361 57.1825C158.145 57.5597 156.387 57.5597 156.31 54.7684C155.317 56.579 153.1 57.3333 151.113 57.3333ZM155.699 51.0719C154.629 50.4684 153.253 50.0912 152.03 50.0912C150.501 50.0912 149.125 50.9965 149.125 52.7316C149.125 54.0895 150.425 54.7684 151.724 54.7684C153.406 54.7684 155.393 54.014 155.699 52.2035V51.0719Z" fill="#6B767C"/>
<path d="M167.47 43.0754H172.362V45.3386H167.47V51.6754C167.47 55.221 169.763 55.4473 172.667 54.4666L172.973 56.8807C168.081 58.3894 164.336 57.2579 164.336 51.7508V45.414L161.431 45.1877V43.1508H164.336L164.642 38.8508H167.47V43.0754Z" fill="#6B767C"/>
<path d="M188.413 50.6193H177.942C177.942 53.1842 180.005 54.693 182.528 54.693C184.286 54.7684 185.967 54.5421 187.649 53.7877L188.031 56.1263C186.349 56.8807 184.439 57.3333 182.681 57.3333C178.018 57.4088 174.578 54.4667 174.731 49.714C174.808 45.0368 178.247 42.6982 182.069 42.6982C187.114 42.6982 189.33 45.9421 188.413 50.6193ZM177.942 48.3561H185.738C185.814 46.2439 184.056 45.1123 181.993 45.1123C180.005 45.1877 178.4 46.1684 177.942 48.3561Z" fill="#6B767C"/>
<path d="M191.623 55.5982C191.623 54.4667 192.541 53.7877 193.611 53.7877C194.681 53.7877 195.598 54.4667 195.598 55.5982C195.598 56.6544 194.681 57.4088 193.611 57.4088C192.541 57.4088 191.623 56.6544 191.623 55.5982Z" fill="#6B767C"/>
<path d="M201.178 36.8894C202.171 36.8894 203.089 37.4929 203.089 38.7754C203.089 40.0578 202.171 40.6613 201.178 40.6613C200.184 40.6613 199.19 40.0578 199.19 38.7754C199.19 37.4929 200.184 36.8894 201.178 36.8894ZM202.783 57.0315H199.573V43.2262H202.783V57.0315Z" fill="#6B767C"/>
<path d="M211.497 43.0754H216.389V45.3386H211.497V51.6754C211.497 55.221 213.79 55.4473 216.694 54.4666L217 56.8807C212.108 58.3894 208.363 57.2579 208.363 51.7508V45.414L205.458 45.1877V43.1508H208.363L208.669 38.8508H211.497V43.0754Z" fill="#6B767C"/>
<path d="M58.7789 28.7421C58.626 27.8369 57.9381 27.1579 57.0208 27.007L53.5048 26.5544C53.1226 26.479 52.7405 26.3281 52.5112 26.1018C51.9761 24.2158 51.2118 22.4807 50.2945 20.8211C50.371 20.4439 50.4474 20.1421 50.6767 19.8404L52.8169 17.0492C53.3519 16.2948 53.3519 15.3141 52.8169 14.6351C51.9761 13.579 51.1353 12.5983 50.2181 11.693C49.3773 10.8632 48.4601 10.1088 47.5429 9.35442C46.7785 8.82635 45.7848 8.75091 45.0205 9.35442L42.1924 11.4667C41.8866 11.693 41.5809 11.8439 41.2752 11.8439C39.5171 10.8632 37.6827 10.1088 35.7718 9.5053C35.6189 9.27898 35.4661 8.90179 35.3896 8.60004L34.931 5.12986C34.7781 4.2246 34.0902 3.54565 33.173 3.39477C32.0265 3.2439 30.8035 3.16846 29.657 3.16846C28.3576 3.16846 26.9817 3.2439 25.6823 3.39477C24.7651 3.54565 24.0772 4.2246 23.9243 5.12986L23.4657 8.60004C23.3893 8.90179 23.3128 9.20354 23.16 9.42986C23.0835 9.42986 23.0071 9.42986 23.0071 9.5053L25.8352 17.2C26.9817 16.9737 28.1283 16.8228 29.3512 16.8228C38.0649 16.8228 45.0969 23.7632 45.0969 32.3632C45.0969 40.9632 38.0649 47.9035 29.3512 47.9035C28.1283 47.9035 26.9817 47.7527 25.8352 47.5263L22.9307 55.2211H23.0071C23.2364 55.5228 23.3128 55.8246 23.3893 56.1264L23.8479 59.5965C24.0008 60.5018 24.6887 61.1807 25.6059 61.3316C26.7524 61.4825 27.9754 61.5579 29.1219 61.5579C30.4213 61.5579 31.7972 61.4825 33.0966 61.3316C34.0138 61.1807 34.7017 60.5018 34.8546 59.5965L35.3132 56.1264C35.3896 55.7492 35.5425 55.4474 35.7718 55.1456C37.6827 54.6176 39.4407 53.8632 41.1223 52.9579C41.5045 52.9579 41.8866 53.1088 42.1924 53.3351L45.0205 55.4474C45.7848 55.9755 46.7785 55.9755 47.4664 55.4474C48.5365 54.6176 49.5302 53.7878 50.4474 52.8825C51.2882 52.0527 52.0525 51.1474 52.8169 50.2421C53.3519 49.4877 53.4284 48.507 52.8169 47.7527L50.6767 44.9614C50.4474 44.6597 50.2945 44.2825 50.2945 43.9053C51.2118 42.2456 51.9761 40.5106 52.5112 38.7C52.8169 38.4737 53.1991 38.3228 53.5812 38.2474L57.0973 37.7948C58.0145 37.6439 58.7024 36.9649 58.8553 36.0597C59.0082 34.9281 59.0846 33.7211 59.0846 32.5895C59.0082 31.3071 58.9317 30.0246 58.7789 28.7421Z" fill="#6B767C"/>
<path d="M25.7587 47.451C24.4593 47.1492 23.2364 46.6966 22.0898 46.1685C19.5675 44.8861 17.4273 42.9247 15.8986 40.5106H27.6696C28.1282 40.5106 28.2811 40.1334 28.5104 39.6808L30.4977 34.7019C30.4977 34.2492 30.1155 33.872 29.6569 33.872H13.6819C13.6055 33.344 13.6055 32.8159 13.6055 32.2878C13.6055 31.7598 13.6055 31.2317 13.6819 30.7036H31.0328C31.4914 30.7036 31.6442 30.3264 31.8735 29.8738L33.8609 24.8948C33.8609 24.4422 33.4787 24.065 33.0201 24.065H15.975C17.5801 21.5755 19.7968 19.5387 22.472 18.2562C23.5421 17.7282 24.6886 17.351 25.8352 17.0492L23.007 9.35449C21.5548 9.73169 20.1789 10.2598 18.8795 10.8633C13.2998 13.5036 8.94294 18.2562 6.80275 24.065H2.82811C2.3695 24.065 2.21663 24.4422 1.98732 24.8948L0 29.9492C0 30.4019 0.382177 30.7791 0.840789 30.7791H5.35048C5.35048 31.3071 5.35048 31.8352 5.35048 32.3633C5.35048 32.8913 5.35048 33.4194 5.42691 33.9475H2.82811C2.3695 33.9475 2.21663 34.3247 1.98732 34.7773L0 39.6808C0 40.1334 0.382177 40.5106 0.840789 40.5106H6.80275C8.8665 46.0931 13.0704 50.6948 18.4209 53.4106C19.8732 54.165 21.4019 54.7685 23.007 55.1457L25.7587 47.451Z" fill="#E7C700"/>
<path d="M72.69 77.6053C73.3779 77.6053 73.9894 77.4544 74.6009 77.1527V75.1912H72.7664C72.6135 75.1912 72.5371 75.1158 72.4607 75.0404C72.3842 74.9649 72.3078 74.814 72.3078 74.7386C72.3078 74.6632 72.3842 74.5123 72.4607 74.4369C72.5371 74.3614 72.69 74.286 72.7664 74.286H74.9066C75.0595 74.286 75.1359 74.3614 75.2888 74.4369C75.4417 74.5123 75.4417 74.6632 75.4417 74.8141V77.3035C75.4417 77.4544 75.4417 77.6053 75.3652 77.7562C75.2888 77.907 75.2124 77.9825 75.0595 77.9825C74.2187 78.3597 73.3779 78.586 72.5371 78.586C71.3906 78.586 70.4734 78.2088 69.709 77.5298C68.9447 76.8509 68.6389 75.8702 68.6389 74.7386C68.6389 73.607 69.0211 72.6263 69.7854 71.8719C70.4734 71.193 71.3906 70.8158 72.5371 70.8158C73.1486 70.8158 73.6836 70.8912 74.1423 71.0421C74.6009 71.193 74.983 71.3439 75.2888 71.5702C75.4417 71.6456 75.5181 71.7965 75.5181 71.9474C75.5181 72.0983 75.5181 72.2491 75.4417 72.3246C75.3652 72.4 75.2888 72.4754 75.1359 72.4754C74.983 72.4754 74.9066 72.4754 74.8302 72.4C74.1423 72.0228 73.3779 71.7965 72.69 71.7965C71.8492 71.7965 71.1613 72.0228 70.6262 72.5509C70.0912 73.079 69.7854 73.8333 69.7854 74.7386C69.7854 75.5684 70.0148 76.3228 70.5498 76.8509C71.0084 77.3035 71.7728 77.6053 72.69 77.6053Z" fill="black"/>
<path d="M83.3146 77.9825C83.3146 78.1333 83.2381 78.2088 83.1617 78.3597C83.0852 78.5105 82.9324 78.5105 82.7795 78.5105C82.6266 78.5105 82.4738 78.4351 82.3973 78.3597C82.3209 78.2842 82.2445 78.1333 82.2445 77.9825V77.6807C82.2445 77.0772 82.168 76.7 82.0152 76.3983C81.8623 76.0965 81.7094 75.8702 81.4801 75.7193C81.2508 75.5684 80.9451 75.493 80.4864 75.493H78.1934V77.9825C78.1934 78.1333 78.1169 78.2088 78.0405 78.3597C77.9641 78.5105 77.8112 78.5105 77.6583 78.5105C77.5055 78.5105 77.429 78.4351 77.2762 78.3597C77.1233 78.2842 77.1233 78.1333 77.1233 77.9825V71.3439C77.1233 71.193 77.1997 71.1175 77.2762 70.9667C77.3526 70.8158 77.5055 70.8158 77.6583 70.8158H80.2571C81.2508 70.8158 82.0152 71.0421 82.5502 71.4193C83.0088 71.7965 83.2381 72.3246 83.2381 73.0035C83.2381 73.4562 83.0852 73.8333 82.8559 74.2105C82.6266 74.5877 82.2445 74.814 81.7858 74.9649C82.3209 75.1158 82.7031 75.493 82.9324 76.0965C83.0852 76.4737 83.1617 76.9263 83.1617 77.4544V77.9825H83.3146ZM80.2571 74.5123C80.8686 74.5123 81.4037 74.3614 81.7858 74.1351C82.168 73.9088 82.3209 73.5316 82.3209 73.079C82.3209 72.6263 82.168 72.3246 81.8623 72.0983C81.4801 71.8719 80.9451 71.7211 80.1807 71.7211H78.2698V74.5123H80.2571Z" fill="black"/>
<path d="M90.8816 70.7404C91.0345 70.7404 91.1109 70.8158 91.2638 70.8912C91.4166 70.9667 91.4166 71.1175 91.4166 71.2684V75.5684C91.4166 76.5491 91.0345 77.2281 90.3465 77.8316C89.7351 78.2842 89.0471 78.5105 88.2064 78.5105C87.3656 78.5105 86.6776 78.2842 86.0662 77.8316C85.3782 77.3035 85.0725 76.5491 85.0725 75.5684V71.2684C85.0725 71.1175 85.1489 71.0421 85.2254 70.8912C85.3018 70.7404 85.4547 70.7404 85.6076 70.7404C85.7604 70.7404 85.8369 70.8158 85.9897 70.8912C86.1426 70.9667 86.1426 71.1175 86.1426 71.2684V75.5684C86.1426 76.2474 86.3719 76.7 86.8305 77.0772C87.2127 77.379 87.7477 77.6053 88.2828 77.6053C88.8943 77.6053 89.3529 77.4544 89.8115 77.0772C90.2701 76.7 90.4994 76.1719 90.4994 75.5684V71.2684C90.4994 71.1175 90.5759 71.0421 90.6523 70.8912C90.7287 70.7404 90.7287 70.7404 90.8816 70.7404Z" fill="black"/>
<path d="M96.4615 70.8158C97.4551 70.8158 98.2195 71.0421 98.7545 71.5702C99.2131 72.0228 99.366 72.5509 99.366 73.2298C99.366 73.9088 99.1367 74.4369 98.7545 74.8895C98.2195 75.4176 97.4551 75.6439 96.4615 75.6439H94.4741V77.9825C94.4741 78.1333 94.3977 78.2088 94.3213 78.3597C94.2448 78.5105 94.092 78.5105 93.9391 78.5105C93.7862 78.5105 93.7098 78.4351 93.5569 78.3597C93.4041 78.2842 93.4041 78.1333 93.4041 77.9825V71.3439C93.4041 71.193 93.4805 71.1175 93.5569 70.9667C93.6334 70.8158 93.7862 70.8158 93.9391 70.8158H96.4615ZM96.385 74.7386C97.1494 74.7386 97.6844 74.5877 97.9902 74.286C98.2959 74.0597 98.3723 73.6825 98.3723 73.3053C98.3723 72.6263 98.0666 72.1737 97.3787 71.9474C97.0729 71.8719 96.7672 71.7965 96.385 71.7965H94.4741V74.7386H96.385Z" fill="black"/>
<path d="M103.799 70.8158C104.793 70.8158 105.557 71.0421 106.092 71.5702C106.551 72.0228 106.704 72.5509 106.704 73.2298C106.704 73.9088 106.474 74.4369 106.092 74.8895C105.557 75.4176 104.793 75.6439 103.799 75.6439H101.812V77.9825C101.812 78.1333 101.735 78.2088 101.659 78.3597C101.582 78.5105 101.43 78.5105 101.277 78.5105C101.124 78.5105 101.047 78.4351 100.895 78.3597C100.742 78.2842 100.742 78.1333 100.742 77.9825V71.3439C100.742 71.193 100.818 71.1175 100.895 70.9667C100.971 70.8158 101.124 70.8158 101.277 70.8158H103.799ZM103.723 74.7386C104.487 74.7386 105.022 74.5877 105.328 74.286C105.634 74.0597 105.71 73.6825 105.71 73.3053C105.71 72.6263 105.404 72.1737 104.716 71.9474C104.411 71.8719 104.105 71.7965 103.723 71.7965H101.812V74.7386H103.723Z" fill="black"/>
<path d="M108.767 71.7965C109.455 71.0421 110.373 70.7404 111.595 70.7404C112.818 70.7404 113.659 71.1176 114.424 71.7965C115.111 72.4754 115.494 73.4561 115.494 74.5877C115.494 75.7193 115.111 76.7 114.424 77.379C113.736 78.1333 112.818 78.4351 111.595 78.4351C110.373 78.4351 109.532 78.0579 108.767 77.379C108.079 76.6246 107.697 75.7193 107.697 74.5877C107.774 73.4561 108.079 72.5509 108.767 71.7965ZM111.595 77.6053C112.513 77.6053 113.201 77.3035 113.736 76.7754C114.271 76.2474 114.5 75.493 114.5 74.6632C114.5 73.8333 114.271 73.079 113.736 72.5509C113.201 71.9474 112.513 71.7211 111.595 71.7211C110.678 71.7211 109.99 72.0228 109.455 72.5509C108.92 73.079 108.691 73.8333 108.691 74.6632C108.691 75.493 108.92 76.2474 109.455 76.7754C109.99 77.3035 110.678 77.6053 111.595 77.6053Z" fill="black"/>
<path d="M122.526 77.6053C123.825 77.6053 124.437 77.1526 124.437 76.3228C124.437 75.9456 124.207 75.7193 123.672 75.493C123.443 75.4175 123.214 75.3421 122.908 75.2667C122.602 75.1912 122.373 75.1158 122.067 75.0403C121.762 74.9649 121.456 74.8895 121.226 74.7386C120.997 74.5877 120.691 74.5123 120.462 74.3614C120.003 73.9842 119.698 73.5316 119.698 72.9281C119.698 72.3246 119.927 71.7965 120.462 71.3439C120.997 70.8912 121.685 70.6649 122.602 70.6649C123.443 70.6649 124.131 70.8158 124.742 71.0421C124.972 71.1175 125.048 71.2684 125.048 71.4947C125.048 71.5702 124.972 71.7211 124.895 71.7965C124.819 71.8719 124.742 71.9474 124.666 71.9474C124.59 71.9474 124.437 71.9474 124.284 71.8719C123.825 71.7211 123.29 71.6456 122.679 71.6456C122.144 71.6456 121.685 71.7211 121.303 71.9474C120.921 72.1737 120.768 72.4754 120.768 72.8526C120.768 73.2298 120.997 73.607 121.456 73.7579C121.685 73.8333 121.914 73.9088 122.22 73.9842C122.526 74.0596 122.755 74.1351 123.061 74.2105C123.367 74.286 123.672 74.3614 123.902 74.4368C124.131 74.5123 124.437 74.6632 124.666 74.814C125.125 75.1912 125.43 75.6439 125.43 76.3228C125.43 76.9263 125.201 77.4544 124.666 77.8316C124.131 78.2088 123.443 78.4351 122.602 78.4351C121.685 78.4351 120.768 78.2842 120.003 77.907C119.927 77.907 119.851 77.8316 119.774 77.7561C119.698 77.6807 119.698 77.6053 119.698 77.4544C119.698 77.3035 119.774 77.2281 119.851 77.1526C119.927 77.0772 120.003 77.0017 120.156 77.0017C120.309 77.0017 120.386 77.0018 120.539 77.0772C120.691 77.1526 120.921 77.2281 121.303 77.3035C121.685 77.3789 122.067 77.6053 122.526 77.6053Z" fill="black"/>
<path d="M133.227 77.7561C133.227 77.8316 133.303 77.907 133.303 78.0579C133.303 78.2088 133.227 78.2088 133.15 78.3597C133.074 78.5105 132.921 78.5105 132.768 78.5105C132.615 78.5105 132.463 78.4351 132.31 78.2088L131.622 76.5491H127.876L127.188 78.2088C127.112 78.4351 126.959 78.5105 126.73 78.5105C126.501 78.5105 126.424 78.4351 126.348 78.3597C126.271 78.2842 126.195 78.1333 126.195 78.0579C126.195 77.9825 126.195 77.907 126.271 77.7561L129.099 71.193C129.252 70.8912 129.405 70.7404 129.711 70.7404H129.787C130.093 70.7404 130.322 70.8912 130.399 71.193L133.227 77.7561ZM131.24 75.5684L129.711 72.0228L128.182 75.5684H131.24Z" fill="black"/>
<path d="M140.87 70.7403C141.023 70.7403 141.1 70.8157 141.252 70.8912C141.405 70.9666 141.405 71.1175 141.405 71.2684V77.7561C141.405 77.9824 141.329 78.1333 141.176 78.2842C141.023 78.435 140.87 78.5105 140.641 78.5105H140.488C140.259 78.5105 140.029 78.435 139.877 78.2087L135.596 72.0982V77.9824C135.596 78.1333 135.52 78.2087 135.443 78.3596C135.367 78.5105 135.214 78.5105 135.061 78.5105C134.908 78.5105 134.832 78.435 134.679 78.3596C134.526 78.2842 134.526 78.1333 134.526 77.9824V71.4947C134.526 71.2684 134.603 71.1175 134.755 70.9666C134.908 70.8157 135.061 70.7403 135.29 70.7403H135.443C135.673 70.7403 135.902 70.8157 136.055 71.0421L140.259 77.0771V71.1929C140.259 71.042 140.335 70.9666 140.412 70.8157C140.488 70.6649 140.717 70.7403 140.87 70.7403Z" fill="black"/>
<path d="M148.82 70.9667C148.896 71.0421 148.973 71.193 148.973 71.2684C148.973 71.3439 148.896 71.4947 148.82 71.5702C148.743 71.6456 148.59 71.7211 148.514 71.7211H146.297V77.907C146.297 78.0579 146.221 78.1333 146.144 78.2842C146.068 78.4351 145.915 78.4351 145.762 78.4351C145.609 78.4351 145.533 78.3597 145.38 78.2842C145.227 78.2088 145.227 78.0579 145.227 77.907V71.7211H143.011C142.858 71.7211 142.781 71.6456 142.705 71.5702C142.628 71.4947 142.552 71.3439 142.552 71.2684C142.552 71.1175 142.628 71.0421 142.705 70.9667C142.781 70.8912 142.934 70.8158 143.011 70.8158H148.514C148.667 70.8158 148.743 70.8912 148.82 70.9667Z" fill="black"/>
<path d="M156.463 77.7561C156.463 77.8316 156.54 77.907 156.54 78.0579C156.54 78.2088 156.463 78.2088 156.387 78.3597C156.31 78.5105 156.157 78.5105 156.005 78.5105C155.775 78.5105 155.699 78.4351 155.546 78.2088L154.858 76.5491H151.113L150.425 78.2088C150.348 78.4351 150.196 78.5105 149.966 78.5105C149.737 78.5105 149.66 78.4351 149.584 78.3597C149.508 78.2842 149.431 78.1333 149.431 78.0579C149.431 77.9825 149.431 77.907 149.508 77.7561L152.336 71.193C152.489 70.8912 152.641 70.7404 152.947 70.7404H153.024C153.329 70.7404 153.559 70.8912 153.635 71.193L156.463 77.7561ZM154.476 75.5684L152.947 72.0228L151.418 75.5684H154.476Z" fill="black"/>
<path d="M166.17 70.9667C166.323 71.1175 166.4 71.2684 166.4 71.4947V77.9825C166.4 78.1333 166.323 78.2088 166.247 78.3597C166.17 78.5105 166.017 78.5105 165.865 78.5105C165.712 78.5105 165.635 78.4351 165.482 78.3597C165.33 78.2842 165.33 78.1333 165.33 77.9825V71.7965L162.807 77.9825C162.731 78.1333 162.654 78.2088 162.501 78.2842C162.349 78.3597 162.196 78.4351 162.043 78.4351C161.89 78.4351 161.737 78.3597 161.584 78.2842C161.431 78.2088 161.355 78.0579 161.278 77.9825L158.756 71.7965V77.9825C158.756 78.1333 158.68 78.2088 158.603 78.3597C158.527 78.5105 158.374 78.5105 158.221 78.5105C158.068 78.5105 157.992 78.4351 157.839 78.3597C157.686 78.2842 157.686 78.1333 157.686 77.9825V71.4947C157.686 71.2684 157.762 71.1175 157.915 70.9667C158.068 70.8158 158.221 70.7404 158.45 70.7404H158.833C158.985 70.7404 159.138 70.8158 159.215 70.8912C159.291 70.9667 159.444 71.1175 159.52 71.193L162.043 77.3789L164.565 71.193C164.642 71.0421 164.718 70.9667 164.795 70.8912C164.871 70.8158 165.024 70.7404 165.177 70.7404H165.559C165.865 70.7404 166.017 70.8158 166.17 70.9667Z" fill="black"/>
<path d="M174.731 77.7561C174.731 77.8316 174.807 77.907 174.807 78.0579C174.807 78.2088 174.731 78.2088 174.655 78.3597C174.578 78.5105 174.425 78.5105 174.272 78.5105C174.12 78.5105 173.967 78.4351 173.814 78.2088L173.126 76.5491H169.381L168.693 78.2088C168.616 78.4351 168.463 78.5105 168.234 78.5105C168.005 78.5105 167.928 78.4351 167.852 78.3597C167.775 78.2842 167.699 78.1333 167.699 78.0579C167.699 77.9825 167.699 77.907 167.775 77.7561L170.604 71.193C170.756 70.8912 170.909 70.7404 171.215 70.7404H171.291C171.597 70.7404 171.826 70.8912 171.903 71.193L174.731 77.7561ZM172.744 75.5684L171.215 72.0228L169.686 75.5684H172.744Z" fill="black"/>
<path d="M182.145 77.9825C182.145 78.1333 182.069 78.2088 181.993 78.3597C181.916 78.5105 181.763 78.5105 181.61 78.5105C181.457 78.5105 181.305 78.4351 181.228 78.3597C181.152 78.2842 181.075 78.1333 181.075 77.9825V77.6807C181.075 77.0772 180.999 76.7 180.846 76.3983C180.693 76.0965 180.54 75.8702 180.311 75.7193C180.082 75.5684 179.776 75.493 179.317 75.493H177.024V77.9825C177.024 78.1333 176.948 78.2088 176.871 78.3597C176.795 78.4351 176.642 78.5105 176.489 78.5105C176.336 78.5105 176.26 78.4351 176.107 78.3597C175.954 78.2842 175.954 78.1333 175.954 77.9825V71.3439C175.954 71.193 176.031 71.1175 176.107 70.9667C176.183 70.8158 176.336 70.8158 176.489 70.8158H179.088C180.082 70.8158 180.846 71.0421 181.381 71.4193C181.84 71.7965 182.069 72.3246 182.069 73.0035C182.069 73.4562 181.916 73.8333 181.687 74.2105C181.457 74.5877 181.075 74.814 180.617 74.9649C181.152 75.1158 181.534 75.493 181.763 76.0965C181.916 76.4737 181.993 76.9263 181.993 77.4544V77.9825H182.145ZM179.088 74.5123C179.699 74.5123 180.234 74.3614 180.617 74.1351C180.999 73.9088 181.152 73.5316 181.152 73.079C181.152 72.6263 180.999 72.3246 180.693 72.0983C180.311 71.8719 179.776 71.7211 179.012 71.7211H177.101V74.5123H179.088Z" fill="black"/>
<path d="M184.438 70.7404C184.591 70.7404 184.668 70.8158 184.821 70.8912C184.973 70.9667 184.973 71.1175 184.973 71.2684V77.9825C184.973 78.1333 184.897 78.2088 184.821 78.3597C184.744 78.5105 184.591 78.5105 184.438 78.5105C184.285 78.5105 184.209 78.4351 184.056 78.3597C183.903 78.2842 183.903 78.1333 183.903 77.9825V71.2684C183.903 71.1175 183.98 71.0421 184.056 70.8912C184.133 70.7404 184.362 70.7404 184.438 70.7404Z" fill="black"/>
<path d="M193.381 77.7561C193.381 77.8316 193.458 77.907 193.458 78.0579C193.458 78.2088 193.381 78.2088 193.305 78.3597C193.229 78.5105 193.076 78.5105 192.923 78.5105C192.77 78.5105 192.617 78.4351 192.464 78.2088L191.776 76.5491H188.031L187.343 78.2088C187.267 78.4351 187.114 78.5105 186.884 78.5105C186.655 78.5105 186.579 78.4351 186.502 78.3597C186.426 78.2842 186.349 78.1333 186.349 78.0579C186.349 77.9825 186.349 77.907 186.426 77.7561L189.254 71.193C189.407 70.8912 189.56 70.7404 189.865 70.7404H189.942C190.248 70.7404 190.477 70.8912 190.553 71.193L193.381 77.7561ZM191.318 75.5684L189.789 72.0228L188.26 75.5684H191.318Z" fill="black"/>
<path d="M200.184 77.6053C201.484 77.6053 202.095 77.1526 202.095 76.3228C202.095 75.9456 201.866 75.7193 201.331 75.493C201.102 75.4175 200.872 75.3421 200.566 75.2667C200.261 75.1912 200.031 75.1158 199.726 75.0403C199.42 74.9649 199.114 74.8895 198.885 74.7386C198.656 74.5877 198.35 74.5123 198.121 74.3614C197.662 73.9842 197.356 73.5316 197.356 72.9281C197.356 72.3246 197.586 71.7965 198.121 71.3439C198.656 70.8912 199.344 70.6649 200.261 70.6649C201.102 70.6649 201.789 70.8158 202.401 71.0421C202.63 71.1175 202.707 71.2684 202.707 71.4947C202.707 71.5702 202.63 71.7211 202.554 71.7965C202.477 71.8719 202.401 71.9474 202.325 71.9474C202.248 71.9474 202.095 71.9474 201.942 71.8719C201.484 71.7211 200.949 71.6456 200.337 71.6456C199.802 71.6456 199.344 71.7211 198.961 71.9474C198.579 72.1737 198.426 72.4754 198.426 72.8526C198.426 73.2298 198.656 73.607 199.114 73.7579C199.344 73.8333 199.573 73.9088 199.879 73.9842C200.184 74.0596 200.414 74.1351 200.719 74.2105C201.025 74.286 201.331 74.3614 201.56 74.4368C201.789 74.5123 202.095 74.6632 202.325 74.814C202.783 75.1912 203.089 75.6439 203.089 76.3228C203.089 76.9263 202.86 77.4544 202.325 77.8316C201.789 78.2088 201.102 78.4351 200.261 78.4351C199.344 78.4351 198.426 78.2842 197.662 77.907C197.586 77.907 197.509 77.8316 197.433 77.7561C197.356 77.6807 197.356 77.6053 197.356 77.4544C197.356 77.3035 197.433 77.2281 197.509 77.1526C197.585 77.0772 197.662 77.0017 197.815 77.0017C197.968 77.0017 198.044 77.0018 198.197 77.0772C198.35 77.1526 198.579 77.2281 198.961 77.3035C199.344 77.3789 199.649 77.6053 200.184 77.6053Z" fill="black"/>
<path d="M205.382 73.607C205.917 73.079 206.528 72.7772 207.293 72.7772C208.057 72.7772 208.592 73.0035 209.127 73.5316C209.662 74.0597 209.968 74.8141 209.968 75.6439C209.968 76.5492 209.662 77.2281 209.127 77.7562C208.592 78.2842 207.981 78.5106 207.293 78.5106C206.605 78.5106 205.993 78.2088 205.382 77.6807V80.472C205.382 80.6229 205.305 80.6983 205.229 80.8492C205.153 81 205 81 204.847 81C204.694 81 204.618 80.9246 204.465 80.8492C204.312 80.7737 204.312 80.6229 204.312 80.472V73.3053C204.312 73.1544 204.388 73.079 204.465 72.9281C204.541 72.7772 204.694 72.7772 204.847 72.7772C205 72.7772 205.076 72.8527 205.229 72.9281C205.382 73.0035 205.382 73.1544 205.382 73.3053V73.607ZM205.382 76.7755C205.917 77.3035 206.452 77.6053 207.14 77.6053C207.981 77.6053 208.516 77.2281 208.821 76.4737C208.898 76.2474 208.974 75.9457 208.974 75.6439C208.974 75.0404 208.821 74.5123 208.439 74.2106C208.134 73.9088 207.675 73.6825 207.14 73.6825C206.452 73.6825 205.917 73.9842 205.382 74.5123V76.7755Z" fill="black"/>
<path d="M211.573 73.1544C212.184 72.8527 212.796 72.7772 213.484 72.7772C214.248 72.7772 214.783 73.0035 215.242 73.4562C215.624 73.8334 215.777 74.3614 215.777 74.8895V77.9825C215.777 78.1334 215.7 78.2088 215.624 78.3597C215.548 78.5105 215.395 78.5105 215.242 78.5105C215.089 78.5105 215.013 78.4351 214.86 78.3597C214.707 78.2842 214.707 78.1334 214.707 77.9825V77.6807C214.477 77.907 214.248 78.0579 213.942 78.2088C213.637 78.3597 213.178 78.4351 212.643 78.4351C212.108 78.4351 211.726 78.2842 211.344 77.9825C210.961 77.6807 210.809 77.3035 210.809 76.7755C210.809 76.2474 211.038 75.7948 211.42 75.493C211.879 75.1913 212.49 74.9649 213.331 74.9649H214.63V74.8895C214.63 74.4369 214.477 74.0597 214.248 73.8334C214.019 73.607 213.637 73.5316 213.178 73.5316C212.719 73.5316 212.261 73.607 211.726 73.7579C211.649 73.7579 211.573 73.7579 211.497 73.7579C211.42 73.7579 211.344 73.7579 211.267 73.6825C211.191 73.607 211.114 73.4562 211.114 73.3053C211.114 73.1544 211.344 73.2299 211.573 73.1544ZM211.879 76.7755C211.879 77.379 212.261 77.6807 213.025 77.6053C213.331 77.6053 213.713 77.5298 214.019 77.379C214.325 77.2281 214.554 77.0018 214.707 76.8509V75.9456H213.56C213.025 75.9456 212.643 76.0211 212.337 76.172C212.032 76.3228 211.879 76.4737 211.879 76.7755Z" fill="black"/>
</g>
<defs>
<clipPath id="clip0">
<rect width="217" height="86" fill="white"/>
</clipPath>
</defs>
</svg>
