<svg width="41" height="41" viewBox="0 0 41 41" fill="none" xmlns="http://www.w3.org/2000/svg">
<g clip-path="url(#clip0)">
<path d="M30.4694 17.5655C30.2932 17.6075 30.1673 17.7417 29.991 17.7837C29.7728 17.8676 29.5966 17.918 29.3784 17.96C29.1182 18.0019 28.942 17.8257 28.858 17.6075C28.8161 17.3893 28.7741 17.213 28.8161 16.9948C28.858 16.6004 28.9504 16.2059 29.0343 15.8115C29.2525 14.6281 29.4707 13.4112 29.6889 12.2279C29.7309 11.9257 29.8232 11.5733 29.7728 11.2627C29.7728 10.8683 29.5127 10.692 29.1182 10.692C28.5979 10.692 28.0272 10.692 27.4985 10.692C26.9697 10.692 26.4494 10.692 25.971 10.692C25.8367 10.692 25.7109 10.692 25.5766 10.734C25.3584 10.776 25.2241 10.9103 25.1821 11.0865C25.1821 11.2208 25.2661 11.3886 25.4843 11.4809C25.6605 11.5229 25.8367 11.5649 26.0549 11.5649C26.4914 11.6068 26.6256 11.7831 26.6256 12.2195C26.6256 12.3034 26.6256 12.3538 26.6256 12.4377C26.4494 13.4867 26.2732 14.5358 26.0549 15.5849C25.971 16.1975 25.8787 16.8102 25.7948 17.3725C25.6605 18.2453 26.5417 19.0762 27.1963 19.1601C27.5908 19.202 28.0272 19.244 28.4216 19.244C29.2944 19.244 30.0414 18.8496 30.654 18.2369C30.738 18.153 30.8722 17.9767 30.8722 17.8425C30.9058 17.6159 30.7296 17.4396 30.4694 17.5655Z" fill="white"/>
<path d="M37.2003 3.8018C32.1732 -1.26727 23.9989 -1.26727 18.9802 3.8018C14.1293 8.65266 13.9531 16.3905 18.4599 21.4596L18.5438 21.5435C18.0654 22.5926 17.1926 23.9018 15.875 24.5564C15.4386 24.7746 15.5225 25.4292 16.0093 25.5216C17.4947 25.7398 19.5928 25.5216 21.5147 24.0361L21.5567 24.0781C26.4915 26.9651 32.9621 26.3105 37.2003 22.0639C42.2274 17.0032 42.2274 8.8289 37.2003 3.8018ZM28.1112 22.8108C22.6477 22.8108 18.2333 18.3963 18.2333 12.9328C18.2333 7.46932 22.6477 3.06326 28.1112 3.06326C33.5747 3.06326 37.9892 7.47771 37.9892 12.9412C37.9892 18.4047 33.5747 22.8108 28.1112 22.8108Z" fill="white"/>
<path d="M24.2171 30.1542C23.21 29.1051 21.9008 29.1051 20.8517 30.1542C20.0629 30.9431 19.2824 31.7236 18.4935 32.5125C18.2753 32.7307 18.099 32.7727 17.8388 32.6468C17.3605 32.3446 16.7898 32.1264 16.3114 31.8159C14.037 30.3724 12.1152 28.5345 10.4115 26.4447C9.58063 25.3957 8.8421 24.3046 8.31337 23.0374C8.22944 22.7772 8.22944 22.6429 8.44765 22.4247C9.27851 21.6778 10.017 20.8973 10.8059 20.1084C11.897 19.0174 11.897 17.7501 10.8059 16.6591C10.1513 16.0045 9.53867 15.3918 8.92602 14.7792C8.27141 14.1245 7.65875 13.4699 7.00414 12.8573C5.99704 11.8502 4.68781 11.8502 3.63875 12.8573C2.84986 13.6462 2.06936 14.4267 1.28046 15.2156C0.53353 15.9625 0.147475 16.8353 0.0551576 17.834C-0.0791223 19.4538 0.315325 21.0232 0.886014 22.5506C2.06936 25.7398 3.85696 28.4925 5.99704 31.069C8.92602 34.5687 12.4173 37.3214 16.4877 39.2852C18.3256 40.1581 20.2055 40.8546 22.2113 40.9889C23.6548 41.0728 24.8801 40.6868 25.8788 39.5874C26.5335 38.7985 27.3224 38.1439 28.0189 37.4053C29.068 36.3143 29.068 35.0051 28.0189 33.956C26.7517 32.6887 25.4844 31.4215 24.2171 30.1542Z" fill="white"/>
<path d="M28.4136 9.91992C29.3284 9.91992 30.0753 9.17299 30.0753 8.25821C30.0753 7.34343 29.3284 6.55453 28.4136 6.55453C27.4989 6.55453 26.7519 7.30147 26.71 8.21625C26.7519 9.18138 27.4989 9.91992 28.4136 9.91992Z" fill="white"/>
</g>
<defs>
<clipPath id="clip0">
<rect width="41" height="41" fill="white"/>
</clipPath>
</defs>
</svg>
