<svg width="75" height="75" viewBox="0 0 75 75" fill="none" xmlns="http://www.w3.org/2000/svg">
<g clip-path="url(#clip0)">
<path d="M55.7375 32.1321C55.4151 32.2089 55.1848 32.4545 54.8624 32.5313C54.4633 32.6848 54.1409 32.7769 53.7417 32.8537C53.2658 32.9304 52.9434 32.608 52.7899 32.2089C52.7131 31.8097 52.6364 31.4873 52.7131 31.0882C52.7899 30.3666 52.9588 29.6451 53.1123 28.9235C53.5114 26.7589 53.9106 24.5328 54.3098 22.3682C54.3865 21.8155 54.5554 21.1707 54.4633 20.6027C54.4633 19.8811 53.9874 19.5587 53.2658 19.5587C52.314 19.5587 51.27 19.5587 50.3029 19.5587C49.3357 19.5587 48.3838 19.5587 47.5088 19.5587C47.2631 19.5587 47.0329 19.5587 46.7872 19.6355C46.3881 19.7122 46.1424 19.9579 46.0657 20.2803C46.0657 20.5259 46.2192 20.8329 46.6184 21.0018C46.9407 21.0786 47.2631 21.1553 47.6623 21.1553C48.4606 21.2321 48.7062 21.5545 48.7062 22.3528C48.7062 22.5063 48.7062 22.5984 48.7062 22.752C48.3838 24.671 48.0614 26.59 47.6623 28.509C47.5088 29.6297 47.3399 30.7504 47.1864 31.779C46.9407 33.3756 48.5527 34.8955 49.7502 35.049C50.4717 35.1258 51.27 35.2025 51.9916 35.2025C53.5882 35.2025 54.9545 34.481 56.0753 33.3603C56.2288 33.2068 56.4744 32.8844 56.4744 32.6387C56.5358 32.2242 56.2134 31.9018 55.7375 32.1321Z" fill="#E7C700"/>
<path d="M68.0498 6.95451C58.8538 -2.31817 43.9009 -2.31817 34.7203 6.95451C25.8468 15.828 25.5244 29.9827 33.7685 39.2554L33.922 39.4089C33.0469 41.3279 31.4503 43.7228 29.04 44.9203C28.2417 45.3194 28.3952 46.5169 29.2857 46.6858C32.003 47.0849 35.841 46.6858 39.3567 43.9685L39.4334 44.0452C48.4605 49.3263 60.2969 48.1289 68.0498 40.3607C77.2457 31.1034 77.2457 16.1504 68.0498 6.95451ZM51.4234 41.727C41.4292 41.727 33.354 33.6518 33.354 23.6576C33.354 13.6634 41.4292 5.60352 51.4234 5.60352C61.4176 5.60352 69.4929 13.6787 69.4929 23.673C69.4929 33.6672 61.4176 41.727 51.4234 41.727Z" fill="white"/>
<path d="M44.3002 55.1602C42.4579 53.2412 40.063 53.2412 38.144 55.1602C36.7009 56.6033 35.2731 58.0311 33.83 59.4742C33.4309 59.8733 33.1085 59.9501 32.6326 59.7198C31.7575 59.1671 30.7135 58.768 29.8385 58.1999C25.678 55.5594 22.1624 52.1973 19.0459 48.3746C17.5261 46.4556 16.1751 44.4598 15.2079 42.1416C15.0544 41.6657 15.0544 41.4201 15.4535 41.0209C16.9734 39.6546 18.3244 38.2268 19.7675 36.7837C21.7633 34.788 21.7633 32.4698 19.7675 30.474C18.57 29.2766 17.4493 28.1558 16.3286 27.0351C15.1311 25.8377 14.0104 24.6402 12.813 23.5195C10.9707 21.6773 8.57579 21.6773 6.65678 23.5195C5.21368 24.9626 3.78593 26.3904 2.34283 27.8335C0.976493 29.1998 0.270295 30.7964 0.101422 32.6233C-0.144212 35.5863 0.577338 38.4571 1.62128 41.2512C3.78593 47.085 7.05593 52.1205 10.9707 56.8336C16.3286 63.2354 22.7151 68.2709 30.1609 71.8633C33.523 73.4599 36.9619 74.7342 40.631 74.9798C43.2716 75.1333 45.513 74.4271 47.3399 72.416C48.5373 70.9729 49.9804 69.7754 51.2547 68.4244C53.1737 66.4287 53.1737 64.0337 51.2547 62.1147C48.9365 59.7966 46.6183 57.4784 44.3002 55.1602Z" fill="white"/>
<path d="M51.9763 18.1461C53.6497 18.1461 55.0161 16.7797 55.0161 15.1063C55.0161 13.433 53.6497 11.9899 51.9763 11.9899C50.303 11.9899 48.9366 13.3562 48.8599 15.0296C48.9366 16.7951 50.303 18.1461 51.9763 18.1461Z" fill="#E7C700"/>
</g>
<defs>
<clipPath id="clip0">
<rect width="75" height="75" fill="white"/>
</clipPath>
</defs>
</svg>
