<?xml version="1.0" encoding="utf-8"?>
<!-- Generator: Adobe Illustrator 24.1.0, SVG Export Plug-In . SVG Version: 6.00 Build 0)  -->
<svg version="1.1" id="Livello_1" xmlns="http://www.w3.org/2000/svg" xmlns:xlink="http://www.w3.org/1999/xlink" x="0px" y="0px"
	 viewBox="0 0 300 300" style="enable-background:new 0 0 300 300;" xml:space="preserve">
<style type="text/css">
	.st0{fill:#9CC7D6;}
	.st1{fill:#D8735B;}
	.st2{fill:#F7B9A7;}
	.st3{fill:#F5AA99;}
	.st4{fill:#719CBF;}
	.st5{fill:#FFFFFF;}
	.st6{fill:#83E2FF;}
	.st7{fill:#61C0D6;}
	.st8{fill:#F4F4F4;}
	.st9{fill:#6B9FC2;}
	.st10{fill:#60A1C7;}
	.st11{fill:#D3ECF4;}
	.st12{fill:#D2689D;}
	.st13{fill:#89B3D4;}
	.st14{fill:#7A95BB;}
	.st15{fill:#6DB6CC;}
	.st16{fill:#6B767C;}
	.st17{fill:#E7C700;}
	.st18{fill:url(#SVGID_1_);}
	.st19{fill:url(#SVGID_2_);}
	.st20{fill:url(#SVGID_3_);}
	.st21{fill-rule:evenodd;clip-rule:evenodd;fill:url(#SVGID_4_);}
	.st22{fill-rule:evenodd;clip-rule:evenodd;fill:url(#SVGID_5_);}
	.st23{fill-rule:evenodd;clip-rule:evenodd;fill:url(#SVGID_6_);}
	.st24{fill-rule:evenodd;clip-rule:evenodd;fill:url(#SVGID_7_);}
	.st25{opacity:0.2;fill-rule:evenodd;clip-rule:evenodd;enable-background:new    ;}
	.st26{opacity:0.12;fill-rule:evenodd;clip-rule:evenodd;enable-background:new    ;}
	.st27{opacity:0.25;fill-rule:evenodd;clip-rule:evenodd;fill:#FFFFFF;enable-background:new    ;}
</style>
<path class="st0" d="M182.4,341.2c-0.1-0.3-0.2-0.5-0.3-0.8C182.3,340.7,182.3,341,182.4,341.2"/>
<path class="st1" d="M137.9,312.3l-0.1,0.2l-0.2-0.2v0.1l0,0l0,0c-0.1,0.1-0.1,0.2-0.1,0.3l0.1,0.2h0.2h0.1c0.1,0,0.2-0.1,0.2-0.1
	l0,0l0.1-0.1l-0.2-0.2L137.9,312.3"/>
<g>
	<g>
		<path class="st2" d="M-5.9,212.6L-5.9,212.6c0,0.1,0.1,0.1,0.1,0.2l0,0C-5.9,212.7-5.9,212.7-5.9,212.6"/>
	</g>
	<g>
		<path class="st2" d="M-5.8,212.9L-5.8,212.9c0.1,0.1,0.1,0.2,0.2,0.3l0,0C-5.6,213-5.7,212.9-5.8,212.9"/>
	</g>
	<g>
		<path class="st3" d="M-5.8,212.9C-5.8,212.8-5.8,212.8-5.8,212.9C-5.8,212.8-5.8,212.8-5.8,212.9"/>
	</g>
	<g>
		<path class="st3" d="M-2.2,214.7c-0.1-0.1-0.1-0.3-0.2-0.4C-2.4,214.4-2.3,214.5-2.2,214.7"/>
	</g>
	<g>
		<path class="st3" d="M-5.6,213.1L-5.6,213.1L-5.6,213.1"/>
	</g>
	<g>
		<path class="st3" d="M-5.8,212.8L-5.8,212.8L-5.8,212.8L-5.8,212.8L-5.8,212.8"/>
	</g>
	<g>
		<path class="st3" d="M-5.8,212.9c0.1,0.1,0.1,0.2,0.2,0.2C-5.6,213-5.7,212.9-5.8,212.9"/>
	</g>
	<g>
		<path class="st3" d="M-5.9,212.6c0,0.1,0.1,0.1,0.1,0.2C-5.9,212.7-5.9,212.7-5.9,212.6"/>
	</g>
	<g>
		<path class="st3" d="M-1.5,221.1c-0.3-0.6-0.5-1.1-0.7-1.6C-2,220-1.7,220.5-1.5,221.1"/>
	</g>
	<g>
		<path class="st3" d="M-3.4,212.4c0.2,0.3,0.4,0.6,0.5,0.9C-3.1,213.1-3.3,212.7-3.4,212.4"/>
	</g>
	<g>
		<path class="st3" d="M-3.3,217.2c-0.1-0.2-0.2-0.4-0.3-0.6C-3.5,216.8-3.4,217-3.3,217.2"/>
	</g>
	<g>
		<path class="st3" d="M-2.4,219.1c-0.1-0.2-0.2-0.5-0.3-0.7C-2.6,218.7-2.5,218.9-2.4,219.1"/>
	</g>
	<g>
		<path class="st4" d="M197.8,42.7L108.7,42c-4.1,0-7.4,3.3-7.4,7.4l-1.1,203.1c0,4.1,3.3,7.4,7.4,7.4l91.4,0.5
			c4.1,0,7.4-3.3,7.4-7.4l1.1-199.6C207.4,46.3,201.9,42.7,197.8,42.7"/>
	</g>
	<g>
		<path class="st5" d="M195.9,42.5h-90.5c-4,0-7.3,3.3-7.3,7.3v201.3c0,4,3.3,7.3,7.3,7.3h90.5c4,0,7.3-3.3,7.3-7.3V49.8
			C203.2,45.8,199.9,42.5,195.9,42.5"/>
		<path class="st4" d="M195.9,259.4h-90.5c-4.6,0-8.3-3.7-8.3-8.3V49.8c0-4.6,3.7-8.3,8.3-8.3h90.5c4.6,0,8.3,3.7,8.3,8.3v201.3
			C204.2,255.7,200.5,259.4,195.9,259.4z M105.4,43.5c-3.5,0-6.3,2.8-6.3,6.3v201.3c0,3.5,2.8,6.3,6.3,6.3h90.5
			c3.5,0,6.3-2.8,6.3-6.3V49.8c0-3.5-2.8-6.3-6.3-6.3H105.4z"/>
	</g>
	<g>
		<rect x="103.5" y="66.3" class="st6" width="93.9" height="163.2"/>
	</g>
	<g>
		<path class="st7" d="M160.5,53.8c-0.8,0.6-22.4-1.4-21.4,1.3c-1.1,2.7,20.7,0.7,21.4,1.3C162.2,56.4,162.2,53.7,160.5,53.8"/>
	</g>
	<g>
		<path class="st7" d="M166.8,53.8c-1.7,1.6,1,4,2.4,2.4C170.9,54.6,168.3,52.4,166.8,53.8"/>
	</g>
	<g>
		<path class="st8" d="M154.8,235.1c-3.8,0.4-13.4-1.9-13.2,4.5c0.4,3.8-1.9,13.4,4.5,13.2c3.8-0.4,13.4,1.9,13.2-4.5
			C158.9,244.5,161.2,234.9,154.8,235.1"/>
	</g>
	<g>
		<g>
			<path class="st9" d="M107.5,198.9L51.3,199c-4.9,0-10.9-3-10.9-10.2c0.9,8.9,12.1,7.6,18.5,7.5c0,0.1,48.5,0.3,48.6,0.1
				C107.5,196.3,107.3,198.2,107.5,198.9"/>
			<path class="st9" d="M51.3,199.4c-5.6,0-11.3-3.6-11.3-10.6h0.8c0.7,7.6,9.6,7.4,16,7.2c0.7,0,1.4,0,2.1,0h0.4l0,0
				c4.5,0.1,45.6,0.2,48,0.1l0.1-0.1l0.5,0.2v0.4l0,0c0,0.4-0.1,1.8,0,2.3l0.1,0.5L51.3,199.4z M41.8,193.4c1.8,3.6,5.8,5.3,9.5,5.3
				l55.8-0.1c0-0.5,0-1.2,0-1.7c-1.6,0.1-6.8,0.1-23.7,0.1c-0.2,0-22.7-0.1-24.4-0.2l0,0c-0.6,0-1.3,0-2.1,0
				C51.9,196.9,45.1,197.1,41.8,193.4z M107.1,196.4L107.1,196.4L107.1,196.4z"/>
		</g>
		<g>
			<path class="st10" d="M178,216l-14-16.7c0,0-57.2,0-57.5,0v-2.7h68.2c4.9,0,8.9-4,8.9-8.9v-26.3c0-4.5-3.3-8.2-7.6-8.8
				c7.3,0,9.8,6.6,9.8,11.5v26.3c0,4.5-3.3,8.2-7.7,8.8L178,216"/>
		</g>
		<g>
			<polyline class="st11" points="175.9,213.3 175.9,191.7 157.7,191.7 175.9,213.3 			"/>
		</g>
		<g>
			<path class="st12" d="M250.6,105.5L250.6,105.5L250.6,105.5 M250.6,105.5L250.6,105.5L250.6,105.5 M250.6,105.6L250.6,105.6
				L250.6,105.6 M250.6,105.6L250.6,105.6L250.6,105.6 M250.6,105.7L250.6,105.7L250.6,105.7"/>
		</g>
		<g>
			<path class="st11" d="M174.7,152.6H49.1c-4.9,0-8.9,4-8.9,8.9v26.3c0,4.9,4,8.9,8.9,8.9h125.6c4.9,0,8.9-4,8.9-8.9v-26.3
				C183.6,156.6,179.6,152.6,174.7,152.6"/>
		</g>
		<g>
			<polyline class="st13" points="62.4,166.3 62.4,166.3 62.4,166.3 			"/>
		</g>
		<g>
			<path class="st14" d="M88.2,166.3C88.2,166.2,88.2,166.2,88.2,166.3C88.2,166.2,88.2,166.2,88.2,166.3 M88.2,166.3L88.2,166.3
				L88.2,166.3 M88.2,166.4C88.2,166.4,88.2,166.3,88.2,166.4C88.2,166.3,88.2,166.4,88.2,166.4 M88.2,166.4L88.2,166.4L88.2,166.4
				 M88.2,166.5L88.2,166.5L88.2,166.5 M88.2,166.5L88.2,166.5L88.2,166.5 M88.2,166.6L88.2,166.6L88.2,166.6 M88.2,166.6
				L88.2,166.6"/>
		</g>
		<g>
			<path class="st15" d="M164.8,167.6h-49.7c-0.8,0-1.5-0.7-1.5-1.5c-2.5-4.3,50.6-0.9,51.2-1.9
				C166.7,164.2,166.9,167.6,164.8,167.6"/>
		</g>
		<g>
			<path class="st15" d="M164.8,175.6h-49.7c-0.8,0-1.5-0.7-1.5-1.5c-2.5-4.3,50.6-0.9,51.2-1.9
				C166.7,172.2,166.9,175.6,164.8,175.6"/>
		</g>
		<g>
			<path class="st15" d="M164.8,183h-49.7c-0.8,0-1.5-0.7-1.5-1.5c-2.5-4.3,50.6-0.9,51.2-1.9C166.8,179.6,166.9,183.1,164.8,183"/>
		</g>
		<g>
			<path class="st16" d="M104,166c-0.1-2.1-3.6-1.7-5-2c-1.9-0.8-1.6-3.8-3-5.4c0-0.7,2-2.9,2.4-3.5c1.7-2.1-5.2-9.2-7.3-7.3
				c-4.1,3.9-4.3,1.5-8.8,0.2c-1.4-4.5,0.4-6.3-5.8-6c-6.3-0.2-4.9,0.9-6.1,5.9c-0.4,0,2.7,7.2,2.6,7.3c23.7-4.2,23.7,32.6,0,28.4
				l-2.7,7.2h0.1c1.5,4.5-0.5,6.3,5.8,6c6.6,0.2,4.7-1,6.2-6c1.8-0.5,3.5-1.2,5-2.1c0.8-0.1,3,2,3.7,2.4c2.1,1.7,9.1-5.1,7.3-7.2
				c-3.9-4-1.5-4.2-0.3-8.5c0.6-0.6,3.5-0.6,4.3-0.8C105.7,173.5,103.9,168.6,104,166z"/>
		</g>
		<g>
			<path class="st17" d="M72.9,183.6c-3.8-0.8-7.3-3.2-9.3-6.5h11.1c1,0,2.2-4.9,2.7-5.5c0.9-1.7-15.5-0.5-15.8-0.8
				c-0.1-1-0.1-2,0-3c0.6-0.4,17.5,0.9,17.1-0.8c-0.1-0.7,3.2-5.5,1.1-5.5h-16c2.1-3.2,5.5-5.9,9.3-6.6l-2.7-7.2
				c-7,1.8-12.7,7.1-15.3,13.8h-3.7c-1,0-2.2,5-2.7,5.6c-0.1,1.5,4.3,0.6,5,0.8c0,1-0.1,2,0.1,3h-2.4c-1,0-2.2,4.8-2.7,5.4
				c-0.1,1.6,5.7,0.5,6.4,0.8c2.4,6.7,8.3,12,15.2,13.7L72.9,183.6z"/>
		</g>
	</g>
	<g>
		<g>
			
				<linearGradient id="SVGID_1_" gradientUnits="userSpaceOnUse" x1="351.3" y1="357.9527" x2="351.3" y2="315.2571" gradientTransform="matrix(1 0 0 1 -147.5 -271)">
				<stop  offset="0" style="stop-color:#0030C4"/>
				<stop  offset="1" style="stop-color:#11C5FC"/>
			</linearGradient>
			<circle class="st18" cx="203.8" cy="65.6" r="21.3"/>
			
				<linearGradient id="SVGID_2_" gradientUnits="userSpaceOnUse" x1="351.3" y1="356.2" x2="351.3" y2="316.9476" gradientTransform="matrix(1 0 0 1 -147.5 -271)">
				<stop  offset="0" style="stop-color:#1665F0"/>
				<stop  offset="1" style="stop-color:#13C6FC"/>
			</linearGradient>
			<circle class="st19" cx="203.8" cy="65.6" r="19.6"/>
			
				<linearGradient id="SVGID_3_" gradientUnits="userSpaceOnUse" x1="351.3" y1="322.5289" x2="351.3" y2="360.3275" gradientTransform="matrix(1 0 0 1 -147.5 -271)">
				<stop  offset="0" style="stop-color:#EEEEEE"/>
				<stop  offset="1" style="stop-color:#D0D0CD"/>
			</linearGradient>
			<path class="st20" d="M203.8,53.8l0.8-1.4c0.5-0.8,1.6-1.1,2.4-0.6c0.8,0.5,1.1,1.6,0.6,2.4l-7.5,13h5.4c1.8,0,2.8,2.1,2,3.5h-16
				c-1,0-1.8-0.8-1.8-1.8s0.8-1.8,1.8-1.8h4.5l5.7-9.9l-1.8-3.1c-0.5-0.8-0.2-1.9,0.6-2.4s1.9-0.2,2.4,0.6L203.8,53.8L203.8,53.8z
				 M197,72.5l-1.7,2.9c-0.5,0.8-1.6,1.1-2.4,0.6s-1.1-1.6-0.6-2.4l1.3-2.2C194.9,71.1,196.1,71.4,197,72.5L197,72.5z M211.5,67.2
				h4.6c1,0,1.8,0.8,1.8,1.8s-0.8,1.8-1.8,1.8h-2.5l1.7,3c0.5,0.8,0.2,1.9-0.6,2.4s-1.9,0.2-2.4-0.6c-2.9-5-5.1-8.7-6.5-11.2
				c-1.5-2.5-0.4-5.1,0.6-5.9C207.5,60.2,209.2,63.2,211.5,67.2L211.5,67.2z"/>
		</g>
	</g>
	<g>
		<g>
			
				<linearGradient id="SVGID_4_" gradientUnits="userSpaceOnUse" x1="2846.2871" y1="1493.1796" x2="2843.9885" y2="1491.993" gradientTransform="matrix(11.64 0 0 -22.55 -32924.5 33772.1641)">
				<stop  offset="0" style="stop-color:#00A0FF"/>
				<stop  offset="6.569999e-03" style="stop-color:#00A1FF"/>
				<stop  offset="0.2601" style="stop-color:#00BEFF"/>
				<stop  offset="0.5122" style="stop-color:#00D2FF"/>
				<stop  offset="0.7604" style="stop-color:#00DFFF"/>
				<stop  offset="1" style="stop-color:#00E3FF"/>
			</linearGradient>
			<path class="st21" d="M188.2,99.1c-0.5,0.5-0.7,1.3-0.7,2.2v35.3c0,1,0.3,1.8,0.7,2.2l0.1,0.1l19.8-19.8v-0.4L188.3,99
				L188.2,99.1z"/>
			
				<linearGradient id="SVGID_5_" gradientUnits="userSpaceOnUse" x1="2782.9709" y1="1495.7345" x2="2778.7527" y2="1495.7345" gradientTransform="matrix(9.145 0 0 -7.7 -25224.8027 11636.1055)">
				<stop  offset="0" style="stop-color:#FFE000"/>
				<stop  offset="0.4087" style="stop-color:#FFBD00"/>
				<stop  offset="0.7754" style="stop-color:#FFA500"/>
				<stop  offset="1" style="stop-color:#FF9C00"/>
			</linearGradient>
			<path class="st22" d="M214.6,125.8l-6.6-6.6v-0.5l6.6-6.6l0.1,0.1l7.8,4.4c2.2,1.3,2.2,3.3,0,4.6l-7.8,4.4
				C214.8,125.7,214.6,125.8,214.6,125.8z"/>
			
				<linearGradient id="SVGID_6_" gradientUnits="userSpaceOnUse" x1="2899.4875" y1="1494.2178" x2="2897.0718" y2="1491.0839" gradientTransform="matrix(15.02 0 0 -11.5775 -43339.1836 17421.9375)">
				<stop  offset="0" style="stop-color:#FF3A44"/>
				<stop  offset="1" style="stop-color:#C31162"/>
			</linearGradient>
			<path class="st23" d="M214.8,125.7L208,119l-19.9,19.9c0.7,0.8,1.9,0.9,3.3,0.1L214.8,125.7"/>
			
				<linearGradient id="SVGID_7_" gradientUnits="userSpaceOnUse" x1="2897.626" y1="1496.2651" x2="2898.7046" y2="1494.865" gradientTransform="matrix(15.02 0 0 -11.5715 -43339.1836 17401.3906)">
				<stop  offset="0" style="stop-color:#32A071"/>
				<stop  offset="6.850000e-02" style="stop-color:#2DA771"/>
				<stop  offset="0.4762" style="stop-color:#15CF74"/>
				<stop  offset="0.8009" style="stop-color:#06E775"/>
				<stop  offset="1" style="stop-color:#00F076"/>
			</linearGradient>
			<path class="st24" d="M214.8,112.2L191.5,99c-1.4-0.8-2.6-0.7-3.3,0.1L208,119L214.8,112.2z"/>
			<path class="st25" d="M214.6,125.6l-23.1,13.1c-1.3,0.7-2.4,0.7-3.2,0l-0.1,0.1l0.1,0.1c0.7,0.7,1.9,0.7,3.2,0l23.3-13.2
				L214.6,125.6z"/>
			<path class="st26" d="M222.6,121l-8,4.5l0.1,0.1l7.8-4.4c1.1-0.6,1.7-1.5,1.7-2.3C224.1,119.7,223.6,120.5,222.6,121z"/>
			<path class="st27" d="M191.5,99.2l31.1,17.7c1,0.6,1.6,1.3,1.7,2.1c0-0.8-0.5-1.7-1.7-2.3L191.5,99c-2.2-1.3-4-0.2-4,2.3v0.2
				C187.4,99,189.2,98,191.5,99.2z"/>
		</g>
	</g>
</g>
</svg>
