<svg width="76" height="76" viewBox="0 0 76 76" fill="none" xmlns="http://www.w3.org/2000/svg">
<g clip-path="url(#clip0)">
<path d="M75.8941 40.5803C75.6217 38.613 73.5938 37.0391 69.7953 35.8889C66.7232 34.9658 62.8339 34.4059 58.5966 34.3151V18.1677C58.5966 17.8348 58.4906 17.517 58.2788 17.2597C57.7794 15.5042 55.7515 14.0817 52.2405 13.0224C48.8355 11.9933 44.3863 11.4333 39.7101 11.4333C35.049 11.4333 30.6452 11.9933 27.3158 13.0224C24.5767 13.8698 21.2927 15.4437 21.2927 18.1526C21.2927 18.3191 21.3078 18.4855 21.3381 18.652L21.5046 25.5528C11.683 23.6611 2.19434 30.1231 0.317802 39.9598C0.105934 41.0646 0 42.1996 0 43.3346C0 53.3226 8.12664 61.4493 18.1147 61.4493C22.2764 61.4493 26.3019 60.0116 29.5404 57.3935C32.3855 58.0594 35.7149 58.4226 39.2409 58.4529C40.0127 62.6448 49.0928 64.5667 57.5675 64.5667C62.2286 64.5667 66.6173 63.9917 69.9769 62.9475C72.7312 62.1 76 60.511 76 57.8021V41.1705C76 40.9738 75.9697 40.7619 75.8941 40.5803ZM28.2238 15.9128C31.2808 14.9746 35.3668 14.4449 39.7252 14.4449C44.0534 14.4449 48.2907 14.9746 51.3779 15.9128C54.6619 16.9116 55.3732 17.9407 55.3732 18.1526C55.3732 18.3645 54.6619 19.4087 51.3628 20.3923C48.2907 21.3155 44.0534 21.8603 39.7252 21.8603C35.5484 21.8603 31.5834 21.376 28.5719 20.4983C25.3182 19.56 24.4102 18.5158 24.3345 18.1829C24.3345 18.1526 24.3345 18.1374 24.3194 18.1374C24.3345 17.9256 25.0307 16.8965 28.2238 15.9128ZM55.5699 21.9359V25.8101C55.4337 26.022 55.358 26.2792 55.3732 26.5365C55.3732 26.7332 54.6619 27.7774 51.3628 28.7762C48.2907 29.6994 44.0382 30.2442 39.7101 30.2442C35.9721 30.2442 32.3098 29.8507 29.4042 29.1092C29.3588 29.094 29.3286 29.094 29.2832 29.0789C27.8455 27.9439 26.2565 27.051 24.5464 26.4003L24.4405 22.1327C25.4847 22.6623 26.5743 23.0861 27.7093 23.3887C30.9932 24.3421 35.2457 24.8567 39.7101 24.8567C44.3863 24.8567 48.8355 24.2967 52.2254 23.2677C53.3907 22.9499 54.5106 22.4959 55.5699 21.9359ZM28.2692 54.4879C22.1099 60.1024 12.5607 59.6484 6.96137 53.4891C1.36201 47.3298 1.80088 37.7806 7.96017 32.1813C10.7447 29.654 14.3616 28.2466 18.1147 28.2466C19.628 28.2466 21.1414 28.4736 22.5942 28.9124C27.8303 30.562 31.7802 34.9053 32.9152 40.2776C33.1119 41.2764 33.2178 42.3055 33.2178 43.3194C33.2178 47.5871 31.417 51.6428 28.2692 54.4879ZM32.1131 54.8208C33.3389 53.3226 34.3226 51.6428 35.0187 49.8419C36.3051 49.9479 37.6671 50.0235 39.0593 50.0387V50.3111L39.135 55.4413C36.7893 55.411 34.4436 55.1992 32.1131 54.8208ZM36.1386 41.5337C37.0315 41.5942 37.9546 41.6245 38.8929 41.6396C38.8929 41.6699 38.908 41.7153 38.908 41.7456L38.9988 46.9969C37.9243 46.9817 36.8801 46.9363 35.8662 46.8607C36.0932 45.6954 36.2143 44.4999 36.2143 43.3194C36.2294 42.7292 36.1991 42.139 36.1386 41.5337ZM39.8614 38.6281C39.816 38.6281 39.7706 38.6281 39.7252 38.6281C38.2724 38.6281 36.865 38.5676 35.5635 38.4768C34.9884 36.4489 34.0804 34.5421 32.8546 32.8471C35.1246 33.1347 37.4098 33.286 39.7101 33.286C44.3863 33.286 48.8355 32.7261 52.2405 31.697C53.4058 31.3338 54.5106 30.8949 55.5699 30.335V34.3453C49.0625 34.5269 42.3433 35.8889 39.8614 38.6281ZM41.8893 40.9586C42.0406 40.5349 43.1454 39.5512 46.2477 38.6735C49.1987 37.8412 53.0426 37.3871 57.0832 37.3871H57.28C61.6081 37.3871 65.8455 37.8865 68.9327 38.8248C72.1258 39.7934 72.8825 40.7619 72.9279 41.0192V41.0343C72.9128 41.2613 72.1561 42.3055 68.7965 43.3043C65.6941 44.2274 61.6081 44.7269 57.28 44.7269C53.1939 44.7269 49.2895 44.2577 46.2931 43.4254C43.4026 42.6082 42.2374 41.685 41.9498 41.2159C41.9347 41.1251 41.9195 41.0343 41.8893 40.9586ZM72.9733 57.8021C72.9733 58.014 72.2923 59.0582 69.084 60.057C66.0119 61.0104 61.9259 61.5401 57.5675 61.5401C53.1939 61.5401 49.1079 61.0255 46.0812 60.1024C42.873 59.1187 42.2222 58.1048 42.2222 57.8778C42.2222 57.8627 42.2222 57.8627 42.2222 57.8475L42.1466 53.474C45.7483 55.3051 51.7563 56.1374 57.2648 56.1374C61.9411 56.1374 66.36 55.5775 69.7499 54.5484C70.8698 54.2155 71.9442 53.7615 72.9733 53.2167V57.8021ZM72.8371 49.4182C72.8371 49.6301 72.141 50.6591 68.8722 51.658C65.7698 52.5962 61.6535 53.1108 57.2648 53.1108C48.9566 53.1108 43.327 51.2494 42.086 49.7814L42.0558 48.4799L41.9952 45.0144C43.1 45.5743 44.2501 46.0132 45.4456 46.331C48.6993 47.239 52.8913 47.7535 57.2497 47.7535C61.8503 47.7535 66.2389 47.2087 69.6137 46.2099C70.779 45.877 71.8988 45.4381 72.9582 44.8782V48.7675H72.9733C72.9733 48.9642 72.8371 49.1912 72.8371 49.4182Z" fill="#E7C700"/>
<path d="M25.6664 51.4158C25.3637 50.6289 24.5011 50.2506 23.7142 50.5381C23.7142 50.523 23.7142 50.523 23.7142 50.523C20.8539 51.6126 17.6305 50.9164 15.4816 48.7524C15.0427 48.3589 14.6795 47.8898 14.4071 47.3752H22.1857C23.018 47.3752 23.699 46.6942 23.699 45.8619C23.699 45.0295 23.018 44.3485 22.1857 44.3485H13.3024C13.2116 43.8037 13.1964 43.2438 13.257 42.6839H22.9726C23.805 42.6839 24.486 42.0029 24.486 41.1705C24.486 40.3382 23.805 39.6572 22.9726 39.6572H14.1498C14.513 39.0064 14.9519 38.4162 15.4664 37.8714C17.6305 35.7225 20.8539 35.0264 23.699 36.1311C24.486 36.4338 25.3486 36.0403 25.6512 35.2685C25.9539 34.4816 25.5604 33.619 24.7886 33.3163C20.8237 31.7878 16.3291 32.7412 13.3175 35.7528C12.1976 36.8575 11.3502 38.1892 10.8205 39.6723H8.67154C7.83921 39.6723 7.1582 40.3533 7.1582 41.1857C7.1582 42.018 7.83921 42.699 8.67154 42.699H10.1849C10.1546 43.2589 10.1546 43.8037 10.2152 44.3637H8.67154C7.83921 44.3637 7.1582 45.0447 7.1582 45.877C7.1582 46.7093 7.83921 47.3903 8.67154 47.3903H10.987C11.5015 48.707 12.3036 49.9176 13.3175 50.9164C16.3139 53.928 20.8085 54.8965 24.7886 53.368C25.5756 53.0654 25.9539 52.2028 25.6664 51.4158Z" fill="#E7C700"/>
</g>
<defs>
<clipPath id="clip0">
<rect width="76" height="76" fill="white"/>
</clipPath>
</defs>
</svg>
