<svg width="80" height="80" viewBox="0 0 80 80" fill="none" xmlns="http://www.w3.org/2000/svg">
<path d="M70.5811 37.0718C67.8589 35.7108 62.755 35.6951 62.5391 35.6951C61.8919 35.6951 61.3672 36.2198 61.3672 36.8669C61.3672 37.5141 61.8919 38.0388 62.5391 38.0388C63.8561 38.039 67.68 38.2418 69.533 39.1682C69.7013 39.2524 69.88 39.2921 70.0561 39.2921C70.4859 39.2921 70.8999 39.0546 71.1052 38.6441C71.3947 38.0652 71.16 37.3613 70.5811 37.0718Z" fill="#E7C700"/>
<path d="M76.4238 53.7566L71.5839 52.3738C71.375 52.3141 71.2291 52.1207 71.2291 51.9033V50.2878C71.6228 50.015 71.9984 49.7097 72.3495 49.3689C74.0511 47.7177 74.9881 45.5028 74.9881 43.1322V40.903L75.4561 39.9672C75.9697 38.9399 76.2411 37.7897 76.2411 36.6413V30.6022C76.2411 29.955 75.7164 29.4303 75.0692 29.4303H63.7922C59.6916 29.4303 56.3553 32.7666 56.3553 36.8672V36.9371C56.3553 37.8921 56.5811 38.8485 57.0081 39.7025L57.6083 40.9028V42.8169C57.6083 45.8503 59.1031 48.5721 61.3673 50.2099L61.3677 51.903C61.3677 52.1641 61.3677 52.2722 60.4 52.5488L58.0384 53.2235L51.207 50.7394C51.2316 50.4171 51.1228 50.0892 50.8877 49.8422L48.7047 47.5488V43.6988C48.9355 43.5086 49.163 43.3133 49.3834 43.1067C52.1373 40.5255 53.7167 36.8811 53.7167 33.1082V30.0335C54.5483 28.2239 54.9697 26.3091 54.9697 24.3371V11.8074C54.9697 11.1602 54.445 10.6355 53.7978 10.6355H36.2558C30.0823 10.6355 25.06 15.658 25.06 21.8313V24.3374C25.06 26.3094 25.4814 28.2242 26.313 30.0338V32.6792C26.313 37.0599 28.2608 41.0064 31.325 43.6083V47.5489L29.142 49.8424C28.9069 50.0894 28.7981 50.4172 28.8227 50.7396L21.6125 53.3613C21.09 53.5513 20.6045 53.8086 20.1637 54.1203L19.0316 53.5542C22.4019 52.0872 23.4695 50.0239 23.5208 49.9214C23.6858 49.5916 23.6858 49.2032 23.5208 48.8733C22.6759 47.1836 22.5736 44.0866 22.4914 41.5982C22.4641 40.7697 22.4381 39.9871 22.3886 39.2902C21.9891 33.6692 17.7159 29.4303 12.4487 29.4303C7.18156 29.4303 2.90828 33.6691 2.50891 39.2902C2.45937 39.9872 2.43344 40.7699 2.40609 41.5985C2.32391 44.0867 2.22141 47.1835 1.37672 48.8731C1.21172 49.203 1.21172 49.5914 1.37672 49.9213C1.42797 50.0238 2.49344 52.0828 5.87047 53.5516L2.72563 55.1239C1.04437 55.9652 0 57.655 0 59.5346V68.1922C0 68.8394 0.524687 69.3641 1.17188 69.3641C1.81906 69.3641 2.34375 68.8394 2.34375 68.1922V59.5346C2.34375 58.5483 2.89172 57.6616 3.77375 57.2205L7.68984 55.2625L9.05203 56.5571C10.0045 57.4622 11.2264 57.9146 12.4487 57.9146C13.6708 57.9146 14.8933 57.4619 15.8455 56.5571L17.2075 55.2627L18.4844 55.9011C17.8831 56.8632 17.5419 57.9913 17.5419 59.173V68.1925C17.5419 68.8397 18.0666 69.3644 18.7137 69.3644C19.3609 69.3644 19.8856 68.8397 19.8856 68.1925V59.173C19.8856 57.5642 20.9014 56.1139 22.4134 55.5641L30.0153 52.7999L33.1798 57.5469C33.5844 58.1538 34.2327 58.543 34.9584 58.6149C35.0394 58.6228 35.1198 58.6267 35.2002 58.6267C35.8405 58.6267 36.4538 58.3747 36.9122 57.9164L38.8428 55.9858V68.1927C38.8428 68.8399 39.3675 69.3646 40.0147 69.3646C40.6619 69.3646 41.1866 68.8399 41.1866 68.1927V55.9858L43.1172 57.9164C43.5755 58.3749 44.1888 58.6269 44.8292 58.6269C44.9094 58.6269 44.99 58.623 45.0708 58.615C45.7967 58.5432 46.445 58.1539 46.8495 57.5471L50.0142 52.8002L57.6159 55.5644C59.1278 56.1142 60.1438 57.5646 60.1438 59.1733V68.1928C60.1438 68.84 60.6684 69.3647 61.3156 69.3647C61.9628 69.3647 62.4875 68.84 62.4875 68.1928V59.1733C62.4875 57.5439 61.8402 56.0158 60.7542 54.8857L61.0437 54.803C61.3358 54.7196 61.7342 54.6053 62.1342 54.4092L65.1263 57.4013V68.1928C65.1263 68.84 65.6509 69.3647 66.2981 69.3647C66.9453 69.3647 67.47 68.84 67.47 68.1928V57.4013L70.4413 54.43C70.5992 54.5103 70.7652 54.5782 70.9398 54.628L75.7798 56.0108C76.8845 56.3264 77.6562 57.3494 77.6562 58.4985V68.1928C77.6562 68.84 78.1809 69.3647 78.8281 69.3647C79.4753 69.3647 80 68.84 80 68.1928V58.4985C80 56.3082 78.5294 54.3583 76.4238 53.7566ZM7.51797 51.6867C5.32594 50.898 4.22641 49.8464 3.75703 49.2722C4.07703 48.4357 4.28453 47.4775 4.425 46.4661C5.07125 48.0157 6.15359 49.3385 7.51797 50.2822V51.6867ZM14.2313 54.8583C13.2317 55.808 11.6659 55.8078 10.6667 54.8582L9.57687 53.8225C9.76078 53.478 9.86188 53.0874 9.86188 52.6782V51.4291C10.6794 51.6846 11.5484 51.8224 12.4491 51.8224C13.3486 51.8224 14.2172 51.6839 15.0361 51.4299L15.0359 52.678C15.0359 53.0874 15.1369 53.4782 15.3209 53.8228L14.2313 54.8583ZM12.4494 49.4786C8.95 49.4786 6.10328 46.6317 6.10328 43.1325C6.10328 42.4853 5.57859 41.9607 4.93141 41.9607C4.86578 41.9607 4.80172 41.9674 4.73906 41.9778C4.7425 41.8771 4.74578 41.7761 4.74922 41.6763C4.77531 40.8705 4.80047 40.1094 4.84688 39.4566C4.99656 37.351 5.83797 35.4107 7.21609 33.9928C8.60656 32.5622 10.465 31.7744 12.4491 31.7744C14.4331 31.7744 16.2914 32.5622 17.682 33.9928C19.0602 35.4107 19.9016 37.351 20.0513 39.4566C20.0975 40.1092 20.1228 40.8702 20.1494 41.6758C20.1517 41.745 20.1541 41.8152 20.1564 41.8849C18.8814 39.9205 16.9123 38.4728 14.3681 37.6553C12.0177 36.9002 9.99609 36.9469 9.91078 36.9491C9.60391 36.9577 9.31266 37.0861 9.09969 37.3071L6.98531 39.4999C6.53609 39.9658 6.54953 40.7077 7.01547 41.1569C7.48141 41.6061 8.22328 41.5925 8.6725 41.1267L10.4319 39.3022C11.947 39.3763 16.8216 39.9432 18.7173 44.1177C18.2403 47.1939 15.5963 49.4786 12.4494 49.4786ZM17.3795 51.6907L17.3797 50.293C18.743 49.3544 19.8269 48.0341 20.4736 46.4728C20.6141 47.4819 20.8214 48.4378 21.1408 49.2725C20.6741 49.8413 19.5694 50.9022 17.3795 51.6907ZM28.6567 32.6791V29.7716C28.6567 29.5952 28.6169 29.421 28.5402 29.2621C27.7861 27.7005 27.4038 26.0436 27.4038 24.3374V21.8314C27.4038 16.9503 31.3748 12.9794 36.2558 12.9794H52.6259V24.3375C52.6259 26.0438 52.2436 27.7007 51.4895 29.2622C51.4128 29.4211 51.373 29.5953 51.373 29.7717V33.1085C51.373 36.2821 50.0972 39.2257 47.7806 41.3971C47.4914 41.668 47.1912 41.9221 46.8809 42.1588C46.8741 42.1635 46.8675 42.1686 46.8608 42.1735C44.6906 43.8211 42.0325 44.6219 39.2566 44.4421C33.3127 44.0572 28.6567 38.8903 28.6567 32.6791ZM35.255 56.2589C35.2469 56.2671 35.228 56.2863 35.1897 56.2822C35.1516 56.2785 35.1366 56.2561 35.1302 56.2464L31.4856 50.7796L32.6584 49.5472L38.1873 53.3264L35.255 56.2589ZM40.0148 51.7366L33.6688 47.3988V45.2113C35.3108 46.0989 37.1494 46.6541 39.1048 46.7807C39.4137 46.8007 39.7208 46.8105 40.0269 46.8105C42.2677 46.8105 44.4242 46.2749 46.3609 45.2582V47.3988L40.0148 51.7366ZM44.8995 56.2467C44.8931 56.2564 44.8781 56.2788 44.84 56.2825C44.8017 56.2874 44.783 56.2672 44.7747 56.2592L41.8423 53.3269L47.3713 49.5475L48.5442 50.7799L44.8995 56.2467ZM66.2981 55.258L63.6387 52.5988C63.6852 52.388 63.7114 52.1572 63.7113 51.9027L63.7111 51.4081C64.4491 51.6503 65.2269 51.7941 66.0317 51.8182C66.122 51.821 66.2116 51.8222 66.3016 51.8222C67.1909 51.8222 68.0591 51.6878 68.8853 51.4314V51.9033C68.8853 52.1371 68.9147 52.3661 68.97 52.5863L66.2981 55.258ZM70.7173 47.6871C69.4753 48.8924 67.8345 49.5289 66.1022 49.4755C62.7109 49.3738 59.952 46.3867 59.952 42.8172V40.6264C59.952 40.4444 59.9097 40.265 59.8283 40.1024L59.1044 38.6546C58.8392 38.1241 58.6991 37.5303 58.6991 36.9372V36.8674C58.6991 34.0589 60.9839 31.7742 63.7922 31.7742H73.8973V36.6414C73.8973 37.428 73.7114 38.2157 73.3597 38.9192L72.7681 40.1024C72.6867 40.2652 72.6444 40.4444 72.6444 40.6264V43.1324C72.6444 44.8636 71.96 46.4811 70.7173 47.6871Z" fill="#E7C700"/>
<path d="M73.8159 59.5022C73.1687 59.5022 72.644 60.0269 72.644 60.6741V68.192C72.644 68.8392 73.1687 69.3639 73.8159 69.3639C74.4631 69.3639 74.9878 68.8392 74.9878 68.192V60.6741C74.9878 60.027 74.4631 59.5022 73.8159 59.5022Z" fill="#E7C700"/>
<path d="M6.18408 61.0513C5.53689 61.0513 5.01221 61.576 5.01221 62.2231V68.192C5.01221 68.8392 5.53689 69.3639 6.18408 69.3639C6.83127 69.3639 7.35596 68.8392 7.35596 68.192V62.2231C7.35596 61.5761 6.83127 61.0513 6.18408 61.0513Z" fill="#E7C700"/>
<path d="M49.6143 24.7616C45.1821 20.3294 35.9088 21.1767 32.1272 21.7467C30.9362 21.9262 30.0718 22.9342 30.0718 24.1434V26.8431C30.0718 27.4903 30.5965 28.015 31.2437 28.015C31.8908 28.015 32.4155 27.4903 32.4155 26.8431V24.1433C32.4155 24.1034 32.4418 24.0694 32.4768 24.0641C33.9872 23.8364 36.9846 23.4852 40.0901 23.6922C43.7444 23.9355 46.3913 24.8528 47.9571 26.4187C48.4148 26.8764 49.1568 26.8764 49.6143 26.4187C50.0719 25.9611 50.0719 25.2191 49.6143 24.7616Z" fill="#E7C700"/>
<path d="M26.2319 62.0083C25.5847 62.0083 25.0601 62.533 25.0601 63.1802V68.1922C25.0601 68.8394 25.5847 69.3641 26.2319 69.3641C26.8791 69.3641 27.4038 68.8394 27.4038 68.1922V63.1802C27.4038 62.5331 26.8791 62.0083 26.2319 62.0083Z" fill="#E7C700"/>
<path d="M53.7979 62.0083C53.1507 62.0083 52.626 62.533 52.626 63.1802V68.1922C52.626 68.8394 53.1507 69.3641 53.7979 69.3641C54.445 69.3641 54.9697 68.8394 54.9697 68.1922V63.1802C54.9697 62.5331 54.445 62.0083 53.7979 62.0083Z" fill="#E7C700"/>
</svg>
