<svg width="56" height="56" viewBox="0 0 56 56" fill="none" xmlns="http://www.w3.org/2000/svg">
<g clip-path="url(#clip0)">
<path d="M55.7578 1.68826C55.6732 0.925625 55.0713 0.323208 54.3082 0.238614C41.325 -1.20334 30.2577 3.99026 21.2299 13.2833C18.6464 15.9429 16.4055 18.758 14.4927 21.4749C11.2555 21.3433 7.66617 22.8079 5.12149 25.3526L0.480746 29.9933C-0.0443389 30.5184 -0.15115 31.331 0.220126 31.974C0.591403 32.617 1.34806 32.9302 2.06583 32.7384C3.14249 32.4491 4.89206 32.1129 6.57285 32.0347C7.18723 32.0061 7.69779 32.015 8.12204 32.0475C7.09793 34.0171 6.31308 35.6671 6.05289 36.0803C5.6453 36.7288 5.73972 37.5727 6.28147 38.1144L8.96671 40.7996C5.05869 46.1295 4.99417 48.8592 5.00785 49.2459C5.03647 50.0649 5.6752 50.8322 6.73307 50.8322C7.64908 50.8322 10.2762 50.4434 15.0588 46.8918L17.8833 49.7163C18.4289 50.2619 19.2813 50.3533 19.9307 49.9363C20.3725 49.6522 21.9255 48.9002 23.7879 47.927C23.8186 49.3151 23.6302 51.3535 23.2213 54.1165C22.9889 55.6836 24.894 56.627 26.0044 55.517L30.6452 50.8762C33.0382 48.4832 34.4259 44.929 34.3233 41.5948C37.1855 39.5948 40.1629 37.2356 42.943 34.5093C52.1476 25.4829 57.1814 14.4992 55.7578 1.68826ZM52.6193 3.37674C52.8812 6.91433 52.6018 10.3434 51.7879 13.6618C49.7666 13.0252 47.7906 11.7747 46.0059 9.99051C44.2149 8.19906 42.9618 6.21493 42.3278 4.18637C45.6449 3.38443 49.0761 3.1127 52.6193 3.37674ZM6.3588 28.756L7.44144 27.6729C8.75095 26.3639 10.454 25.4209 12.1476 24.9971C11.2627 26.4015 10.474 27.7426 9.77847 28.9803C8.70395 28.7432 7.50937 28.6992 6.3588 28.756ZM9.46359 36.6562C9.81864 35.9555 10.248 35.0771 11.0363 33.5877L13.196 35.7479C12.3924 36.6101 11.6669 37.4291 11.0132 38.2054L9.46359 36.6562ZM17.4868 36.0286C18.6823 34.8336 19.8286 34.6153 21.2526 34.5845C21.2214 35.9722 20.9988 37.1574 19.8072 38.349C14.7136 43.4426 11.2221 45.7173 9.13419 46.7324C10.1643 44.6043 12.4449 41.0705 17.4868 36.0286ZM19.3321 46.5247L17.6402 44.8324C18.4127 44.1762 19.2292 43.4486 20.0905 42.6419L22.3895 44.9409C20.8779 45.748 20.2473 46.0518 19.3321 46.5247ZM28.3244 48.5559L27.011 49.8697C27.1174 48.2782 27.0807 47.1186 26.9303 46.224C28.1368 45.5446 29.4472 44.7743 30.8203 43.9126C30.429 45.6472 29.5493 47.3314 28.3244 48.5559ZM25.3764 43.2875L22.4348 40.3455C24.6116 37.9503 24.5304 35.6424 24.5304 32.946C24.5304 32.0398 23.796 31.3054 22.8898 31.3054C20.3708 31.3054 17.9466 31.1704 15.4903 33.4015L12.6812 30.5923C20.352 17.1413 29.2186 8.62545 39.1807 5.11862C39.9694 7.67056 41.5045 10.1294 43.686 12.3109C45.8573 14.4826 48.3045 16.0138 50.8454 16.8055C47.318 26.7129 38.8043 35.574 25.3764 43.2875Z" fill="#E7C700"/>
<path d="M41.3656 14.6307C38.1668 11.4323 32.9621 11.4323 29.7638 14.6307C26.5654 17.8295 26.5654 23.0342 29.7638 26.2326C32.9621 29.4309 38.1668 29.4314 41.3656 26.2326C44.564 23.0342 44.564 17.8295 41.3656 14.6307ZM39.0453 23.9122C37.1261 25.8314 34.0029 25.8314 32.0841 23.9122C30.1649 21.993 30.1649 18.8703 32.0841 16.9511C34.0029 15.0323 37.1256 15.0319 39.0453 16.9511C40.9644 18.8703 40.9644 21.993 39.0453 23.9122Z" fill="#E7C700"/>
</g>
<defs>
<clipPath id="clip0">
<rect width="56" height="56" fill="white"/>
</clipPath>
</defs>
</svg>
