<svg width="60" height="60" viewBox="0 0 60 60" fill="none" xmlns="http://www.w3.org/2000/svg">
<g clip-path="url(#clip0)">
<path d="M58.8028 17.3975L46.5892 5.18393C45.8159 4.41065 44.788 3.98486 43.6945 3.98486C42.601 3.98486 41.573 4.41065 40.8 5.18393L37.9297 8.05394C37.4881 8.49562 37.1733 9.01514 36.9758 9.56781L23.5466 7.16354C23.5457 7.16332 23.5445 7.16332 23.5436 7.16309C17.5054 5.96447 11.6099 9.8901 10.3922 15.929L9.77282 19.0015C9.08874 22.3944 11.2928 25.7111 14.6858 26.3952C18.0789 27.0788 21.3956 24.8752 22.0797 21.4822L22.4583 19.6034L28.4804 20.13L44.207 35.8566L47.0572 38.7068C47.6344 39.284 47.6342 40.2232 47.0572 40.8004C46.4803 41.3773 45.5411 41.3775 44.9639 40.8004L37.329 33.1654C36.7972 32.6336 35.9347 32.6336 35.4031 33.1654C34.8713 33.6972 34.8713 34.5594 35.4031 35.0912L43.0381 42.7262C43.3177 43.0058 43.4716 43.3776 43.4716 43.773C43.4716 44.1683 43.3177 44.5399 43.0381 44.8195C42.4607 45.3967 41.5217 45.3965 40.9448 44.8195L33.3098 37.1845C32.778 36.6528 31.9156 36.6528 31.384 37.1845C30.8522 37.7163 30.8522 38.5786 31.384 39.1104L39.019 46.7453C39.5961 47.3223 39.5961 48.2615 39.019 48.8386C38.7393 49.1183 38.3676 49.2721 37.9724 49.2721C37.577 49.2721 37.2053 49.1183 36.9256 48.8386L29.2907 41.2037C28.7589 40.6719 27.8964 40.6719 27.3649 41.2037C26.8331 41.7355 26.8331 42.5977 27.3649 43.1295L34.9998 50.7645C35.577 51.3416 35.5768 52.2808 34.9998 52.858C34.4229 53.435 33.4837 53.4352 32.9065 52.858L5.89213 25.8441L2.32466 22.2766C1.79287 21.7448 0.930397 21.7448 0.398839 22.2766C-0.132946 22.8084 -0.132946 23.6707 0.398839 24.2024L3.96631 27.7699L7.84859 31.6522L5.70852 33.7923C5.00787 34.4929 4.6218 35.4246 4.6218 36.4158C4.6218 37.407 5.00764 38.3387 5.70852 39.0393L6.4069 39.7377C7.01948 40.3503 7.80865 40.722 8.65955 40.806C8.74353 41.6569 9.1153 42.4461 9.72788 43.0585L10.4263 43.7571C11.0552 44.386 11.8557 44.7407 12.6785 44.8227C12.7618 45.6745 13.134 46.4648 13.7473 47.0778L14.4456 47.7762C15.0582 48.3888 15.8474 48.7606 16.6983 48.8445C16.7823 49.6954 17.154 50.4846 17.7666 51.0972L18.465 51.7956C19.1883 52.5189 20.1384 52.8805 21.0885 52.8805C22.0386 52.8805 22.9887 52.5189 23.712 51.7956L25.8521 49.6555L30.9804 54.7838C31.7746 55.578 32.8302 56.0151 33.953 56.0151C35.0758 56.0151 36.1317 55.5778 36.9256 54.7838C37.6778 54.0317 38.105 53.0437 38.1483 51.9874C39.2048 51.944 40.1926 51.5169 40.945 50.7647C41.7203 49.9894 42.1241 48.9841 42.1661 47.9664C43.1836 47.9244 44.189 47.5206 44.9641 46.7455C45.7395 45.9702 46.1432 44.965 46.1852 43.9473C47.2029 43.9053 48.2084 43.5015 48.9835 42.7262C50.6227 41.087 50.6227 38.4202 48.9835 36.781L47.0963 34.8938L54.0013 27.9887L58.803 23.187C60.3988 21.5907 60.3988 18.9935 58.8028 17.3975ZM7.63434 37.1133C7.24963 36.7286 7.24963 36.1028 7.63434 35.7181L9.64118 33.7113L11.7347 35.8048L9.72788 37.8116C9.3434 38.1964 8.7172 38.1961 8.33272 37.8116L7.63434 37.1133ZM11.6537 41.1326C11.269 40.7479 11.269 40.1222 11.6537 39.7377L13.6606 37.7309L15.7541 39.8244L13.7475 41.8312C13.3628 42.2157 12.7366 42.216 12.3523 41.8312L11.6537 41.1326ZM15.6728 45.152C15.4865 44.9657 15.3839 44.7178 15.3839 44.4545C15.3839 44.1912 15.4865 43.9434 15.6728 43.7571L17.6797 41.7502L19.773 43.8435L17.7662 45.8504C17.3817 46.2349 16.7557 46.2349 16.3712 45.8504L15.6728 45.152ZM21.7858 49.8698C21.4013 50.2545 20.7751 50.2542 20.3906 49.8698L19.6922 49.1714C19.3075 48.7867 19.3075 48.1609 19.6922 47.7762L21.6991 45.7694L23.7926 47.8629L21.7858 49.8698ZM45.17 32.9677L30.0558 17.8535C29.8293 17.627 29.5306 17.4876 29.2115 17.4599L21.4825 16.7842C21.4424 16.7806 21.4024 16.779 21.3629 16.779C20.7208 16.779 20.1582 17.2318 20.029 17.8719L19.4096 20.9443C19.0224 22.8649 17.1459 24.1123 15.2239 23.7254C14.2936 23.5379 13.4917 22.9991 12.9665 22.2085C12.4413 21.418 12.2552 20.4702 12.4429 19.5396L13.0623 16.4674C13.9851 11.8897 18.4582 8.91505 23.0377 9.83904C23.0472 9.84085 23.057 9.8429 23.0668 9.84448L36.3003 12.2138L37.9297 13.8432L51.1122 27.0257L45.17 32.9677ZM56.8768 21.261L53.0378 25.0999L39.8553 11.9174C39.5966 11.6586 39.454 11.3146 39.454 10.9485C39.454 10.5824 39.5966 10.2385 39.8553 9.97953L42.7256 7.1093C42.9843 6.85056 43.3284 6.70802 43.6943 6.70802C44.0601 6.70802 44.4042 6.85056 44.6632 7.1093L56.8768 19.3229C57.1355 19.5816 57.278 19.9257 57.278 20.2918C57.278 20.6579 57.1355 21.0022 56.8768 21.261Z" fill="#E7C700"/>
<path d="M53.5801 22.1946C54.3322 22.1946 54.9419 21.5849 54.9419 20.8328C54.9419 20.0806 54.3322 19.4709 53.5801 19.4709C52.828 19.4709 52.2183 20.0806 52.2183 20.8328C52.2183 21.5849 52.828 22.1946 53.5801 22.1946Z" fill="#E7C700"/>
</g>
<defs>
<clipPath id="clip0">
<rect width="60" height="60" fill="white"/>
</clipPath>
</defs>
</svg>
