<svg width="58" height="58" viewBox="0 0 58 58" fill="none" xmlns="http://www.w3.org/2000/svg">
<g clip-path="url(#clip0)">
<path d="M53.5341 9.39567C51.5777 8.91865 49.7869 7.90886 48.3541 6.47648C46.9217 5.04365 45.9119 3.2524 45.4349 1.29653L45.119 0H12.8839L12.5675 1.29653C12.0905 3.2524 11.0812 5.04365 9.64835 6.47648C8.21597 7.90886 6.42472 8.91865 4.46841 9.39567L3.17188 9.71206V21.3167C3.17188 29.2751 5.56582 36.9406 10.0948 43.4852C14.6234 50.0294 20.9543 54.9704 28.4025 57.7745L29.0012 58.0002L29.5999 57.7745C37.0482 54.9704 43.3786 50.0294 47.9076 43.4852C52.4366 36.941 54.8301 29.2751 54.8301 21.3167V9.71162L53.5341 9.39567ZM51.4322 21.3163C51.4322 28.5804 49.2471 35.5777 45.1137 41.551C41.1015 47.3483 35.5405 51.7676 29.0012 54.3628C22.4624 51.7676 16.9014 47.3483 12.8892 41.551C8.75538 35.5777 6.5703 28.5804 6.5703 21.3163V12.3153C8.6244 11.6033 10.4997 10.4311 12.0516 8.87927C13.6034 7.32741 14.7756 5.45252 15.4872 3.39842H42.5153C43.2268 5.45252 44.3995 7.32741 45.9513 8.87927C47.5032 10.4311 49.3781 11.6033 51.4322 12.3153V21.3163Z" fill="#E7C700"/>
<path d="M40.7417 7.64024L40.2501 6.79639H17.7528L17.2612 7.64024C16.4877 8.96775 15.5434 10.193 14.4544 11.282C13.3654 12.3715 12.1397 13.3153 10.8126 14.0888L9.96875 14.5805V21.3162C9.96875 27.8861 11.945 34.2148 15.6837 39.6173C18.8755 44.2291 23.2279 47.9368 28.2707 50.3387L29.0012 50.687L29.7318 50.3387C34.7746 47.9368 39.127 44.2291 42.3193 39.6168C46.058 34.2143 48.0342 27.8861 48.0342 21.3162V14.5805L47.1903 14.0888C45.8628 13.3153 44.6375 12.371 43.5485 11.282C42.4595 10.193 41.5152 8.96775 40.7417 7.64024ZM44.6358 21.3162C44.6358 27.1922 42.8684 32.8519 39.5249 37.6836C36.8256 41.5838 33.1993 44.7601 29.0012 46.9097C24.8037 44.7601 21.1774 41.5838 18.4781 37.6836C15.1341 32.8519 13.3672 27.1922 13.3672 21.3162V16.5067C14.6248 15.6934 15.7952 14.7468 16.8572 13.6853C17.9192 12.6233 18.8653 11.4528 19.679 10.1948H38.3239C39.1377 11.4528 40.0837 12.6233 41.1453 13.6853C42.2073 14.7473 43.3782 15.6934 44.6358 16.5071V21.3162Z" fill="#E7C700"/>
<path d="M29.0013 16.6514C25.2656 16.6514 22.2261 19.6909 22.2261 23.4266C22.2261 26.5759 24.3859 29.23 27.302 29.9858V36.1167H30.7005V29.9858C33.6166 29.23 35.7764 26.5759 35.7764 23.4266C35.7764 19.6909 32.7373 16.6514 29.0013 16.6514ZM29.0013 26.8033C27.1392 26.8033 25.6245 25.2886 25.6245 23.4266C25.6245 21.5645 27.1392 20.0498 29.0013 20.0498C30.8633 20.0498 32.3785 21.5645 32.3785 23.4266C32.3785 25.2886 30.8633 26.8033 29.0013 26.8033Z" fill="#E7C700"/>
</g>
<defs>
<clipPath id="clip0">
<rect width="58" height="58" fill="white"/>
</clipPath>
</defs>
</svg>
