<svg width="74" height="74" viewBox="0 0 74 74" fill="none" xmlns="http://www.w3.org/2000/svg">
<path d="M52.141 41.8071C54.6596 38.486 55.9908 34.5219 55.9908 30.3432C55.9908 25.2198 53.9814 20.417 50.3327 16.8194C46.6847 13.2227 41.8496 11.2803 36.7255 11.3543C31.7599 11.4246 27.0816 13.4171 23.5524 16.9649C20.0233 20.5124 18.055 25.2013 18.0098 30.1674C17.9712 34.4248 19.3102 38.4602 21.8821 41.8375C26.0572 47.3201 28.3566 54.0359 28.3566 60.7478V68.0919C28.3566 71.3496 31.0069 73.9998 34.2646 73.9998H39.7598C43.0175 73.9998 45.6677 71.3494 45.6677 68.0919V60.7483C45.6679 53.9622 47.8901 47.4123 52.141 41.8071ZM23.8192 40.3624C21.5779 37.4192 20.4109 33.9015 20.4445 30.1897C20.5255 21.2724 27.8445 13.9151 36.7599 13.789C41.2324 13.729 45.4431 15.4179 48.6232 18.5535C51.8042 21.6898 53.556 25.8769 53.556 30.3434C53.556 33.9862 52.3959 37.4416 50.2009 40.336C45.722 46.2421 43.3103 53.1324 43.2116 60.2904H30.7881C30.6863 53.2019 28.2206 46.1421 23.8192 40.3624ZM30.7915 67.2668V66.2812L43.2331 67.7066V68.0919C43.2331 68.2948 43.212 68.4925 43.1785 68.6859L30.7915 67.2668ZM30.7915 63.8305V62.7252H43.2331V65.2558L30.7915 63.8305ZM34.2646 71.5652C32.9567 71.5652 31.8164 70.8379 31.2241 69.7671L41.7048 70.9678C41.1495 71.3446 40.4801 71.565 39.76 71.565H34.2646V71.5652Z" fill="#E7C700"/>
<path d="M24.9611 32.1746C24.8662 31.5375 24.8209 30.883 24.8269 30.2295C24.8331 29.5571 24.293 29.0072 23.6207 29.001C22.9529 28.9952 22.3984 29.5349 22.3922 30.2072C22.3851 30.988 22.4391 31.7707 22.5529 32.5338C22.643 33.138 23.1624 33.5719 23.7556 33.5719C23.8153 33.5719 23.8759 33.5675 23.9367 33.5584C24.6016 33.4591 25.0603 32.8396 24.9611 32.1746Z" fill="#E7C700"/>
<path d="M32.1257 50.6665C32.2517 50.6665 32.3799 50.6467 32.5062 50.6053C33.1449 50.3953 33.4925 49.7072 33.2824 49.0686C31.9332 44.9656 29.9223 41.1429 27.3057 37.707C26.8733 37.139 26.49 36.534 26.1668 35.9086C25.8581 35.3112 25.1236 35.0775 24.5262 35.3862C23.929 35.695 23.6951 36.4295 24.0039 37.0268C24.3918 37.7771 24.8509 38.5022 25.3687 39.1822C27.8207 42.402 29.7051 45.9841 30.9695 49.8291C31.138 50.3415 31.6141 50.6665 32.1257 50.6665Z" fill="#E7C700"/>
<path d="M49.7918 34.512C49.1743 34.246 48.458 34.531 48.1921 35.1485C47.8064 36.0442 47.3073 36.8985 46.7086 37.6877C46.3023 38.2234 46.4074 38.9871 46.943 39.3934C47.163 39.5602 47.4214 39.6408 47.6777 39.6408C48.0457 39.6408 48.4093 39.4747 48.6487 39.1588C49.366 38.213 49.9646 37.1877 50.4282 36.1117C50.6943 35.4942 50.4094 34.7779 49.7918 34.512Z" fill="#E7C700"/>
<path d="M36.9999 18.1702C43.7123 18.1702 49.1731 23.6312 49.1731 30.3436C49.1731 30.7252 49.1556 31.1098 49.121 31.4865C49.0597 32.1561 49.5525 32.7486 50.2221 32.8101C50.2599 32.8135 50.2974 32.8153 50.3347 32.8153C50.9569 32.8153 51.4877 32.3408 51.5456 31.7091C51.5869 31.2586 51.608 30.7993 51.608 30.3436C51.608 22.2887 45.0548 15.7354 36.9999 15.7354C36.3276 15.7354 35.7825 16.2804 35.7825 16.9528C35.7825 17.6251 36.3276 18.1702 36.9999 18.1702Z" fill="#E7C700"/>
<path d="M36.9999 9.25242C37.6722 9.25242 38.2173 8.70734 38.2173 8.035V1.21742C38.2173 0.545081 37.6722 0 36.9999 0C36.3275 0 35.7825 0.545081 35.7825 1.21742V8.035C35.7825 8.70734 36.3275 9.25242 36.9999 9.25242Z" fill="#E7C700"/>
<path d="M24.6835 11.6581C24.9091 12.0488 25.3181 12.2671 25.7389 12.2671C25.9454 12.2671 26.1548 12.2145 26.3465 12.1038C26.9287 11.7676 27.1284 11.023 26.7922 10.4408L23.385 4.53872C23.0487 3.95631 22.3043 3.75681 21.722 4.09298C21.1398 4.42916 20.9401 5.17373 21.2763 5.75598L24.6835 11.6581Z" fill="#E7C700"/>
<path d="M63.0169 44.1704L57.1149 40.7632C56.5325 40.4269 55.7879 40.6265 55.4519 41.209C55.1157 41.7912 55.3152 42.5358 55.8976 42.872L61.7997 46.2791C61.9914 46.3898 62.2006 46.4424 62.4073 46.4424C62.828 46.4424 63.2372 46.2239 63.4627 45.8334C63.7989 45.2511 63.5992 44.5065 63.0169 44.1704Z" fill="#E7C700"/>
<path d="M10.9828 16.9408L16.8849 20.348C17.0766 20.4587 17.2858 20.5113 17.4925 20.5113C17.9132 20.5113 18.3224 20.2928 18.5479 19.9022C18.8841 19.32 18.6846 18.5754 18.1021 18.2392L12.2001 14.8321C11.6178 14.4957 10.8732 14.6954 10.5371 15.2778C10.2009 15.8601 10.4004 16.6045 10.9828 16.9408Z" fill="#E7C700"/>
<path d="M66.338 29.3384H59.5204C58.8481 29.3384 58.303 29.8835 58.303 30.5558C58.303 31.2281 58.8481 31.7732 59.5204 31.7732H66.338C67.0103 31.7732 67.5554 31.2281 67.5554 30.5558C67.5554 29.8835 67.0105 29.3384 66.338 29.3384Z" fill="#E7C700"/>
<path d="M15.6965 30.5558C15.6965 29.8835 15.1514 29.3384 14.4791 29.3384H7.66151C6.98917 29.3384 6.44409 29.8835 6.44409 30.5558C6.44409 31.2281 6.98917 31.7732 7.66151 31.7732H14.4791C15.1516 31.7732 15.6965 31.2281 15.6965 30.5558Z" fill="#E7C700"/>
<path d="M56.5073 20.5116C56.7137 20.5116 56.9231 20.4591 57.1148 20.3484L63.0169 16.9412C63.5992 16.605 63.7988 15.8604 63.4626 15.2782C63.1265 14.6959 62.3817 14.4963 61.7996 14.8325L55.8976 18.2396C55.3153 18.5758 55.1157 19.3204 55.4518 19.9026C55.6773 20.2932 56.0867 20.5116 56.5073 20.5116Z" fill="#E7C700"/>
<path d="M16.8848 40.7636L10.9828 44.1708C10.4005 44.5069 10.2009 45.2515 10.537 45.8338C10.7625 46.2243 11.1717 46.4428 11.5925 46.4428C11.7989 46.4428 12.0083 46.3902 12.2 46.2795L18.1021 42.8724C18.6844 42.5362 18.884 41.7916 18.5478 41.2094C18.2118 40.627 17.4668 40.4275 16.8848 40.7636Z" fill="#E7C700"/>
<path d="M47.6532 12.1038C47.8449 12.2145 48.0541 12.2671 48.2608 12.2671C48.6815 12.2671 49.0907 12.0486 49.3162 11.6581L52.7234 5.75598C53.0595 5.17373 52.8599 4.42916 52.2776 4.09298C51.6955 3.75681 50.9508 3.95631 50.6146 4.53872L47.2075 10.4408C46.8713 11.023 47.0709 11.7676 47.6532 12.1038Z" fill="#E7C700"/>
</svg>
