<?xml version="1.0" encoding="utf-8"?>
<!-- Generator: Adobe Illustrator 24.1.0, SVG Export Plug-In . SVG Version: 6.00 Build 0)  -->
<svg version="1.1" id="Livello_1" xmlns="http://www.w3.org/2000/svg" xmlns:xlink="http://www.w3.org/1999/xlink" x="0px" y="0px"
	 viewBox="0 0 300 300" style="enable-background:new 0 0 300 300;" xml:space="preserve">
<style type="text/css">
	.st0{fill:#729DBF;}
	.st1{fill:#FFFFFF;stroke:#729DBF;stroke-width:2;stroke-miterlimit:10;}
	.st2{clip-path:url(#SVGID_2_);fill:url(#SVGID_3_);}
	.st3{clip-path:url(#SVGID_5_);fill:url(#SVGID_6_);}
	.st4{fill:#72BD81;}
	.st5{fill:#FFFFFF;}
	.st6{fill:#EBEBF7;}
	.st7{clip-path:url(#SVGID_8_);fill:url(#SVGID_9_);}
	.st8{fill:#E4E4E4;}
	.st9{fill:#E8E9E8;}
	.st10{fill:#9ED5DC;}
	.st11{fill:#A1D7DE;}
	.st12{fill:#5690AD;}
	.st13{fill:#E4E399;}
	.st14{fill:#EAEBEB;}
	.st15{fill:#ABDAE0;}
	.st16{fill:#AEDBE2;}
	.st17{fill:#E8E7A6;}
	.st18{fill:url(#SVGID_10_);}
	.st19{fill:#D3D3D3;}
</style>
<path class="st0" d="M171.5,56.8c-0.6-6.8-6.1-9.9-10-9.5L76.3,54c-3.9,0.3-6.8,3.7-6.5,7.6l15.7,194.1c0.3,3.9,3.7,6.8,7.6,6.5
	l87.3-7c3.9-0.3,6.8-3.7,6.5-7.6L171.5,56.8"/>
<path class="st1" d="M168.2,53.2c-0.3-3.9-3.7-6.8-7.6-6.5l-87.3,7c-3.9,0.3-6.8,3.7-6.5,7.6l15.7,194.1c0.3,3.9,3.7,6.8,7.6,6.5
	l87.3-7.1c3.9-0.3,6.8-3.7,6.5-7.6L168.2,53.2"/>
<g>
	<defs>
		<polyline id="SVGID_1_" points="85.4,234.8 72.7,77.4 163.3,70.1 171.9,176.2 163.3,70.4 151.4,95.6 84.6,101 151.4,95.6 
			128.6,144 85.7,234.8 85.4,234.8 		"/>
	</defs>
	<clipPath id="SVGID_2_">
		<use xlink:href="#SVGID_1_"  style="overflow:visible;"/>
	</clipPath>
	
		<linearGradient id="SVGID_3_" gradientUnits="userSpaceOnUse" x1="-1097.1073" y1="1149.304" x2="-1096.8424" y2="1149.304" gradientTransform="matrix(342.011 -27.6051 -27.6051 -342.011 407028.4688 362944.75)">
		<stop  offset="0" style="stop-color:#70C2EA"/>
		<stop  offset="1" style="stop-color:#9ED7EB"/>
	</linearGradient>
	<polygon class="st2" points="59.5,71.1 171.3,62.1 185.1,233.7 73.4,242.8 	"/>
</g>
<g>
	<defs>
		<polyline id="SVGID_4_" points="85.7,234.8 128.6,144 157.6,141.6 153.9,95.4 151.4,95.6 163.3,70.4 176.1,227.5 85.7,234.8 		"/>
	</defs>
	<clipPath id="SVGID_5_">
		<use xlink:href="#SVGID_4_"  style="overflow:visible;"/>
	</clipPath>
	
		<linearGradient id="SVGID_6_" gradientUnits="userSpaceOnUse" x1="-1097.1073" y1="1149.3015" x2="-1096.8424" y2="1149.3015" gradientTransform="matrix(342.011 -27.6051 -27.6051 -342.011 407028.4688 362944.75)">
		<stop  offset="0" style="stop-color:#6AB3E3"/>
		<stop  offset="1" style="stop-color:#93C7E6"/>
	</linearGradient>
	<polygon class="st3" points="72.5,71.5 175.5,63.2 189.2,233.7 86.2,242 	"/>
</g>
<path class="st4" d="M158.9,185.7c-0.2-2.9-2.7-5-5.6-4.7l-54.5,4.4c-2.9,0.2-5,2.7-4.7,5.6l1.4,17.3c0.2,2.9,2.7,5,5.6,4.7
	l54.5-4.4c2.9-0.2,5-2.7,4.7-5.6L158.9,185.7"/>
<g>
	<path class="st5" d="M104.8,205.7c-0.2-0.2-0.4-0.5-0.4-0.9l-0.8-11c0-0.4,0.1-0.7,0.3-0.9c0.2-0.2,0.5-0.4,0.8-0.4
		c0.4,0,0.7,0.1,0.9,0.3c0.2,0.2,0.4,0.5,0.4,0.8l0.8,11c0,0.4-0.1,0.7-0.3,0.9c-0.2,0.2-0.5,0.4-0.9,0.4
		C105.4,206,105.1,205.9,104.8,205.7z"/>
	<path class="st5" d="M119.6,191.7c0.2,0.2,0.3,0.5,0.4,0.8l0.8,11c0,0.4-0.1,0.7-0.3,0.9c-0.2,0.2-0.5,0.4-0.8,0.4
		c-0.4,0-0.7-0.1-1-0.4l-7.5-8.4l0.6,8.1c0,0.4,0,0.7-0.2,0.9c-0.2,0.2-0.4,0.4-0.8,0.4c-0.3,0-0.6-0.1-0.9-0.3
		c-0.2-0.2-0.3-0.5-0.4-0.9l-0.8-11c0-0.4,0.1-0.7,0.3-0.9c0.2-0.2,0.5-0.4,0.8-0.4c0.4,0,0.7,0.1,0.9,0.4l7.5,8.3l-0.6-8.1
		c0-0.4,0.1-0.7,0.2-0.9c0.2-0.2,0.5-0.4,0.8-0.4C119.1,191.4,119.4,191.5,119.6,191.7z"/>
	<path class="st5" d="M133.4,190.3c0.3,0,0.6,0.1,0.9,0.2c0.3,0.2,0.4,0.4,0.4,0.7c0,0.1,0,0.3-0.1,0.5l-4.3,11.6
		c-0.1,0.2-0.3,0.4-0.5,0.6c-0.2,0.1-0.5,0.2-0.7,0.3c-0.3,0-0.5,0-0.8-0.1c-0.2-0.1-0.4-0.3-0.6-0.5l-6-10.8
		c-0.1-0.2-0.1-0.3-0.1-0.4c0-0.3,0.1-0.6,0.3-0.8c0.2-0.2,0.5-0.3,0.8-0.4c0.2,0,0.4,0,0.6,0.1c0.2,0.1,0.3,0.2,0.5,0.4l5,9.2
		l3.6-9.9C132.6,190.6,132.9,190.4,133.4,190.3z"/>
	<path class="st5" d="M137.5,203.2c-0.2-0.2-0.4-0.5-0.4-0.9l-0.8-11c0-0.4,0.1-0.7,0.3-0.9c0.2-0.2,0.5-0.4,0.8-0.4
		c0.4,0,0.7,0.1,0.9,0.3c0.2,0.2,0.4,0.5,0.4,0.8l0.8,11c0,0.4-0.1,0.7-0.3,0.9c-0.2,0.2-0.5,0.4-0.9,0.4
		C138,203.5,137.7,203.4,137.5,203.2z"/>
	<path class="st5" d="M154.4,201.1c0,0.3-0.1,0.5-0.3,0.8c-0.2,0.2-0.5,0.3-0.8,0.4c-0.2,0-0.4,0-0.6-0.1c-0.2-0.1-0.3-0.2-0.5-0.5
		l-1.3-2.4l-6.6,0.5l-0.9,2.6c-0.1,0.2-0.2,0.4-0.4,0.5c-0.2,0.1-0.4,0.2-0.6,0.2c-0.3,0-0.6-0.1-0.8-0.2c-0.3-0.2-0.4-0.4-0.4-0.7
		c0-0.2,0-0.3,0.1-0.5l4.3-11.5c0.1-0.3,0.3-0.5,0.5-0.6c0.2-0.1,0.5-0.2,0.7-0.3c0.3,0,0.5,0,0.8,0.1c0.2,0.1,0.4,0.3,0.6,0.5
		l6,10.7C154.4,200.8,154.4,201,154.4,201.1z M145.1,197.8l4.9-0.4l-2.9-5.4L145.1,197.8z"/>
</g>
<path class="st0" d="M126.8,60.8l-19.4,1.6c-0.7,0.1-1.2,0.7-1.2,1.4c0.1,0.7,0.7,1.2,1.4,1.2l19.4-1.6c0.7-0.1,1.2-0.7,1.2-1.4
	C128.1,61.3,127.5,60.8,126.8,60.8"/>
<polyline class="st6" points="85.5,235.2 85.7,234.8 176.1,227.5 171.9,176.2 176.1,227.8 85.5,235.2 "/>
<path class="st0" d="M135.2,60.2c-0.7-0.6-1.8-0.5-2.4,0.2s-0.5,1.8,0.2,2.4c0.7,0.6,1.8,0.5,2.4-0.2
	C135.9,61.9,135.9,60.8,135.2,60.2"/>
<g>
	<defs>
		<polyline id="SVGID_7_" points="84.9,105.6 84.9,105.6 84.6,101 84.9,105.6 		"/>
	</defs>
	<clipPath id="SVGID_8_">
		<use xlink:href="#SVGID_7_"  style="overflow:visible;"/>
	</clipPath>
	
		<linearGradient id="SVGID_9_" gradientUnits="userSpaceOnUse" x1="-1097.1073" y1="1149.4554" x2="-1096.8424" y2="1149.4554" gradientTransform="matrix(342.011 -27.6051 -27.6051 -342.011 407028.4688 362944.75)">
		<stop  offset="0" style="stop-color:#7BADD7"/>
		<stop  offset="1" style="stop-color:#A2BFD7"/>
	</linearGradient>
	<polygon class="st7" points="84.2,101 84.9,101 85.3,105.6 84.6,105.7 	"/>
</g>
<path class="st5" d="M147.8,291.9c0,0,0-0.1,0-0.1C147.8,291.8,147.8,291.9,147.8,291.9"/>
<path class="st8" d="M158.8,124.6l-0.5-5.8l5.2-7.7l0.5,5.8L158.8,124.6 M82.7,148.9l-4.5-56l44.6-3.6l-4.3,6.3l-34.1,2.7l3.4,42.7
	L82.7,148.9 M128.2,163.5l4.2-6.2l4.6-0.4l-4.2,6.2L128.2,163.5"/>
<path class="st9" d="M158.3,118.9l-0.3-3.2l5.2-7.7l0.3,3.2L158.3,118.9 M125.7,163.7l4.2-6.2l2.6-0.2l-4.2,6.2L125.7,163.7"/>
<path class="st10" d="M157,127.3l-2.8-2.3l4.2-6.2l0.5,5.8L157,127.3 M87.9,141.1l-3.4-42.7l34.1-2.7l-10,14.9c0-0.2,0-0.4,0-0.7
	c-0.3-3.6-3.5-6.2-7.2-5.9c0,0,0,0,0,0c-3.7,0.3-6.4,3.4-6.2,7c0.3,3.6,3.5,6.2,7.2,5.9c0,0,0,0,0,0c0.8-0.1,1.6-0.3,2.3-0.6
	L87.9,141.1"/>
<polyline class="st11" points="154.1,125.1 152.6,123.8 158.1,115.7 158.3,118.9 154.1,125.1 "/>
<polyline class="st12" points="129.8,157.5 152.6,123.8 157,127.3 137,157 132.4,157.3 "/>
<path class="st13" d="M102.3,116.9c-3.7,0.3-6.9-2.4-7.2-5.9c-0.3-3.6,2.5-6.7,6.2-7c0,0,0,0,0,0c3.7-0.3,6.9,2.4,7.2,5.9
	c0,0.2,0,0.4,0,0.7l-3.9,5.7C104,116.6,103.2,116.8,102.3,116.9C102.4,116.9,102.4,116.9,102.3,116.9"/>
<path class="st9" d="M118.6,95.7l4.3-6.3l1.4-0.1l-4.3,6.3L118.6,95.7 M82.8,150.6l-0.1-1.8l5.2-7.7l0.1,1.8L82.8,150.6"/>
<path class="st14" d="M158.1,115.7l-1.8-23L120,95.6l4.3-6.3l37.3-3l1.7,21.7L158.1,115.7 M84.1,167l-1.3-16.4l5.2-7.7l0.1,1.7l0,0
	l1.3,16.1l40.3-3.2l-4.2,6.2L84.1,167"/>
<path class="st15" d="M88,142.9l-0.1-1.8l16.8-24.9c2.3-1,3.8-3.2,3.9-5.7l10-14.9l1.4-0.1L88,142.9"/>
<path class="st16" d="M88.2,144.7l-0.1-1.7L120,95.6l36.2-2.9l1.8,23l-5.5,8.1l-10.1-8.2c-1-0.8-2.3-1.2-3.5-1.1
	c-1.5,0.1-3,1-3.9,2.4l-14.7,25.1l-16.5-8.7c-0.8-0.4-1.8-0.6-2.7-0.6c-1.2,0.1-2.3,0.6-3.2,1.5L88.2,144.7"/>
<path class="st12" d="M89.5,160.8l-1.3-16.1l10-10.3c0.9-0.9,2-1.4,3.2-1.5c0.9-0.1,1.8,0.1,2.7,0.6l16.5,8.7l14.7-25.1
	c0.9-1.5,2.3-2.3,3.9-2.4c1.2-0.1,2.4,0.3,3.5,1.1l10.1,8.2l-22.8,33.7L89.5,160.8"/>
<path class="st17" d="M104.7,116.3l3.9-5.7C108.5,113,106.9,115.2,104.7,116.3"/>
<path class="st9" d="M159.1,128l-0.3-3.4l5.2-7.7l0.3,3.4L159.1,128 M132.8,163.1l4.2-6.2l2.7-0.2l-4.2,6.2L132.8,163.1"/>
<polyline class="st14" points="135.5,162.9 139.7,156.8 161.2,155 159.1,129.1 159.1,128 164.3,120.3 167.5,160.4 135.5,162.9 "/>
<polyline class="st16" points="161.2,155 159.4,131.8 161.2,155 "/>
<polyline class="st15" points="158.6,128.7 157,127.3 158.8,124.6 159.1,128 158.6,128.7 "/>
<polyline class="st16" points="159.1,129.1 158.6,128.7 159.1,128 159.1,129.1 "/>
<polyline class="st12" points="137,157 157,127.3 158.6,128.7 139.7,156.8 137,157 "/>
<polyline class="st12" points="139.7,156.8 158.6,128.7 159.1,129.1 161.2,155 139.7,156.8 "/>
<g>
	<g>
		
			<image style="overflow:visible;opacity:0.75;" width="550" height="550" xlink:href="88A3B713105D5D4B.png"  transform="matrix(0.24 0 0 0.24 139.3814 16.099)">
		</image>
		<g>
			<g>
				<path class="st5" d="M205.3,31.2c-28.1,0-50.9,22.8-50.9,50.9c0,9.5,0.2,13.8,4.7,21.4l-4.7,29.5l27.7-5.6
					c7.4,4.2,14.1,5.6,23.2,5.6c28.1,0,50.9-22.8,50.9-50.9S233.5,31.2,205.3,31.2z"/>
				<linearGradient id="SVGID_10_" gradientUnits="userSpaceOnUse" x1="220.8576" y1="43.3846" x2="185.4007" y2="131.7616">
					<stop  offset="0" style="stop-color:#5AB35C"/>
					<stop  offset="1" style="stop-color:#378D41"/>
				</linearGradient>
				<path class="st18" d="M205.3,41.8c-22.3,0-40.3,18-40.3,40.3c0,7.5,2,14.5,5.6,20.5l-3.1,17.2l17.9-2.6
					c5.9,3.3,12.6,5.2,19.8,5.2c22.3,0,40.3-18,40.3-40.3S227.6,41.8,205.3,41.8z"/>
			</g>
		</g>
	</g>
	<path class="st5" d="M187,59.5c1.6-0.7,3.2-1,4.6-1c0.3,0,0.6,0,0.7,0.1c0.2,0.1,0.7,0.7,1.4,1.8c0.7,1.1,1.4,2.5,2.3,4.1l1.3,2.4
		c0.1,0.2,0.3,0.4,0.6,0.9c0.3,0.4,0.5,0.8,0.7,1.2c0.2,0.3,0.2,0.7,0.2,1c0,0.6-0.5,1.3-1.5,2.2c-1,0.9-2,1.8-3,2.6
		c-1,0.9-1.5,1.5-1.5,2c0,0.2,0.1,0.5,0.2,0.8c0.1,0.3,0.2,0.5,0.3,0.7c0.1,0.2,0.2,0.4,0.4,0.8c0.2,0.3,0.3,0.6,0.4,0.6
		c1.7,3,3.6,5.7,5.8,7.9c2.2,2.2,4.8,4.1,7.9,5.8c0.1,0.1,0.3,0.2,0.6,0.4c0.3,0.2,0.6,0.3,0.8,0.4c0.2,0.1,0.4,0.2,0.7,0.3
		c0.3,0.1,0.5,0.2,0.8,0.2c0.4,0,0.9-0.3,1.5-0.9c0.6-0.6,1.2-1.3,1.8-2.1c0.6-0.8,1.2-1.4,1.8-2.1c0.7-0.6,1.2-0.9,1.7-0.9
		c0.3,0,0.6,0.1,1,0.2c0.3,0.2,0.7,0.4,1.2,0.7c0.4,0.3,0.7,0.5,0.9,0.6c0.2,0.1,0.6,0.3,1.3,0.7c0.7,0.4,1.4,0.8,2.1,1.2
		c0.7,0.4,1.4,0.8,2.2,1.2c0.8,0.4,1.4,0.8,1.9,1.2c0.5,0.4,0.8,0.6,0.8,0.8c0.1,0.2,0.1,0.4,0.1,0.7c0,1.5-0.3,3-1,4.7
		c-0.6,1.4-2.1,2.6-4.4,3.7c-2.3,1-4.3,1.6-6,1.6c-0.5,0-1,0-1.6-0.1c-0.6-0.1-1-0.2-1.4-0.2c-0.4-0.1-0.9-0.2-1.5-0.4
		c-0.6-0.2-1.1-0.4-1.4-0.5c-0.3-0.1-0.8-0.3-1.5-0.6c-0.7-0.3-1.2-0.4-1.4-0.5c-5-1.8-10-5.2-14.8-10c-4.8-4.8-8.1-9.7-10-14.8
		c-0.1-0.2-0.2-0.6-0.5-1.4c-0.3-0.7-0.5-1.2-0.6-1.5c-0.1-0.3-0.3-0.7-0.5-1.4c-0.2-0.6-0.3-1.1-0.4-1.5c-0.1-0.4-0.2-0.9-0.2-1.4
		c-0.1-0.6-0.1-1.1-0.1-1.6c0-1.8,0.5-3.8,1.6-6C184.4,61.6,185.6,60.1,187,59.5L187,59.5z"/>
</g>
<path class="st19" d="M138.4,238.5l-7.1,0.6c-2,0.2-3.5,2-3.3,4l0.6,7.1c0.2,2,2,3.5,4,3.3l7.1-0.6c2-0.2,3.5-2,3.3-4l-0.6-7.1
	C142.2,239.8,140.4,238.3,138.4,238.5"/>
</svg>
